<svg width="28" height="27" viewBox="0 0 28 27" fill="none" xmlns="http://www.w3.org/2000/svg">
<path fill-rule="evenodd" clip-rule="evenodd" d="M22.0201 6.76551L6.27232 12.8388C5.19787 13.27 5.20343 13.87 6.07676 14.1366L10.0034 15.3633L11.5068 19.97C11.689 20.4744 11.599 20.6744 12.129 20.6744C12.5379 20.6744 12.7179 20.4877 12.9468 20.2655C13.0912 20.1244 13.9501 19.2877 14.9101 18.3555L18.9957 21.3744C19.7468 21.7888 20.2901 21.5744 20.4768 20.6766L23.159 8.03884C23.4334 6.93884 22.739 6.43884 22.0201 6.76551ZM10.6201 15.0811L19.4723 9.49662C19.9145 9.22773 20.3201 9.37218 19.9868 9.66773L12.4068 16.5066L12.1123 19.6544L10.6201 15.0811Z" fill="#B40B47"/>
</svg>
