<svg width="20" height="19" viewBox="0 0 20 19" fill="none" xmlns="http://www.w3.org/2000/svg">
<path fill-rule="evenodd" clip-rule="evenodd" d="M15.0567 4.73716L4.03033 8.98963C3.27802 9.29149 3.28191 9.7116 3.8934 9.89832L6.64281 10.7572L7.69542 13.9827C7.82301 14.3359 7.75999 14.476 8.13109 14.476C8.41739 14.476 8.54343 14.3453 8.70369 14.1897C8.80483 14.0909 9.40621 13.5051 10.0784 12.8523L12.939 14.9661C13.465 15.2563 13.8454 15.1062 13.9761 14.4775L15.8542 5.62873C16.0463 4.85852 15.5601 4.50843 15.0567 4.73716ZM7.07459 10.5596L13.2728 6.64945C13.5824 6.46117 13.8664 6.56231 13.633 6.76926L8.32559 11.5578L8.11942 13.7618L7.07459 10.5596Z" fill="#0065A8"/>
</svg>
