<svg width="24" height="20" viewBox="0 0 24 20" fill="none" xmlns="http://www.w3.org/2000/svg">
<path fill-rule="evenodd" clip-rule="evenodd" d="M21.8031 0.626099L1.72467 8.3696C0.354755 8.91927 0.361838 9.68427 1.47534 10.0243L6.48184 11.5883L8.39859 17.4618C8.63092 18.1049 8.51617 18.3599 9.19192 18.3599C9.71325 18.3599 9.94275 18.1219 10.2346 17.8386C10.4188 17.6587 11.5138 16.5919 12.7378 15.4034L17.9469 19.2524C18.9046 19.7809 19.5973 19.5074 19.8353 18.3628L23.2552 2.2496C23.6051 0.847099 22.7197 0.209599 21.8031 0.626099ZM7.26809 11.2284L18.5547 4.10827C19.1185 3.76543 19.6356 3.9496 19.2106 4.32643L9.54609 13.046L9.17067 17.0594L7.26809 11.2284Z" fill="#B40B47"/>
</svg>
