<svg width="27" height="27" viewBox="0 0 27 27" fill="none" xmlns="http://www.w3.org/2000/svg">
<path fill-rule="evenodd" clip-rule="evenodd" d="M13.3034 7.26223C12.8061 7.26282 12.3294 7.46061 11.9778 7.81222C11.6262 8.16383 11.4284 8.64054 11.4278 9.13779C11.4278 10.1711 12.2689 11.0122 13.3034 11.0122C13.8004 11.0116 14.277 10.814 14.6286 10.4626C14.9801 10.1113 15.1781 9.63484 15.1789 9.13779C15.1784 8.64054 14.9806 8.16383 14.629 7.81222C14.2773 7.46061 13.8006 7.26282 13.3034 7.26223ZM13.3034 13.6656C12.1028 13.6644 10.9517 13.187 10.1027 12.3382C9.25363 11.4893 8.77597 10.3384 8.7745 9.13779C8.77538 7.93682 9.25278 6.78528 10.1019 5.93596C10.951 5.08665 12.1024 4.60897 13.3034 4.60779C14.5045 4.60867 15.6563 5.08622 16.5056 5.93557C17.355 6.78492 17.8325 7.93663 17.8334 9.13779C17.8319 10.3386 17.3541 11.4897 16.5048 12.3386C15.6555 13.1874 14.5042 13.6647 13.3034 13.6656ZM11.4712 17.36C10.5394 17.1478 9.65023 16.7797 8.84116 16.2711C8.54324 16.0837 8.33197 15.7856 8.25383 15.4424C8.17569 15.0992 8.23708 14.739 8.4245 14.4411C8.61192 14.1432 8.91001 13.9319 9.2532 13.8538C9.5964 13.7756 9.95657 13.837 10.2545 14.0245C11.1688 14.5964 12.2255 14.8997 13.3039 14.8997C14.3824 14.8997 15.4391 14.5964 16.3534 14.0245C16.6513 13.837 17.0115 13.7756 17.3547 13.8538C17.6979 13.9319 17.996 14.1432 18.1834 14.4411C18.3708 14.739 18.4322 15.0992 18.3541 15.4424C18.2759 15.7856 18.0646 16.0837 17.7667 16.2711C16.9575 16.7794 16.0684 17.1475 15.1367 17.36L17.6689 19.8933C17.7921 20.0166 17.8898 20.163 17.9563 20.324C18.0229 20.4851 18.0572 20.6576 18.0571 20.8319C18.057 21.0062 18.0225 21.1787 17.9557 21.3397C17.889 21.5006 17.7911 21.6469 17.6678 21.77C17.5445 21.8932 17.3982 21.9908 17.2372 22.0574C17.0761 22.124 16.9035 22.1582 16.7293 22.1581C16.555 22.158 16.3825 22.1236 16.2215 22.0568C16.0605 21.99 15.9143 21.8922 15.7912 21.7689L13.3045 19.28L10.8156 21.7689C10.5667 22.0178 10.2292 22.1576 9.87728 22.1576C9.52533 22.1576 9.1878 22.0178 8.93894 21.7689C8.69008 21.52 8.55027 21.1825 8.55027 20.8306C8.55027 20.4786 8.69008 20.1411 8.93894 19.8922L11.4712 17.36Z" fill="#0065A8"/>
</svg>
