<svg width="14" height="24" viewBox="0 0 14 24" fill="none" xmlns="http://www.w3.org/2000/svg">
<path fill-rule="evenodd" clip-rule="evenodd" d="M6.53804 4.25933C5.90405 4.26007 5.29624 4.51226 4.84794 4.96056C4.39964 5.40886 4.14746 6.01667 4.14671 6.65066C4.14671 7.96816 5.21912 9.04058 6.53804 9.04058C7.17178 9.03983 7.77938 8.78784 8.22764 8.33984C8.6759 7.89185 8.92825 7.2844 8.92937 6.65066C8.92862 6.01667 8.67644 5.40886 8.22814 4.96056C7.77984 4.51226 7.17203 4.26007 6.53804 4.25933ZM6.53804 12.4236C5.0073 12.4221 3.53966 11.8134 2.45712 10.7312C1.37459 9.64889 0.76558 8.1814 0.763705 6.65066C0.76483 5.11942 1.37351 3.65121 2.45613 2.56833C3.53874 1.48545 5.0068 0.876409 6.53804 0.874908C8.06952 0.876034 9.53795 1.48491 10.6209 2.56783C11.7038 3.65075 12.3127 5.11918 12.3138 6.65066C12.3119 8.18165 11.7027 9.64935 10.6199 10.7317C9.53703 11.814 8.06903 12.4225 6.53804 12.4236ZM4.20195 17.134C3.01397 16.8634 1.88026 16.394 0.848705 15.7457C0.468849 15.5067 0.199477 15.1266 0.0998481 14.6891C0.000219416 14.2515 0.0784951 13.7923 0.317455 13.4124C0.556415 13.0326 0.936486 12.7632 1.37406 12.6636C1.81162 12.5639 2.27085 12.6422 2.65071 12.8812C3.81643 13.6104 5.16373 13.9971 6.53875 13.9971C7.91377 13.9971 9.26107 13.6104 10.4268 12.8812C10.8066 12.6422 11.2659 12.5639 11.7034 12.6636C12.141 12.7632 12.5211 13.0326 12.76 13.4124C12.999 13.7923 13.0773 14.2515 12.9776 14.6891C12.878 15.1266 12.6086 15.5067 12.2288 15.7457C11.1971 16.3937 10.0634 16.8631 8.87554 17.134L12.1041 20.364C12.2611 20.5212 12.3857 20.7078 12.4706 20.9131C12.5555 21.1184 12.5991 21.3385 12.599 21.5607C12.5988 21.7828 12.5549 22.0028 12.4698 22.2081C12.3846 22.4133 12.2599 22.5997 12.1027 22.7567C11.9455 22.9138 11.7589 23.0383 11.5536 23.1232C11.3483 23.2081 11.1282 23.2517 10.906 23.2516C10.6838 23.2515 10.4639 23.2076 10.2586 23.1224C10.0534 23.0373 9.86697 22.9125 9.70996 22.7553L6.53946 19.582L3.36612 22.7553C3.04882 23.0726 2.61847 23.2509 2.16975 23.2509C1.72102 23.2509 1.29067 23.0726 0.973372 22.7553C0.656073 22.438 0.477817 22.0077 0.477817 21.559C0.477817 21.1102 0.656073 20.6799 0.973372 20.3626L4.20195 17.134Z" fill="#B40B47"/>
</svg>
