<svg width="20" height="19" viewBox="0 0 20 19" fill="none" xmlns="http://www.w3.org/2000/svg">
<path fill-rule="evenodd" clip-rule="evenodd" d="M9.80493 5.08493C9.45676 5.08534 9.12297 5.22383 8.87678 5.47002C8.63059 5.71621 8.4921 6.05 8.49168 6.39817C8.49168 7.1217 9.08062 7.71063 9.80493 7.71063C10.153 7.71022 10.4866 7.57184 10.7328 7.32581C10.979 7.07979 11.1175 6.7462 11.1182 6.39817C11.1178 6.05 10.9793 5.71621 10.7331 5.47002C10.4869 5.22383 10.1531 5.08534 9.80493 5.08493ZM9.80493 9.56846C8.96429 9.56764 8.15831 9.23339 7.56382 8.63904C6.96933 8.0447 6.63488 7.2388 6.63385 6.39817C6.63447 5.55727 6.96874 4.75097 7.56327 4.15629C8.15781 3.56161 8.96402 3.22714 9.80493 3.22632C10.646 3.22694 11.4524 3.56131 12.0471 4.15601C12.6418 4.75072 12.9762 5.55713 12.9768 6.39817C12.9757 7.23893 12.6412 8.04495 12.0465 8.63932C11.4519 9.23368 10.6457 9.56784 9.80493 9.56846ZM8.52203 12.1553C7.86963 12.0067 7.24703 11.7489 6.68053 11.3928C6.47193 11.2616 6.324 11.0529 6.26929 10.8126C6.21457 10.5723 6.25756 10.3201 6.38879 10.1115C6.52002 9.90289 6.72874 9.75496 6.96904 9.70025C7.20934 9.64554 7.46153 9.68852 7.67013 9.81975C8.31031 10.2202 9.0502 10.4326 9.80531 10.4326C10.5604 10.4326 11.3003 10.2202 11.9405 9.81975C12.1491 9.68852 12.4013 9.64554 12.6416 9.70025C12.8819 9.75496 13.0906 9.90289 13.2218 10.1115C13.3531 10.3201 13.3961 10.5723 13.3413 10.8126C13.2866 11.0529 13.1387 11.2616 12.9301 11.3928C12.3635 11.7487 11.7409 12.0065 11.0886 12.1553L12.8616 13.9291C12.9479 14.0154 13.0162 14.1179 13.0629 14.2306C13.1095 14.3434 13.1335 14.4642 13.1334 14.5862C13.1333 14.7083 13.1092 14.8291 13.0624 14.9418C13.0157 15.0545 12.9472 15.1569 12.8609 15.2431C12.7745 15.3293 12.6721 15.3977 12.5593 15.4443C12.4465 15.491 12.3257 15.5149 12.2037 15.5148C12.0817 15.5148 11.9609 15.4907 11.8482 15.4439C11.7355 15.3971 11.6331 15.3286 11.5468 15.2423L9.8057 13.4996L8.06301 15.2423C7.88876 15.4166 7.65243 15.5145 7.406 15.5145C7.15958 15.5145 6.92325 15.4166 6.749 15.2423C6.57475 15.0681 6.47685 14.8317 6.47685 14.5853C6.47685 14.3389 6.57475 14.1025 6.749 13.9283L8.52203 12.1553Z" fill="#0065A8"/>
</svg>
