<svg width="28" height="27" viewBox="0 0 28 27" fill="none" xmlns="http://www.w3.org/2000/svg">
<path fill-rule="evenodd" clip-rule="evenodd" d="M22.8862 8.37665C22.2206 8.67166 21.5146 8.86529 20.7917 8.9511C21.5531 8.49514 22.1229 7.77806 22.3951 6.93332C21.6789 7.358 20.8954 7.65712 20.0784 7.81777C19.5293 7.23103 18.8017 6.84205 18.0088 6.71125C17.2159 6.58044 16.402 6.71513 15.6935 7.0944C14.9851 7.47366 14.4216 8.07627 14.0908 8.80863C13.7599 9.54099 13.6802 10.3621 13.864 11.1444C12.4137 11.0718 10.9949 10.6949 9.69978 10.0383C8.40463 9.38176 7.26203 8.46014 6.34618 7.33332C5.87837 8.13589 5.73469 9.08681 5.94451 9.99177C6.15433 10.8967 6.70181 11.6874 7.47506 12.2022C6.8959 12.1841 6.32944 12.0279 5.82284 11.7467V11.7922C5.82326 12.6342 6.11476 13.4501 6.64794 14.1017C7.18111 14.7534 7.92318 15.2007 8.7484 15.3678C8.21131 15.513 7.64825 15.5343 7.10173 15.43C7.33463 16.1547 7.78821 16.7885 8.39902 17.2427C9.00983 17.6969 9.74734 17.9489 10.5084 17.9633C9.75163 18.5573 8.88515 18.9962 7.95855 19.255C7.03195 19.5137 6.06342 19.5871 5.1084 19.4711C6.77596 20.5433 8.71699 21.1126 10.6995 21.1111C17.4084 21.1111 21.0773 15.5555 21.0773 10.7367C21.0773 10.5778 21.0728 10.42 21.0662 10.2644C21.7803 9.74799 22.3966 9.10835 22.8862 8.37554V8.37665Z" fill="#0065A8"/>
</svg>
