<svg width="20" height="19" viewBox="0 0 20 19" fill="none" xmlns="http://www.w3.org/2000/svg">
<path fill-rule="evenodd" clip-rule="evenodd" d="M15.9614 5.8652C15.4954 6.07176 15.0011 6.20733 14.4949 6.26742C15.0281 5.94816 15.427 5.44607 15.6176 4.8546C15.1161 5.15195 14.5675 5.36139 13.9955 5.47387C13.611 5.06305 13.1016 4.79069 12.5464 4.6991C11.9912 4.60752 11.4213 4.70182 10.9253 4.96738C10.4292 5.23294 10.0347 5.65488 9.80303 6.16767C9.57138 6.68045 9.51555 7.25539 9.6442 7.80316C8.62875 7.75228 7.63535 7.48841 6.7285 7.02869C5.82165 6.56896 5.02162 5.92366 4.38035 5.13467C4.05279 5.69662 3.95219 6.36244 4.09911 6.99608C4.24602 7.62972 4.62936 8.18334 5.17078 8.54381C4.76526 8.53114 4.36863 8.42177 4.01392 8.22483V8.25673C4.01421 8.84626 4.21831 9.41757 4.59164 9.87384C4.96496 10.3301 5.48455 10.6433 6.06235 10.7603C5.68629 10.862 5.29204 10.8769 4.90938 10.8039C5.07245 11.3113 5.39004 11.755 5.81772 12.0731C6.24541 12.3911 6.7618 12.5675 7.29468 12.5777C6.7648 12.9936 6.15811 13.3009 5.50931 13.4821C4.86052 13.6632 4.18237 13.7146 3.51367 13.6334C4.68128 14.3841 6.04036 14.7828 7.4285 14.7817C12.126 14.7817 14.6949 10.8918 14.6949 7.51764C14.6949 7.40639 14.6918 7.29592 14.6871 7.187C15.1871 6.82539 15.6187 6.37752 15.9614 5.86442V5.8652Z" fill="#B40B47"/>
</svg>
