<svg width="24" height="19" viewBox="0 0 24 19" fill="none" xmlns="http://www.w3.org/2000/svg">
<path fill-rule="evenodd" clip-rule="evenodd" d="M23.3332 2.68024C22.4846 3.05636 21.5845 3.30324 20.6628 3.41265C21.6335 2.83131 22.36 1.91703 22.707 0.839985C21.7939 1.38145 20.7949 1.76283 19.7533 1.96765C19.0531 1.21956 18.1255 0.723619 17.1146 0.556843C16.1036 0.390066 15.0659 0.561796 14.1626 1.04536C13.2592 1.52892 12.5409 2.29725 12.1191 3.23101C11.6972 4.16476 11.5956 5.21168 11.8298 6.20915C9.98076 6.1165 8.17184 5.63601 6.52052 4.79888C4.86919 3.96175 3.41238 2.78668 2.24467 1.34999C1.64821 2.37326 1.46503 3.58569 1.73255 4.7395C2.00007 5.89332 2.6981 6.90142 3.684 7.55782C2.94557 7.53474 2.22333 7.33561 1.57742 6.97698V7.03507C1.57796 8.10858 1.94962 9.14889 2.62942 9.97973C3.30922 10.8106 4.25535 11.3808 5.3075 11.5939C4.62272 11.779 3.90481 11.8062 3.208 11.6732C3.50495 12.5972 4.08326 13.4053 4.86205 13.9844C5.64083 14.5635 6.58116 14.8848 7.5515 14.9032C6.58662 15.6606 5.48186 16.2202 4.30044 16.5501C3.11903 16.8799 1.88415 16.9736 0.666504 16.8256C2.79265 18.1927 5.26746 18.9186 7.79517 18.9166C16.349 18.9166 21.0268 11.8333 21.0268 5.68923C21.0268 5.48665 21.0212 5.28548 21.0127 5.08715C21.9232 4.42869 22.709 3.61314 23.3332 2.67882V2.68024Z" fill="#0065A8"/>
</svg>
