<svg width="27" height="27" viewBox="0 0 27 27" fill="none" xmlns="http://www.w3.org/2000/svg">
<path fill-rule="evenodd" clip-rule="evenodd" d="M21.8032 8.51117C21.9366 8.09783 21.8032 7.79672 21.2199 7.79672H19.281C18.7921 7.79672 18.5654 8.06005 18.4332 8.34228C18.4332 8.34228 17.4354 10.7534 16.0421 12.3156C15.591 12.7667 15.3832 12.9178 15.1388 12.9178C15.0066 12.9178 14.8377 12.7667 14.8377 12.3534V8.49339C14.8377 8.0045 14.6866 7.77783 14.2721 7.77783H11.2221C10.9221 7.77783 10.7332 8.00339 10.7332 8.23005C10.7332 8.70005 11.4299 8.81339 11.5043 10.1312V12.9934C11.5043 13.6145 11.3921 13.7267 11.1466 13.7267C10.4877 13.7267 8.88767 11.2989 7.92767 8.53117C7.73878 7.9845 7.551 7.77783 7.061 7.77783H5.10322C4.53878 7.77783 4.44434 8.04117 4.44434 8.32339C4.44434 8.83228 5.10322 11.3923 7.51322 14.7823C9.11322 17.0978 11.391 18.3401 13.4443 18.3401C14.6866 18.3401 14.8377 18.0578 14.8377 17.5867V15.8367C14.8377 15.2712 14.9499 15.1767 15.3454 15.1767C15.6277 15.1767 16.1366 15.3278 17.2854 16.4389C18.6032 17.7567 18.8299 18.3589 19.5632 18.3589H21.5021C22.0677 18.3589 22.331 18.0767 22.1799 17.5312C22.011 16.9845 21.371 16.1945 20.5421 15.2534C20.0899 14.7256 19.4121 14.1423 19.2054 13.8589C18.9232 13.4823 18.9988 13.3323 19.2054 12.9923C19.1866 12.9923 21.5588 9.64228 21.8032 8.51228" fill="#B40B47"/>
</svg>
