<svg width="34" height="34" viewBox="0 0 34 34" fill="none" xmlns="http://www.w3.org/2000/svg">
<path fill-rule="evenodd" clip-rule="evenodd" d="M27.7991 10.8517C27.9691 10.3247 27.7991 9.94074 27.0553 9.94074H24.5833C23.9599 9.94074 23.6709 10.2765 23.5023 10.6363C23.5023 10.6363 22.2302 13.7105 20.4537 15.7023C19.8785 16.2775 19.6136 16.4702 19.3019 16.4702C19.1333 16.4702 18.918 16.2775 18.918 15.7505V10.829C18.918 10.2057 18.7253 9.91666 18.1969 9.91666H14.3082C13.9257 9.91666 13.6848 10.2042 13.6848 10.4932C13.6848 11.0925 14.5731 11.237 14.668 12.9172V16.5665C14.668 17.3584 14.5249 17.5015 14.2118 17.5015C13.3718 17.5015 11.3318 14.4061 10.1078 10.8772C9.86692 10.1802 9.6275 9.91666 9.00275 9.91666H6.50659C5.78692 9.91666 5.6665 10.2524 5.6665 10.6122C5.6665 11.2611 6.50659 14.5251 9.57934 18.8473C11.6193 21.7997 14.5235 23.3835 17.1415 23.3835C18.7253 23.3835 18.918 23.0237 18.918 22.423V20.1917C18.918 19.4707 19.0611 19.3502 19.5654 19.3502C19.9253 19.3502 20.5741 19.5429 22.0389 20.9596C23.7191 22.6397 24.0081 23.4076 24.9431 23.4076H27.4152C28.1363 23.4076 28.472 23.0477 28.2793 22.3522C28.064 21.6552 27.248 20.6479 26.1912 19.448C25.6146 18.7751 24.7504 18.0313 24.4869 17.6701C24.1271 17.1898 24.2234 16.9986 24.4869 16.5651C24.4628 16.5651 27.4874 12.2938 27.7991 10.8531" fill="#B40B47"/>
</svg>
