<svg width="19" height="19" viewBox="0 0 19 19" fill="none" xmlns="http://www.w3.org/2000/svg">
<path fill-rule="evenodd" clip-rule="evenodd" d="M15.3097 5.95939C15.4031 5.66998 15.3097 5.45915 14.9013 5.45915H13.5437C13.2014 5.45915 13.0427 5.64353 12.9501 5.84114C12.9501 5.84114 12.2515 7.52937 11.2759 8.62322C10.96 8.93908 10.8145 9.04489 10.6434 9.04489C10.5508 9.04489 10.4326 8.93908 10.4326 8.64967V5.94695C10.4326 5.60463 10.3267 5.44592 10.0366 5.44592H7.90099C7.69093 5.44592 7.55867 5.60385 7.55867 5.76256C7.55867 6.09165 8.04647 6.17101 8.0986 7.0937V9.09779C8.0986 9.53268 8.02002 9.61126 7.84809 9.61126C7.38674 9.61126 6.26644 7.91136 5.59426 5.9734C5.462 5.59063 5.33052 5.44592 4.98743 5.44592H3.61662C3.2214 5.44592 3.15527 5.63031 3.15527 5.82791C3.15527 6.18423 3.61662 7.97671 5.30407 10.3503C6.42437 11.9717 8.01924 12.8415 9.45696 12.8415C10.3267 12.8415 10.4326 12.6439 10.4326 12.314V11.0887C10.4326 10.6927 10.5111 10.6265 10.7881 10.6265C10.9857 10.6265 11.342 10.7323 12.1465 11.5103C13.0692 12.433 13.2279 12.8547 13.7413 12.8547H15.0989C15.4949 12.8547 15.6793 12.6571 15.5735 12.2751C15.4552 11.8923 15.0071 11.3392 14.4267 10.6802C14.1101 10.3107 13.6355 9.90223 13.4908 9.70384C13.2932 9.4401 13.3461 9.33508 13.4908 9.09701C13.4776 9.09701 15.1386 6.75138 15.3097 5.96017" fill="#B40B47"/>
</svg>
