<svg width="54" height="54" viewBox="0 0 54 54" fill="none" xmlns="http://www.w3.org/2000/svg">
<circle cx="27" cy="27" r="26" stroke="#13B1B0" stroke-width="2"/>
<path fill-rule="evenodd" clip-rule="evenodd" d="M26.5 5C25.6716 5 25 5.67157 25 6.5V26.5C25 27.3284 25.6716 28 26.5 28H39.5C40.3284 28 41 27.3284 41 26.5C41 25.6716 40.3284 25 39.5 25H28V6.5C28 5.67157 27.3284 5 26.5 5Z" fill="#13B1B0"/>
<circle cx="9" cy="17" r="2" fill="#13B1B0"/>
<circle cx="45" cy="17" r="2" fill="#13B1B0"/>
<circle cx="10" cy="37" r="2" fill="#13B1B0"/>
<circle cx="44" cy="37" r="2" fill="#13B1B0"/>
<circle cx="17" cy="9" r="2" fill="#13B1B0"/>
<circle cx="37" cy="9" r="2" fill="#13B1B0"/>
<circle cx="17" cy="44" r="2" fill="#13B1B0"/>
<circle cx="37" cy="44" r="2" fill="#13B1B0"/>
<circle cx="27" cy="46" r="2" fill="#13B1B0"/>
<circle cx="6" cy="27" r="2" fill="#13B1B0"/>
<circle cx="48" cy="27" r="2" fill="#13B1B0"/>
</svg>
