<svg id="Layer_1" data-name="Layer 1" xmlns="http://www.w3.org/2000/svg" viewBox="0 0 212 58"><defs><style>.cls-1{fill:#fff;}</style></defs><title>Untitled-2</title><path class="cls-1" d="M92.15,7.32H84.38V27.73h-5V7.32H71.6V2.65H92.15Z"/><path class="cls-1" d="M103,20.24H92.44V16.16H103Z"/><path class="cls-1" d="M112.15,12.23a5.83,5.83,0,0,1,5-2.33,6.47,6.47,0,0,1,6.75,6.78V27.73h-4.67V18.18c0-2.51-1.26-3.89-3.39-3.89a3.56,3.56,0,0,0-3.67,3.93v9.51h-4.68V1.91h4.68Z"/><path class="cls-1" d="M144.79,19a12.26,12.26,0,0,1-.09,1.58H132.4a4.18,4.18,0,0,0,4.46,3.6,7,7,0,0,0,4.39-1.67l2.74,3a10.54,10.54,0,0,1-7.4,2.64c-5.32,0-9-3.62-9-9.09s3.58-9.19,8.78-9.19C141.35,9.9,144.78,13.61,144.79,19Zm-12.38-1.61h7.69c-.43-2.22-1.77-3.48-3.78-3.48C134.12,13.93,132.83,15.26,132.41,17.41Z"/><path class="cls-1" d="M153.29,27.73h-4.68V1.93h4.68Z"/><path class="cls-1" d="M176.36,19c0,5.21-3.62,9.14-8.4,9.14a6.37,6.37,0,0,1-5.11-2.26v9H158.2V10.37h4.56v1.92a6.3,6.3,0,0,1,5.18-2.39C172.74,9.9,176.36,13.83,176.36,19Zm-13.74,0a4.48,4.48,0,1,0,8.94,0,4.48,4.48,0,1,0-8.94,0Z"/><path class="cls-1" d="M196.32,19a12.26,12.26,0,0,1-.09,1.58H183.92a4.2,4.2,0,0,0,4.47,3.6,7,7,0,0,0,4.39-1.67l2.74,3a10.54,10.54,0,0,1-7.4,2.64c-5.32,0-9-3.62-9-9.09s3.58-9.19,8.77-9.19C192.88,9.9,196.3,13.61,196.32,19Zm-12.38-1.61h7.69c-.43-2.22-1.78-3.48-3.78-3.48C185.64,13.93,184.35,15.26,183.94,17.41Z"/><path class="cls-1" d="M212,10.28l-.7,4.64a7.59,7.59,0,0,0-2.83-.56c-2.17,0-3.65,1.33-3.65,3.91v9.46h-4.68V10.37h4.53v1.9a5.49,5.49,0,0,1,4.89-2.37A7.13,7.13,0,0,1,212,10.28Z"/><rect class="cls-1" x="-0.04" y="28.77" width="55.61" height="0.76" transform="translate(-12.48 28.25) rotate(-45.11)"/><rect class="cls-1" x="28.15" y="1.34" width="0.76" height="55.61" transform="translate(-12.26 28.63) rotate(-44.89)"/><circle class="cls-1" cx="27.73" cy="29" r="8.11"/><circle class="cls-1" cx="8.11" cy="9.3" r="8.11"/><circle class="cls-1" cx="47.36" cy="9.3" r="8.11"/><circle class="cls-1" cx="47.36" cy="48.7" r="8.11"/><circle class="cls-1" cx="8.11" cy="48.7" r="8.11"/><path class="cls-1" d="M77.83,43.18A2.86,2.86,0,1,1,75,40.32,2.77,2.77,0,0,1,77.83,43.18Zm-5.22,0A2.36,2.36,0,1,0,75,40.79,2.3,2.3,0,0,0,72.61,43.18Z"/><path class="cls-1" d="M84,43.67V46h-.46V43.81a1.11,1.11,0,0,0-1.2-1.22,1.21,1.21,0,0,0-1.26,1.24V46h-.46V42.22h.45v.65a1.52,1.52,0,0,1,1.35-.71A1.45,1.45,0,0,1,84,43.67Z"/><path class="cls-1" d="M90,42.74l-.29.31a1.53,1.53,0,0,0-1.1-.47,1.52,1.52,0,0,0,0,3,1.57,1.57,0,0,0,1.11-.47l.28.31a1.81,1.81,0,0,1-1.38.58,1.94,1.94,0,0,1,0-3.87A1.8,1.8,0,0,1,90,42.74Z"/><path class="cls-1" d="M96.26,44.1a2,2,0,1,1-2-1.94A1.9,1.9,0,0,1,96.26,44.1Zm-3.44,0a1.49,1.49,0,1,0,1.48-1.52A1.46,1.46,0,0,0,92.82,44.1Z"/><path class="cls-1" d="M99.46,46H99V40.22h.45Z"/><path class="cls-1" d="M106.11,44.1a2,2,0,1,1-2-1.94A1.9,1.9,0,0,1,106.11,44.1Zm-3.44,0a1.49,1.49,0,1,0,1.49-1.52A1.46,1.46,0,0,0,102.67,44.1Z"/><path class="cls-1" d="M111.89,43v-.73h.46v3.5a1.81,1.81,0,0,1-2,1.9,2.48,2.48,0,0,1-1.59-.54l.24-.34a2.16,2.16,0,0,0,1.35.46,1.38,1.38,0,0,0,1.51-1.46V45.2a1.63,1.63,0,0,1-1.46.79,1.92,1.92,0,0,1,0-3.83A1.63,1.63,0,0,1,111.89,43ZM109,44.07a1.45,1.45,0,1,0,1.45-1.49A1.43,1.43,0,0,0,109,44.07Z"/><path class="cls-1" d="M115.59,47.58h-.5l1.44-2.45-1.77-2.91h.51l1.52,2.47,1.41-2.47h.5Z"/><path class="cls-1" d="M128.12,46h-.45v-.72a1.7,1.7,0,0,1-1.49.78,1.94,1.94,0,0,1,0-3.87,1.7,1.7,0,0,1,1.49.78v-.72h.45Zm-3.35-1.87a1.47,1.47,0,1,0,1.46-1.52A1.45,1.45,0,0,0,124.77,44.1Z"/><path class="cls-1" d="M134.54,43.67V46h-.45V43.81a1.11,1.11,0,0,0-1.21-1.22,1.21,1.21,0,0,0-1.26,1.24V46h-.45V42.22h.45v.65a1.5,1.5,0,0,1,1.34-.71A1.45,1.45,0,0,1,134.54,43.67Z"/><path class="cls-1" d="M140.61,42.94V40.22h.45V46h-.45v-.72a1.69,1.69,0,0,1-1.49.78,1.94,1.94,0,0,1,0-3.87A1.69,1.69,0,0,1,140.61,42.94Zm-2.9,1.16a1.47,1.47,0,1,0,1.46-1.52A1.45,1.45,0,0,0,137.71,44.1Z"/><path class="cls-1" d="M148.42,42.93H152V40.38h.48V46H152V43.39h-3.6V46h-.49V40.38h.49Z"/><path class="cls-1" d="M159,44.07c0,.07,0,.13,0,.19h-3.15a1.41,1.41,0,0,0,1.45,1.38,1.75,1.75,0,0,0,1.27-.54l.24.31a2,2,0,0,1-1.54.62,1.94,1.94,0,0,1,0-3.87A1.8,1.8,0,0,1,159,44.07Zm-3.15-.2h2.68a1.32,1.32,0,0,0-1.3-1.31A1.37,1.37,0,0,0,155.84,43.87Z"/><path class="cls-1" d="M168,43.67V46h-.45V43.81a1.12,1.12,0,0,0-1.21-1.22,1.21,1.21,0,0,0-1.26,1.24V46h-.46V43.81a1.11,1.11,0,0,0-1.2-1.22,1.21,1.21,0,0,0-1.26,1.24V46h-.46V42.22h.46v.65a1.5,1.5,0,0,1,1.34-.71A1.47,1.47,0,0,1,165,43a1.54,1.54,0,0,1,1.46-.87A1.45,1.45,0,0,1,168,43.67Z"/><path class="cls-1" d="M174.55,46h-.45v-.72a1.69,1.69,0,0,1-1.49.78,1.94,1.94,0,0,1,0-3.87,1.69,1.69,0,0,1,1.49.78v-.72h.45ZM171.2,44.1a1.47,1.47,0,1,0,1.46-1.52A1.45,1.45,0,0,0,171.2,44.1Z"/><path class="cls-1" d="M180.14,42.63h-1.73v2c0,.63.33.93.83.93a1.37,1.37,0,0,0,.84-.29l.22.34a1.7,1.7,0,0,1-1.09.37c-.79,0-1.26-.43-1.26-1.34V42.63h-.86v-.41H178V41h.46v1.23h1.73Z"/><path class="cls-1" d="M186.39,44.1a2,2,0,1,1-2-1.94A1.9,1.9,0,0,1,186.39,44.1Zm-3.44,0a1.49,1.49,0,1,0,1.48-1.52A1.46,1.46,0,0,0,183,44.1Z"/><path class="cls-1" d="M189.59,46h-.45V40.22h.45Z"/><path class="cls-1" d="M196.24,44.1a2,2,0,1,1-2-1.94A1.9,1.9,0,0,1,196.24,44.1Zm-3.44,0a1.49,1.49,0,1,0,1.49-1.52A1.46,1.46,0,0,0,192.8,44.1Z"/><path class="cls-1" d="M202,43v-.73h.46v3.5a1.81,1.81,0,0,1-2,1.9,2.48,2.48,0,0,1-1.59-.54l.24-.34a2.16,2.16,0,0,0,1.35.46A1.38,1.38,0,0,0,202,45.74V45.2a1.63,1.63,0,0,1-1.46.79,1.92,1.92,0,0,1,0-3.83A1.63,1.63,0,0,1,202,43Zm-2.86,1.12a1.45,1.45,0,1,0,1.45-1.49A1.43,1.43,0,0,0,199.16,44.07Z"/><path class="cls-1" d="M205.72,47.58h-.5l1.44-2.45-1.77-2.91h.51l1.52,2.47,1.41-2.47h.5Z"/><path class="cls-1" d="M76.29,50h-2V55.1h-.49V50h-2v-.46h4.52Z"/><path class="cls-1" d="M81.6,55.1h-.45v-.73a1.68,1.68,0,0,1-1.49.79,1.94,1.94,0,0,1,0-3.88,1.72,1.72,0,0,1,1.49.78v-.72h.45Zm-3.35-1.88a1.46,1.46,0,1,0,1.46-1.51A1.45,1.45,0,0,0,78.25,53.22Z"/><path class="cls-1" d="M85.1,52.92h.61l1.58-1.58h.58l-1.79,1.77,1.82,2h-.58l-1.61-1.76H85.1V55.1h-.45V49.35h.45Z"/><path class="cls-1" d="M93.56,53.2v.18H90.41a1.4,1.4,0,0,0,1.45,1.38,1.78,1.78,0,0,0,1.27-.53l.24.31a2,2,0,0,1-1.54.62,1.94,1.94,0,0,1,0-3.88A1.79,1.79,0,0,1,93.56,53.2ZM90.41,53H93.1a1.33,1.33,0,0,0-1.31-1.31A1.38,1.38,0,0,0,90.41,53Z"/><path class="cls-1" d="M99.38,52.06V49.35h.45V55.1h-.45v-.73a1.68,1.68,0,0,1-1.49.79,1.94,1.94,0,0,1,0-3.88A1.72,1.72,0,0,1,99.38,52.06Zm-2.9,1.16a1.46,1.46,0,1,0,1.46-1.51A1.45,1.45,0,0,0,96.48,53.22Z"/><path class="cls-1" d="M106.39,55.1h-.45v-.73a1.68,1.68,0,0,1-1.49.79,1.94,1.94,0,0,1,0-3.88,1.72,1.72,0,0,1,1.49.78v-.72h.45ZM103,53.22a1.47,1.47,0,1,0,1.46-1.51A1.45,1.45,0,0,0,103,53.22Z"/><path class="cls-1" d="M113.6,52a1.54,1.54,0,0,1,1.34-.71,1.45,1.45,0,0,1,1.58,1.51V55.1h-.45V52.93a1.11,1.11,0,0,0-1.21-1.22A1.22,1.22,0,0,0,113.6,53V55.1h-.45V49.35h.45Z"/><path class="cls-1" d="M122.85,53.2a1,1,0,0,1,0,.18h-3.15a1.4,1.4,0,0,0,1.45,1.38,1.76,1.76,0,0,0,1.27-.53l.25.31a2,2,0,0,1-1.54.62,1.94,1.94,0,0,1,0-3.88A1.79,1.79,0,0,1,122.85,53.2ZM119.7,53h2.69a1.33,1.33,0,0,0-1.31-1.31A1.38,1.38,0,0,0,119.7,53Z"/><path class="cls-1" d="M126.05,55.1h-.45V49.35h.45Z"/><path class="cls-1" d="M132.92,53.22A1.87,1.87,0,0,1,131,55.16a1.7,1.7,0,0,1-1.49-.78v2.31h-.45V51.34h.45v.71a1.71,1.71,0,0,1,1.49-.77A1.87,1.87,0,0,1,132.92,53.22Zm-3.4,0A1.47,1.47,0,1,0,131,51.71,1.45,1.45,0,0,0,129.52,53.22Z"/><path class="cls-1" d="M139,53.2c0,.06,0,.13,0,.18h-3.15a1.4,1.4,0,0,0,1.45,1.38,1.76,1.76,0,0,0,1.27-.53l.25.31a2.05,2.05,0,0,1-1.55.62,1.94,1.94,0,0,1,0-3.88A1.79,1.79,0,0,1,139,53.2ZM135.84,53h2.68a1.31,1.31,0,0,0-1.3-1.31A1.38,1.38,0,0,0,135.84,53Z"/><path class="cls-1" d="M144,51.42l-.11.44a1.47,1.47,0,0,0-.67-.15A1.13,1.13,0,0,0,142.19,53V55.1h-.45V51.34h.44V52a1.32,1.32,0,0,1,1.16-.7A1.54,1.54,0,0,1,144,51.42Z"/></svg>