<svg width="62" height="65" viewBox="0 0 62 65" fill="none" xmlns="http://www.w3.org/2000/svg">
<path d="M59.8974 1.2037C58.8461 0.35564 57.4983 0 56.1639 0H5.53957C2.49348 0 0 2.48948 0 5.55345V59.4465C0 62.5105 2.49348 65 5.53957 65H56.447C59.5065 65 61.9865 62.5105 61.9865 59.4465V5.55345C62 3.85732 61.2452 2.2843 59.8974 1.2037ZM3.27522 13.8973C3.14043 13.8973 3.03261 13.7879 3.03261 13.6511V5.55345C3.03261 4.18561 4.16478 3.07765 5.53957 3.07765H56.447C57.8352 3.07765 58.9539 4.18561 58.9539 5.55345V13.6511C58.9539 13.7879 58.8461 13.8973 58.7113 13.8973H3.27522ZM58.7383 16.975C58.873 16.975 58.9809 17.0844 58.9809 17.2212V59.4602C58.9809 60.8281 57.8487 61.936 56.4739 61.936H5.53957C4.1513 61.936 3.03261 60.8281 3.03261 59.4602V17.2075C3.03261 17.0707 3.14043 16.9613 3.27522 16.9613H58.7383V16.975Z" fill="white"/>
<path d="M24.3956 6.45624C23.1556 6.45624 22.1582 7.48212 22.1582 8.72686C22.1582 9.9716 23.1556 10.9975 24.3956 10.9975C25.6356 10.9975 26.633 9.98528 26.633 8.72686C26.633 7.46844 25.6221 6.45624 24.3956 6.45624Z" fill="white"/>
<path d="M17.2656 6.45624C16.0256 6.45624 15.0282 7.48212 15.0282 8.72686C15.0282 9.9716 16.0256 10.9975 17.2656 10.9975C18.5056 10.9975 19.503 9.98528 19.503 8.72686C19.503 7.46844 18.5056 6.45624 17.2656 6.45624Z" fill="white"/>
<path d="M10.1491 6.45624C8.90913 6.45624 7.91174 7.48212 7.91174 8.72686C7.91174 9.9716 8.90913 10.9975 10.1491 10.9975C11.3891 10.9975 12.3865 9.98528 12.3865 8.72686C12.3865 7.46844 11.3757 6.45624 10.1491 6.45624Z" fill="white"/>
<path d="M9.4887 37.7525H20.8644C21.7404 37.7525 22.4413 37.0276 22.4413 36.1522V24.6076C22.4413 23.7185 21.727 23.0072 20.8644 23.0072H9.4887C8.61261 23.0072 7.91174 23.7321 7.91174 24.6076V36.1522C7.91174 37.0276 8.61261 37.7525 9.4887 37.7525ZM19.7591 25.9754V34.7843C19.7591 34.9211 19.6513 35.0305 19.5165 35.0305H10.8365C10.7017 35.0305 10.5939 34.9211 10.5939 34.7843V25.9754C10.5939 25.8386 10.7017 25.7292 10.8365 25.7292H19.5165C19.6513 25.7292 19.7591 25.8386 19.7591 25.9754Z" fill="white"/>
<path d="M28.4526 37.7525H53.2392C54.1152 37.7525 54.8161 37.0275 54.8161 36.1521V24.6212C54.8161 23.7321 54.1018 23.0208 53.2392 23.0208H28.4526C27.5765 23.0208 26.8757 23.7458 26.8757 24.6212V36.1658C26.8622 37.0275 27.5765 37.7525 28.4526 37.7525ZM52.1205 25.9754V34.7843C52.1205 34.9211 52.0126 35.0305 51.8779 35.0305H29.8005C29.6657 35.0305 29.5579 34.9211 29.5579 34.7843V25.9754C29.5579 25.8386 29.6657 25.7291 29.8005 25.7291H51.8913C52.0126 25.7291 52.1205 25.8386 52.1205 25.9754Z" fill="white"/>
<path d="M9.4887 56.875H20.8644C21.7404 56.875 22.4413 56.15 22.4413 55.2746V43.73C22.4413 42.8409 21.727 42.1296 20.8644 42.1296H9.4887C8.61261 42.1296 7.91174 42.8546 7.91174 43.73V55.2746C7.91174 56.1637 8.61261 56.875 9.4887 56.875ZM19.7591 45.0978V53.9068C19.7591 54.0435 19.6513 54.153 19.5165 54.153H10.8365C10.7017 54.153 10.5939 54.0435 10.5939 53.9068V45.0978C10.5939 44.9611 10.7017 44.8516 10.8365 44.8516H19.5165C19.6513 44.8653 19.7591 44.9611 19.7591 45.0978Z" fill="white"/>
<path d="M28.4526 56.875H44.7883C45.6644 56.875 46.3652 56.15 46.3652 55.2746V43.73C46.3652 42.8409 45.6509 42.1296 44.7883 42.1296H28.4526C27.5765 42.1296 26.8757 42.8546 26.8757 43.73V55.2746C26.8622 56.1637 27.5765 56.875 28.4526 56.875ZM43.6831 45.0978V53.9068C43.6831 54.0435 43.5752 54.153 43.4405 54.153H29.8005C29.6657 54.153 29.5578 54.0435 29.5578 53.9068V45.0978C29.5578 44.9611 29.6657 44.8516 29.8005 44.8516H43.4539C43.5752 44.8653 43.6831 44.9611 43.6831 45.0978Z" fill="white"/>
<path d="M13.7344 33.3344L13.9635 33.5669C14.0309 33.6216 14.0983 33.649 14.0983 33.649L14.2196 33.7037C14.3813 33.7721 14.5296 33.7995 14.6913 33.7995C14.8531 33.7995 15.0148 33.7584 15.19 33.69C15.2304 33.6763 15.2709 33.649 15.3113 33.6216L15.4596 33.5259C15.5404 33.4712 15.5809 33.4028 15.5404 33.4301L19.22 28.246C19.6109 27.6852 19.4761 26.9055 18.9235 26.4952C18.3709 26.0985 17.6026 26.2216 17.2117 26.7824L14.6374 30.4482L13.3165 28.7658C12.8987 28.246 12.1304 28.1503 11.5913 28.588C11.0522 29.012 10.9713 29.8053 11.3891 30.3525L13.7344 33.3344Z" fill="white"/>
<path d="M13.3706 49.3929C13.4649 49.4886 13.4649 49.6391 13.3706 49.7348L11.9823 51.1437C11.4971 51.6362 11.4971 52.4295 11.9823 52.9219C12.4541 53.4007 13.2628 53.387 13.721 52.9219L15.1093 51.513C15.2036 51.4173 15.3519 51.4173 15.4462 51.513L16.8345 52.9219C17.0636 53.1545 17.3736 53.2912 17.7106 53.2912C18.0475 53.2912 18.3575 53.1545 18.5867 52.9219C18.8158 52.6894 18.9506 52.3748 18.9506 52.0328C18.9506 51.6909 18.8158 51.3899 18.5867 51.1437L17.1984 49.7348C17.1041 49.6391 17.1041 49.4886 17.1984 49.3929L18.5867 47.984C18.8158 47.7515 18.9506 47.4369 18.9506 47.0949C18.9506 46.7666 18.8293 46.452 18.5867 46.2058C18.1015 45.7134 17.3197 45.7134 16.848 46.2058L15.4597 47.6147C15.3654 47.7104 15.2171 47.7104 15.1228 47.6147L13.7345 46.2058C13.2493 45.7134 12.4675 45.7271 11.9958 46.2058C11.5106 46.6982 11.5106 47.4916 11.9958 47.984L13.3706 49.3929Z" fill="white"/>
</svg>
