<svg width="28" height="35" viewBox="0 0 28 35" fill="none" xmlns="http://www.w3.org/2000/svg">
<path d="M4.375 12.25C4.858 12.25 5.25 11.858 5.25 11.375L5.25 5.25L22.75 5.25L22.75 22.75L16.625 22.75C16.142 22.75 15.75 23.142 15.75 23.625C15.75 24.108 16.142 24.5 16.625 24.5L23.625 24.5C24.108 24.5 24.5 24.108 24.5 23.625L24.5 4.375C24.5 3.892 24.108 3.5 23.625 3.5L4.375 3.5C3.892 3.5 3.5 3.892 3.5 4.375L3.5 11.375C3.5 11.858 3.892 12.25 4.375 12.25Z" fill="white"/>
<path d="M16.1853 12.5408C16.0488 12.2153 15.7303 12.0018 15.3768 12H8.37675C7.89375 12 7.50175 12.392 7.50175 12.875C7.50175 13.358 7.89375 13.75 8.37675 13.75H13.2645L4.25725 22.7555C3.91425 23.0985 3.91425 23.6515 4.25725 23.9945C4.60025 24.3375 5.15325 24.3375 5.49625 23.9945L14.5018 14.9873V19.875C14.5018 20.358 14.8938 20.75 15.3768 20.75C15.8598 20.75 16.2518 20.358 16.2518 19.875V12.875C16.2518 12.7595 16.229 12.6475 16.1853 12.5408Z" fill="white"/>
</svg>
