<svg width="58" height="74" viewBox="0 0 58 74" fill="none" xmlns="http://www.w3.org/2000/svg">
<path d="M10.1678 54.6314H27.3054C28.18 54.6314 28.8907 53.9201 28.8907 53.0447C28.8907 52.1693 28.18 51.458 27.3054 51.458H10.1678C9.29314 51.458 8.58249 52.1693 8.58249 53.0447C8.58249 53.9201 9.29314 54.6314 10.1678 54.6314Z" fill="#812990"/>
<path d="M10.1678 42.6355H41.0127C41.8874 42.6355 42.598 41.9243 42.598 41.0489C42.598 40.1734 41.8874 39.4622 41.0127 39.4622H10.1678C9.29314 39.4622 8.58249 40.1734 8.58249 41.0489C8.58249 41.9243 9.29314 42.6355 10.1678 42.6355Z" fill="#812990"/>
<path d="M10.1678 30.6258H41.0127C41.8874 30.6258 42.598 29.9145 42.598 29.0391C42.598 28.1637 41.8874 27.4524 41.0127 27.4524H10.1678C9.29314 27.4524 8.58249 28.1637 8.58249 29.0391C8.58249 29.9145 9.29314 30.6258 10.1678 30.6258Z" fill="#812990"/>
<path d="M50.0735 8.7268H41.8327L33.5919 0.492422L33.5782 0.478743C33.2776 0.16414 32.8676 0 32.4303 0C32.3756 0 32.3209 0 32.2663 0.0136784H7.92649C3.55325 0.0136784 0 3.57006 0 7.94714V58.7213C0 62.2366 2.29595 65.2185 5.46654 66.258V66.0665C5.46654 70.4436 9.01979 74 13.393 74H26.1301H30.7766H50.0599C54.4331 74 57.9863 70.4436 57.9863 66.0665V16.6603C58 12.2832 54.4468 8.7268 50.0735 8.7268ZM34.0156 5.41664L45.7823 17.1527H38.7714C36.1475 17.139 34.0292 15.0189 34.0156 12.3926V5.41664ZM3.17059 58.7076V7.93346C3.18426 5.30721 5.30255 3.18706 7.92649 3.17338H30.845V12.3926C30.845 16.7697 34.3982 20.3261 38.7714 20.3261H47.9826V58.7076C47.9826 61.3338 45.8643 63.4677 43.2403 63.4677H7.92649C5.30255 63.4677 3.18426 61.3338 3.17059 58.7076ZM54.8294 66.0802C54.8157 68.7065 52.6975 70.8266 50.0735 70.8403H30.6673H26.5674H13.393C10.7691 70.8266 8.6508 68.7065 8.63714 66.0802V66.6547H43.2267C47.5999 66.6547 51.1532 63.0983 51.1532 58.7213V18.712C51.1532 18.288 50.9892 17.8913 50.6885 17.5904L45.017 11.9275H50.0599C52.6838 11.9412 54.8021 14.0614 54.8157 16.6876V66.0802H54.8294Z" fill="#812990"/>
</svg>
