<svg width="63" height="76" viewBox="0 0 63 76" fill="none" xmlns="http://www.w3.org/2000/svg">
<path d="M62.69 8.57C62.63 8.44 62.55 8.33 62.45 8.23L54.6 0.379998C54.09 -0.130002 53.26 -0.130002 52.75 0.379998C52.65 0.479998 52.57 0.589998 52.51 0.719998L49.98 5.76L48.44 7.3L46.75 5.61C46.24 5.1 45.41 5.1 44.9 5.61L17.4 33.1C16.75 33.75 16.2 34.51 15.79 35.33H10.47C9.75 35.33 9.16 35.92 9.16 36.64V41.88C9.16 42.6 9.75 43.19 10.47 43.19H13.86L12.17 44.88C11.66 45.39 11.66 46.22 12.17 46.73L16.1 50.66C16.61 51.17 17.44 51.17 17.95 50.66L19.64 48.97V51.05C19.64 51.77 20.23 52.36 20.95 52.36H26.19C26.91 52.36 27.5 51.77 27.5 51.05V47.04C28.33 46.63 29.08 46.08 29.73 45.43L40.97 34.19C46.68 37.27 48.81 44.39 45.73 50.09C44.24 52.84 41.72 54.89 38.72 55.77L37.97 54.83C35.76 52.05 31.74 51.52 28.9 53.65H10.47C9.75 53.65 9.16 54.24 9.16 54.96V60.2C9.16 60.92 9.75 61.51 10.47 61.51H26.18V65.44H3.93C3.49 65.44 3.08 65.66 2.84 66.02L0.22 69.95C0.08 70.17 0 70.42 0 70.68V74.61C0 75.33 0.59 75.92 1.31 75.92H52.36C53.08 75.92 53.67 75.33 53.67 74.61V70.68C53.67 70.42 53.59 70.17 53.45 69.95L50.83 66.02C50.76 65.92 50.68 65.83 50.59 65.76C62.34 57.36 65.05 41.02 56.64 29.27C55.16 27.2 53.37 25.35 51.36 23.79L57.22 17.93C57.73 17.42 57.73 16.59 57.22 16.08L55.53 14.38L57.07 12.84L62.12 10.32C62.76 10.01 63.02 9.22 62.69 8.57ZM11.78 40.57V37.95H14.96C14.83 38.82 14.83 39.7 14.96 40.57H11.78ZM17.02 47.88L14.94 45.8L16.46 44.28C17.02 45.09 17.72 45.8 18.54 46.36L17.02 47.88ZM24.87 49.73H22.25V47.86C23.12 48 24 48 24.87 47.86V49.73ZM19.25 43.57C17.23 41.54 16.89 38.39 18.42 35.98L26.84 44.4C24.43 45.94 21.28 45.59 19.25 43.57ZM28.8 58.97C28.8 56.76 30.59 54.97 32.79 54.97C34.01 54.97 35.15 55.52 35.91 56.47L43.09 65.44H28.8V58.97ZM11.78 58.9V56.28H26.76C26.39 57.1 26.19 57.99 26.18 58.9H11.78ZM51.05 71.07V73.3H2.62V71.07L4.63 68.06H49.05L51.05 71.07ZM58.91 44.5C58.94 53.24 54.09 61.27 46.34 65.31L40.45 57.95C47.87 55.15 51.62 46.86 48.82 39.43C47.7 36.45 45.61 33.93 42.9 32.26L49.49 25.66C55.41 30.11 58.9 37.09 58.91 44.5ZM28.8 42.65L20.18 34.03L45.82 8.39L47.51 10.08L52.75 15.32L54.44 17.01L28.8 42.65ZM53.67 12.54L50.28 9.15L51.05 8.38L54.44 11.77L53.67 12.54ZM56.55 10.18L52.65 6.28L54.03 3.52L59.32 8.81L56.55 10.18Z" fill="white"/>
<path d="M32.58 58.79C31.67 58.79 30.93 59.53 30.93 60.44C30.93 61.35 31.67 62.09 32.58 62.09C33.49 62.09 34.23 61.35 34.23 60.44C34.23 59.53 33.48 58.79 32.58 58.79Z" fill="white"/>
<path d="M43.43 15.16L24.45 34.14C23.92 34.67 23.92 35.54 24.45 36.07C24.98 36.6 25.85 36.6 26.38 36.07L45.36 17.09C45.89 16.56 45.89 15.69 45.36 15.16C44.83 14.63 43.96 14.63 43.43 15.16Z" fill="white"/>
</svg>
