<svg width="57" height="78" viewBox="0 0 57 78" fill="none" xmlns="http://www.w3.org/2000/svg">
<path d="M57 66.8378L39.3616 45.0287L39.817 44.459C43.5937 39.7799 46.4464 35.494 48.442 31.6693C50.5982 27.3834 50.6786 22.2295 48.6696 17.8623L42.4286 4.44862C41.7321 2.72613 40.3527 1.47835 38.5045 1.01721C35.7321 0.311946 32.7321 0 29.5714 0H27.3348C24.1741 0 21.1741 0.311946 18.4821 1.01721C16.7812 1.45123 15.4286 2.61763 14.7187 4.10955C14.6652 4.1638 14.5982 4.21805 14.558 4.28586L8.31696 17.7809C6.30804 22.2295 6.38839 27.3698 8.54464 31.5879C10.3929 35.1821 14.0357 40.5665 17.1964 44.5404C17.25 44.6218 17.3304 44.6896 17.4241 44.7303L0 66.8378L13.2455 77.9864L28.3393 58.9306L43.7411 77.9864L57 66.8378ZM18.8705 2.72613C20.6384 2.33281 23.5714 1.7903 27.3482 1.7903H29.5848C33.3616 1.7903 36.2812 2.265 38.0625 2.72613C39.2946 3.03808 40.2991 3.89254 40.7545 4.99113C40.8348 4.99113 40.8348 5.07251 40.8348 5.07251V5.15389C41.0625 5.6964 41.1429 6.32029 41.0625 7.02556C40.8616 8.9108 40.2054 11.5013 38.6518 14.892C37.0312 14.6614 32.5848 14.0376 28.5 14.0376C24.4821 14.0376 20.1295 14.6343 18.442 14.8785C16.8348 11.3657 16.0848 8.69379 15.8705 7.02556C15.7098 5.07251 16.942 3.20083 18.8705 2.72613ZM28.3929 30.8555C28.3795 30.8419 28.3795 30.8284 28.3795 30.8148C24.0804 25.1998 21.1607 20.4121 19.2187 16.506C21.1205 16.2347 25.0045 15.7465 28.5 15.7465C32.0089 15.7465 35.9732 16.2483 37.8616 16.5196C35.933 20.3579 32.9464 25.0777 28.3929 30.8555ZM10.1652 30.7334C8.15625 26.9901 8.15625 22.4601 9.9375 18.5676L14.4509 8.80229C14.8527 10.5926 15.6696 12.9797 17.0223 15.9092C17.0223 15.9364 17.0089 15.9635 17.0223 15.9906C17.0625 16.2076 17.1696 16.3975 17.317 16.5331C19.3125 20.6834 22.3929 25.8508 26.9866 31.9134C27.0804 32.0355 27.2143 32.1168 27.3482 32.1711L18.5491 43.3198C15.4821 39.4272 11.933 34.2191 10.1652 30.7334ZM12.9375 75.5044L2.46429 66.6072L28.808 33.1476C38.2768 21.4429 41.5179 13.6442 42.5089 8.89723L47.0491 18.6489C48.817 22.4737 48.75 27.0715 46.8214 30.8148C44.8929 34.5582 42.1205 38.7762 38.4241 43.2926L12.9375 75.5044ZM38.25 46.4392L54.5357 66.5258L44.0625 75.4231L29.4777 57.5201L38.25 46.4392Z" fill="white"/>
</svg>
