<svg width="14" height="11" viewBox="0 0 14 11" fill="none" xmlns="http://www.w3.org/2000/svg">
<path d="M1.81965 3.88867C1.50326 3.43599 0.879807 3.32551 0.427129 3.64189C-0.0255486 3.95828 -0.136034 4.58173 0.180354 5.03441L1.81965 3.88867ZM4.87097 10L4.05132 10.5729C4.22584 10.8226 4.50466 10.9791 4.80871 10.9981C5.11276 11.017 5.40887 10.8964 5.61307 10.6703L4.87097 10ZM13.7421 1.67029C14.1123 1.26043 14.0801 0.628086 13.6703 0.257897C13.2604 -0.112292 12.6281 -0.0801382 12.2579 0.329714L13.7421 1.67029ZM0.180354 5.03441L4.05132 10.5729L5.69061 9.42713L1.81965 3.88867L0.180354 5.03441ZM5.61307 10.6703L13.7421 1.67029L12.2579 0.329714L4.12887 9.32971L5.61307 10.6703Z" fill="#02A0AF"/>
</svg>
