<svg fill="none" height="57" viewBox="0 0 57 57" width="57" xmlns="http://www.w3.org/2000/svg" xmlns:xlink="http://www.w3.org/1999/xlink"><clipPath id="a"><path d="m0 0h57v57h-57z"/></clipPath><g clip-path="url(#a)" fill="#fff"><path d="m49.4787 16.7174c.7366-.404 1.4168-.9121 2.0182-1.5135 3.4724-3.4725 3.4724-9.12274 0-12.59538-1.6823-1.682162-3.9188-2.60852-6.2977-2.60852-2.379 0-4.6156.926358-6.2977 2.60863-1.267 1.26702-2.0695 2.82438-2.4119 4.45957-1.855-.60952-3.7715-1.00463-5.7194-1.17785-.2122-.26797-.4398-.52758-.6873-.77495-1.6822-1.68216-3.9188-2.60863-6.2976-2.60863-2.3789 0-4.6154.92635-6.2977 2.60863-1.2721 1.27225-2.0763 2.83707-2.4163 4.4796-3.5846 2.2131-6.59212 5.2919-8.71313 8.9334-2.26585 3.8903-3.46352 8.3394-3.46352 12.8661 0 6.8396 2.66341 13.2695 7.49955 18.1058 4.8362 4.8362 11.2664 7.4996 18.1058 7.4996s13.2695-2.6634 18.1058-7.4996c4.8362-4.8362 7.4996-11.2662 7.4996-18.1058 0-5.2323-1.6359-10.3953-4.6267-14.6771zm-9.0027-12.53437c1.2616-1.26168 2.9389-1.95648 4.7232-1.95648 1.7841 0 3.4616.6948 4.7232 1.95648 2.6044 2.6044 2.6044 6.84207 0 9.44647-.8728.8728-1.965 1.4854-3.1585 1.7714-.2971.0712-.5521.2616-.7048.5263l-.8598 1.4899-.8597-1.4898c-.1527-.2647-.4077-.4551-.7049-.5263-1.1939-.2861-2.2861-.8987-3.1589-1.7715-2.6042-2.6044-2.6042-6.84207.0002-9.44647zm-21.4139 2.50687c1.2617-1.26167 2.9391-1.95647 4.7232-1.95647s3.4616.6948 4.7232 1.95647c2.6044 2.6044 2.6044 6.8421 0 9.4465-.8728.8728-1.965 1.4853-3.1584 1.7713-.2971.0713-.5519.2615-.7048.5263l-.8599 1.4901-.8597-1.4899c-.1527-.2647-.4076-.4551-.7049-.5264-1.1938-.2861-2.2861-.8986-3.1589-1.7714-2.6042-2.6044-2.6042-6.84221.0002-9.4465zm-10.43474 12.424c.13326.5176.46268 1.1083 1.29697 1.5878.95467.5486 1.92427.4068 2.63227.3034.1216-.0178.2814-.0412.4091-.0529.0131.091.0244.2239.0244.4117 0 1.531.7815 2.6726 2.2006 3.2147 1.0354.3957 2.2563.4276 3.2372.4534.3879.0102.8995.0236 1.1471.0677.5299.6386.9065 1.0039 1.154 1.2364-.0008.003-.0014.0061-.0022.0092-.0619.2593-.1466.6146-.2414 1.1361-.1886 1.0372.2032 1.7956.7507 2.4047-3.3074-1.5686-7.3885-.988-10.1213 1.7448-1.87636 1.8763-2.7367 4.3882-2.58541 6.849-.3823.3637-1.14033.9869-1.78837 1.4666-1.04514-2.6499-1.6197-5.5351-1.6197-8.552-.00011-4.3911 1.25622-8.6377 3.50604-12.2806zm2.10534 18.8148c0-1.7843.6948-3.4618 1.9565-4.7233 1.3022-1.3021 3.0126-1.9533 4.7231-1.9533 1.7106 0 3.421.6512 4.7232 1.9533 2.6044 2.6044 2.6044 6.8421 0 9.4465-.8728.8728-1.9649 1.4853-3.1585 1.7713-.2971.0713-.552.2616-.7048.5264l-.8597 1.49-.8598-1.4899c-.1528-.2648-.4076-.4551-.7048-.5264-1.1938-.2861-2.2862-.8986-3.1589-1.7714-1.2615-1.2616-1.9563-2.939-1.9563-4.7232zm-3.05652 4.087c.4501-.3131.93905-.6914 1.36911-1.0422.43017 1.1877 1.11871 2.3021 2.06931 3.2529 1.0469 1.0468 2.3315 1.8131 3.7394 2.2343l1.063 1.8419c.3019.5325.8697.8656 1.4842.8701.0042.0001.0084.0001.0126.0001.6112 0 1.1799-.3275 1.4874-.8584l1.0699-1.8538c1.4074-.4213 2.692-1.1875 3.7388-2.2342 2.451-2.4511 3.1695-5.9866 2.1604-9.0759.5312-.8823.5212-1.2208.5165-1.3599-.0865-2.5421-1.6036-3.784-2.7113-4.6909-.8743-.7157-1.0518-.9323-.9995-1.2199.084-.4619.1606-.7832.2166-1.0179.227-.9515.1761-1.3862-.5723-2.0858-.234-.2189-.5877-.5496-1.1452-1.2362-.55-.6775-1.4939-.7024-2.6889-.7336-2.5669-.0675-3.2698-.3776-3.2698-1.4424 0-.6541-.0789-1.592-.7619-2.1824-.6969-.6025-1.5416-.4788-2.2203-.3797-.4704.0687-.9146.1337-1.2007-.0305-.2666-.1533-.2666-.1533-.2757-.5468-.0089-.3939-.0227-.9713-.3896-1.5652 1.312-1.6199 2.844-3.072 4.566-4.3036.2065 1.957 1.0564 3.8585 2.5531 5.3552 1.0469 1.0468 2.3316 1.8131 3.7395 2.2343l1.0631 1.8424c.302.5322.8697.8651 1.4839.8697.0043 0 .0084.0001.0126.0001.6112-.0001 1.1801-.3275 1.4875-.8584l1.0698-1.8538c1.4074-.4212 2.692-1.1875 3.7388-2.2342 2.5402-2.5403 3.2197-6.245 2.0436-9.41096 1.4231.22332 2.8222.57768 4.1827 1.05995.1075 2.12721.9712 4.22301 2.5922 5.84411 1.0468 1.0468 2.3316 1.8131 3.7395 2.2344l.9405 1.6298c-.4338.695-1.0935 1.38-2.7203 1.9587-.417.1484-.7765.2904-1.0936.4156-.4092.1617-.7721.3028-1.1623.4227-2.59-.2794-5.2798.5695-7.261 2.5506-3.4724 3.4726-3.4724 9.1228 0 12.5954.1527.1528.311.2987.4735.4392-.4397.4361-.9276.6569-1.4584.6569-.0088 0-.0176-.0001-.0264-.0003-1.2729-.017-2.1822.3026-2.7836.9783-.916 1.0289-.7264 2.4848-.574 3.6546.0584.4481.1799 1.3806.0477 1.5763-.1082.1179-.2635.2657-.428.4221-.7359.7001-1.8482 1.7583-2.0896 3.2828-.2315 1.4622.4161 2.5651.9875 3.5381.6175 1.0517 1.0841 1.847.6761 3.0983-8.0744-.8032-14.9534-5.7314-18.49242-12.6419zm25.24242-6.579c-2.6044-2.6044-2.6044-6.8421 0-9.4465 1.3022-1.3021 3.0128-1.9532 4.7233-1.9532 1.7106 0 3.421.6511 4.7232 1.9532 2.6044 2.6044 2.6044 6.8421 0 9.4465-.8728.8728-1.9649 1.4854-3.1585 1.7714-.2971.0712-.552.2616-.7048.5263l-.8598 1.49-.8598-1.4899c-.1527-.2647-.4076-.4551-.7049-.5263-1.1936-.2863-2.286-.8988-3.1587-1.7715zm-4.4186 19.3368c-.0201 0-.0402-.0007-.0603-.0008.403-1.9051-.4054-3.2824-1.0269-4.3408-.5053-.8606-.8099-1.4208-.7083-2.0624.1235-.7796.8452-1.4663 1.4252-2.018.1924-.1831.3741-.3559.5332-.5291.8401-.915.6703-2.2193.5203-3.37-.0889-.6826-.2107-1.6173.0291-1.8865.0511-.0574.2807-.2443 1.0901-.2325.0192.0003.0381.0004.0572.0004 1.2623 0 2.417-.5739 3.3327-1.6374.4466.2211.9115.4056 1.3912.5492l1.0628 1.8419c.302.5324.8697.8656 1.4843.87.0042.0001.0083.0001.0125.0001.6112 0 1.18-.3275 1.4875-.8583l1.0699-1.8538c1.4074-.4213 2.692-1.1876 3.7388-2.2343 3.4724-3.4725 3.4724-9.1227 0-12.5954-.5819-.5819-1.2261-1.064-1.9099-1.4509 1.9762-.7895 2.8893-1.813 3.5164-2.8499.4744-.0978.8937-.3939 1.142-.8228l.8476-1.4685c2.8069 3.9422 4.3432 8.7243 4.3432 13.571.0002 12.891-10.4875 23.3788-23.3786 23.3788z"/><path d="m36.5286 33.862v.5672c0 .6148.4984 1.1133 1.1133 1.1133.6148 0 1.1132-.4985 1.1132-1.1133v-.5672c.39-.1383.7465-.3471 1.0549-.6111l.493.2846c.1754.1012.3668.1494.5556.1494.3847 0 .759-.1998.9652-.557.3074-.5324.1249-1.2133-.4076-1.5206l-.4913-.2837c.0368-.1979.0569-.4017.0569-.6101s-.0201-.412-.0568-.6098l.4914-.2837c.5325-.3075.715-.9883.4075-1.5207-.3074-.5325-.9884-.715-1.5207-.4075l-.493.2845c-.3084-.2639-.665-.4727-1.0549-.611v-.5673c0-.6147-.4985-1.1132-1.1133-1.1132-.6149 0-1.1133.4985-1.1133 1.1132v.5673c-.39.1382-.7466.3471-1.055.611l-.4929-.2845c-.5324-.3073-1.2133-.125-1.5208.4075-.3074.5324-.125 1.2132.4075 1.5207l.4914.2837c-.0367.1979-.0568.4015-.0568.6098 0 .2084.0202.4122.0569.6101l-.4913.2837c-.5325.3073-.7149.9882-.4075 1.5206.2061.3572.5803.557.9652.557.1888 0 .3803-.0482.5555-.1494l.4931-.2846c.3081.2639.6647.4727 1.0546.6111z"/><path d="m13.2306 40.3427c.2061.3573.5803.557.9652.557.1888 0 .3803-.0482.5555-.1494l.4931-.2847c.3083.2639.6649.4727 1.0548.6111v.5672c0 .6148.4984 1.1133 1.1133 1.1133.6148 0 1.1133-.4985 1.1133-1.1133v-.5672c.3899-.1383.7464-.3471 1.0548-.6111l.493.2847c.1753.1012.3666.1494.5555.1494.3847 0 .759-.1997.9652-.5569.3074-.5324.1249-1.2133-.4076-1.5207l-.4913-.2837c.0368-.1979.0568-.4016.0568-.61 0-.2083-.0201-.412-.0568-.6099l.4914-.2838c.5325-.3075.7149-.9883.4075-1.5207-.3075-.5326-.9884-.715-1.5209-.4075l-.4928.2846c-.3084-.264-.665-.4728-1.0549-.6111v-.5671c0-.6148-.4985-1.1133-1.1133-1.1133-.6149 0-1.1133.4985-1.1133 1.1133v.5671c-.39.1383-.7466.3472-1.055.6111l-.4928-.2846c-.5324-.3074-1.2133-.125-1.5207.4075-.3075.5325-.1251 1.2132.4074 1.5207l.4914.2837c-.0366.1978-.0568.4015-.0568.6098 0 .2084.0202.4121.0568.61l-.4914.2837c-.5324.3075-.7148.9885-.4074 1.5208z"/><path d="m20.0112 10.5194.4912.2836c-.0367.198-.0567.4016-.0567.61s.0201.412.0567.61l-.4914.2837c-.5324.3075-.7148.9884-.4074 1.5208.2063.3572.5803.5568.9651.5568.1888 0 .3804-.0482.5556-.1494l.493-.2845c.3084.2638.665.4727 1.0548.6111v.5672c0 .6147.4984 1.1133 1.1133 1.1133s1.1133-.4986 1.1133-1.1133v-.5672c.39-.1383.7464-.3472 1.0548-.6111l.493.2847c.1753.1012.3667.1494.5556.1494.3848 0 .7589-.1998.9651-.5569.3075-.5325.125-1.2133-.4074-1.5207l-.4914-.2837c.0367-.198.0567-.4016.0567-.61s-.0201-.412-.0567-.6099l.4913-.2837c.5324-.3074.7149-.98827.4075-1.52064-.3074-.5326-.9881-.71506-1.5207-.40758l-.493.28456c-.3084-.26396-.6649-.47281-1.0549-.61108v-.56711c0-.61475-.4984-1.11328-1.1133-1.11328s-1.1133.49853-1.1133 1.11328v.56711c-.39.13827-.7466.34712-1.0549.61108l-.493-.28456c-.5323-.30726-1.2132-.1249-1.5207.40747-.3072.53226-.1247 1.21315.4078 1.52055z"/><path d="m41.4251 8.01291.4913.28366c-.0368.19794-.0568.40156-.0568.60997 0 .2084.0201.41202.0568.60996l-.4914.28378c-.5325.30752-.7149.98842-.4075 1.52072.2063.3573.5804.5569.9651.5569.1888 0 .3804-.0482.5556-.1494l.493-.2846c.3084.2639.665.4727 1.0548.6111v.5672c0 .6148.4985 1.1133 1.1133 1.1133.6149 0 1.1133-.4985 1.1133-1.1133v-.5672c.3899-.1383.7464-.3471 1.0548-.611l.4929.2846c.1753.1012.3667.1494.5556.1494.3848 0 .7589-.1997.9651-.5569.3075-.5323.125-1.2132-.4074-1.52071l-.4914-.28366c.0367-.19795.0567-.40156.0567-.60997s-.0201-.41203-.0567-.60997l.4912-.28355c.5325-.30738.715-.98826.4076-1.52074-.3075-.53248-.9882-.71495-1.5207-.40746l-.4929.28455c-.3084-.26396-.6649-.47281-1.0549-.61108v-.5671c0-.61476-.4984-1.11329-1.1133-1.11329s-1.1133.49853-1.1133 1.11329v.5671c-.39.13827-.7465.34712-1.0549.61108l-.493-.28455c-.5322-.30727-1.2133-.12502-1.5207.40746s-.1247 1.21303.4078 1.52041z"/></g></svg>