<svg fill="none" height="65" viewBox="0 0 65 65" width="65" xmlns="http://www.w3.org/2000/svg"><g fill="#fff"><path d="m19.2969 5.07812c-7.8406 0-14.21878 6.37818-14.21878 14.21878s6.37818 14.2187 14.21878 14.2187 14.2187-6.3781 14.2187-14.2187-6.3781-14.21878-14.2187-14.21878zm0 26.40628c-6.7204 0-12.18752-5.4671-12.18752-12.1875s5.46712-12.18752 12.18752-12.18752 12.1875 5.46712 12.1875 12.18752-5.4671 12.1875-12.1875 12.1875z"/><path d="m19.2969 53.8281c-1.6799 0-3.0469 1.3671-3.0469 3.0469s1.367 3.0469 3.0469 3.0469c1.6798 0 3.0469-1.3671 3.0469-3.0469s-1.3671-3.0469-3.0469-3.0469zm0 4.0625c-.5607 0-1.0157-.455-1.0157-1.0156s.455-1.0156 1.0157-1.0156c.5606 0 1.0156.455 1.0156 1.0156s-.455 1.0156-1.0156 1.0156z"/><path d="m19.2969 16.25c-1.6799 0-3.0469 1.367-3.0469 3.0469 0 1.6798 1.367 3.0469 3.0469 3.0469 1.6798 0 3.0469-1.3671 3.0469-3.0469 0-1.6799-1.3671-3.0469-3.0469-3.0469zm0 4.0625c-.5607 0-1.0157-.456-1.0157-1.0156s.455-1.0157 1.0157-1.0157c.5606 0 1.0156.4561 1.0156 1.0157s-.455 1.0156-1.0156 1.0156z"/><path d="m11.1719 16.25c-1.67987 0-3.0469 1.367-3.0469 3.0469 0 1.6798 1.36703 3.0469 3.0469 3.0469 1.6798 0 3.0469-1.3671 3.0469-3.0469 0-1.6799-1.3671-3.0469-3.0469-3.0469zm0 4.0625c-.5607 0-1.0157-.456-1.0157-1.0156s.455-1.0157 1.0157-1.0157c.5606 0 1.0156.4561 1.0156 1.0157s-.455 1.0156-1.0156 1.0156z"/><path d="m24.375 19.2969c0 1.6798 1.367 3.0469 3.0469 3.0469 1.6798 0 3.0469-1.3671 3.0469-3.0469 0-1.6799-1.3671-3.0469-3.0469-3.0469-1.6799 0-3.0469 1.367-3.0469 3.0469zm4.0625 0c0 .5596-.455 1.0156-1.0156 1.0156-.5607 0-1.0157-.456-1.0157-1.0156s.455-1.0157 1.0157-1.0157c.5606 0 1.0156.4561 1.0156 1.0157z"/><path d="m47.7344 49.7656h12.1875v2.0313h-12.1875z"/><path d="m47.7344 53.8281h8.125v2.0313h-8.125z"/><path d="m57.8906 53.8281h2.0313v2.0313h-2.0313z"/><path d="m47.7344 57.8906h12.1875v2.0313h-12.1875z"/><path d="m47.7344 27.4219h12.1875v2.0312h-12.1875z"/><path d="m47.7344 31.4844h12.1875v2.0312h-12.1875z"/><path d="m57.8906 35.5469h2.0313v2.0312h-2.0313z"/><path d="m47.7344 35.5469h8.125v2.0312h-8.125z"/><path d="m46.7188 19.2969h14.2187c1.6798 0 3.0469-1.3671 3.0469-3.0469v-12.1875c0-1.67984-1.3671-3.04688-3.0469-3.04688h-14.2187c-1.6799 0-3.0469 1.36704-3.0469 3.04688v5.07812h-4.483l-3.0489 3.04888c-2.7788-6.55989-9.2828-11.17388-16.8431-11.17388-10.0801 0-18.28128 8.20118-18.28128 18.28128 0 8.2357 5.47727 15.212 12.97868 17.4911l.3453.5789c.5698.9577.8775 2.0495.8948 3.1606l-2.9078 14.5407c-.0924.4601-.1391.9283-.1391 1.3945v.4123c0 3.9193 3.1901 7.1094 7.1094 7.1094s7.1093-3.1901 7.1093-7.1094v-.4123c0-.4662-.0467-.9344-.1381-1.3945l-2.9077-14.5397c.0173-1.1121.325-2.2029.8948-3.1596l.3453-.5799c.521-.1585 1.0298-.3443 1.5305-.5474l12.932 19.6178h4.6089v5.0781c0 1.6798 1.367 3.0469 3.0469 3.0469h14.2187c1.6798 0 3.0469-1.3671 3.0469-3.0469v-12.1875c0-1.6798-1.3671-3.0469-3.0469-3.0469h-14.2187c-1.6799 0-3.0469 1.3671-3.0469 3.0469v5.0781h-3.5161l-12.1631-18.4549c2.535-1.3762 4.7033-3.3404 6.3375-5.7007l3.8431 3.8431h5.4986v5.0782c0 1.6798 1.367 3.0468 3.0469 3.0468h14.2187c1.6798 0 3.0469-1.367 3.0469-3.0468v-12.1876c0-1.6798-1.3671-3.0468-3.0469-3.0468h-14.2187c-1.6799 0-3.0469 1.367-3.0469 3.0468v5.0782h-4.6577l-3.5922-3.5923c1.3731-2.5644 2.1561-5.4894 2.1561-8.5952 0-1.7246-.2559-3.3871-.7048-4.9695l3.1565-3.1555h3.6421v5.0781c0 1.6798 1.367 3.0469 3.0469 3.0469zm-1.0157 29.4531c0-.5606.455-1.0156 1.0157-1.0156h14.2187c.5606 0 1.0156.455 1.0156 1.0156v12.1875c0 .5606-.455 1.0156-1.0156 1.0156h-14.2187c-.5607 0-1.0157-.455-1.0157-1.0156zm0-22.3438c0-.5596.455-1.0156 1.0157-1.0156h14.2187c.5606 0 1.0156.456 1.0156 1.0156v12.1876c0 .5606-.455 1.0156-1.0156 1.0156h-14.2187c-.5607 0-1.0157-.455-1.0157-1.0156zm-21.4266 29.0591c.066.3291.0985.6642.0985.9974v.4123c0 2.8001-2.278 5.0781-5.0781 5.0781s-5.0781-2.278-5.0781-5.0781v-.4123c0-.3332.0325-.6683.0985-.9954l2.7655-13.8267h4.4474zm-2.8803-15.8559h-4.1996c-.0945-.7749-.2915-1.5336-.5952-2.2527.8826.131 1.7773.2214 2.6955.2214.9181 0 1.8129-.0904 2.6944-.2214-.3036.7191-.4997 1.4778-.5951 2.2527zm-2.0993-4.0625c-8.9599 0-16.25002-7.2902-16.25002-16.25 0-8.9599 7.29012-16.25002 16.25002-16.25002 8.9598 0 16.25 7.29012 16.25 16.25002 0 8.9598-7.2902 16.25-16.25 16.25zm26.4062-31.4844c0-.55961.455-1.01562 1.0157-1.01562h14.2187c.5606 0 1.0156.45601 1.0156 1.01562v12.1875c0 .5596-.455 1.0156-1.0156 1.0156h-14.2187c-.5607 0-1.0157-.456-1.0157-1.0156z"/><path d="m47.7344 5.07812h12.1875v2.03126h-12.1875z"/><path d="m47.7344 9.14062h2.0312v2.03128h-2.0312z"/><path d="m51.7969 9.14062h8.125v2.03128h-8.125z"/><path d="m47.7344 13.2031h12.1875v2.0313h-12.1875z"/></g></svg>