<svg fill="none" height="65" viewBox="0 0 65 65" width="65" xmlns="http://www.w3.org/2000/svg" xmlns:xlink="http://www.w3.org/1999/xlink"><clipPath id="a"><path d="m0 0h65v65h-65z"/></clipPath><g clip-path="url(#a)" fill="#13b1b0"><path d="m50.0195 8.38602h-7.6329v-7.498871c-.0004-.235427-.0942-.461073-.2608-.627402-.1666-.1663287-.3924-.2597472-.6279-.25974685h-17.9958c-.1168-.00006676-.2323.02287385-.3402.06751015-.1078.0446367-.2058.1100927-.2884.1926267-.0825.082534-.148.180527-.1926.288376s-.0676.223438-.0675.340159v7.497348h-7.6329c-1.3127.00147-2.5712.52359-3.4994 1.45179-.9282.92819-1.4503 2.18669-1.4518 3.49939v46.7096c.0009 1.313.5228 2.572 1.4511 3.5007.9282.9286 2.187 1.451 3.5001 1.4525h35.039c1.3127-.0015 2.5712-.5236 3.4994-1.4518s1.4503-2.1867 1.4518-3.4994v-46.7116c-.0015-1.3127-.5236-2.5712-1.4518-3.49939-.9282-.9282-2.1867-1.45032-3.4994-1.45179zm-26.5174 6.85548h24.6131v42.903h-31.2304v-42.903zm.8886-13.46416h16.2186v11.68676h-16.2186zm28.8027 58.26946c-.001.8415-.3357 1.6482-.9307 2.2432s-1.4017.9297-2.2432.9306h-35.039c-.8415-.0009-1.6482-.3356-2.2432-.9306s-.9297-1.4017-.9307-2.2432v-46.7096c.001-.8415.3357-1.6482.9307-2.2432s1.4017-.9297 2.2432-.9306h7.6329v3.3007h-6.6173c-.1167 0-.2323.0229-.3402.0676-.1078.0446-.2058.11-.2883.1926-.0826.0825-.148.1805-.1927.2884-.0446.1078-.0675.2234-.0675.3401v44.6784c-.0003.1169.0224.2327.0669.3408.0446.108.11.2063.1925.289.0826.0828.1807.1484.2887.1932.1079.0447.2237.0677.3406.0677h33.0078c.1167 0 .2323-.0229.3402-.0675.1078-.0447.2058-.1101.2883-.1927.0826-.0825.148-.1805.1927-.2883.0446-.1079.0675-.2235.0675-.3402v-44.6804c0-.1167-.0229-.2323-.0675-.3401-.0447-.1079-.1101-.2059-.1927-.2884-.0825-.0826-.1805-.148-.2883-.1926-.1079-.0447-.2235-.0676-.3402-.0676h-6.6173v-3.3007h7.6329c.8415.0009 1.6482.3356 2.2432.9306s.9297 1.4017.9307 2.2432z"/><path d="m29.6912 8.50891h1.92v1.91999c0 .2357.0936.4618.2603.6284.1666.1667.3927.2603.6284.2603s.4617-.0936.6284-.2603c.1666-.1666.2602-.3927.2602-.6284v-1.91999h1.9201c.2357 0 .4617-.09363.6284-.26029.1666-.16666.2603-.3927.2603-.62839s-.0937-.46172-.2603-.62838c-.1667-.16666-.3927-.26029-.6284-.26029h-1.9201v-1.92004c0-.23569-.0936-.46172-.2602-.62838-.1667-.16666-.3927-.26029-.6284-.26029s-.4618.09363-.6284.26029c-.1667.16666-.2603.39269-.2603.62838v1.92004h-1.92c-.2357 0-.4618.09363-.6284.26029-.1667.16666-.2603.39269-.2603.62838s.0936.46173.2603.62839c.1666.16666.3927.26029.6284.26029z"/><path d="m22.9751 30.0709c.1794.1513.4113.2255.6452.2065.234-.019.4509-.1297.6035-.308l4.9517-5.7688c.0834-.0873.1482-.1906.1904-.3038.0422-.1131.0608-.2337.0549-.3543-.006-.1206-.0365-.2387-.0896-.3472-.0532-.1084-.1279-.2049-.2195-.2835-.0917-.0786-.1984-.1377-.3137-.1737s-.2367-.0481-.3568-.0356-.2364.0494-.3418.1083-.1976.1387-.2712.2345l-4.3783 5.099-1.8012-1.5234c-.0891-.0755-.1922-.1326-.3034-.1682s-.2283-.0489-.3446-.0393c-.1163.0097-.2296.0422-.3334.0956-.1038.0535-.196.1269-.2714.216-.0754.089-.1326.1921-.1682.3033-.0355.1112-.0489.2283-.0392.3446.0096.1163.0421.2296.0956.3334.0534.1038.1268.196.2159.2714z"/><path d="m32.5 25.4014h11.4258c.2357 0 .4617-.0937.6284-.2603.1666-.1667.2603-.3927.2603-.6284s-.0937-.4617-.2603-.6284c-.1667-.1666-.3927-.2603-.6284-.2603h-11.4258c-.2357 0-.4617.0937-.6284.2603-.1666.1667-.2603.3927-.2603.6284s.0937.4617.2603.6284c.1667.1666.3927.2603.6284.2603z"/><path d="m32.5 29.3931h7.7441c.2357 0 .4618-.0937.6284-.2603.1667-.1667.2603-.3927.2603-.6284s-.0936-.4617-.2603-.6284c-.1666-.1667-.3927-.2603-.6284-.2603h-7.7441c-.2357 0-.4617.0936-.6284.2603-.1666.1667-.2603.3927-.2603.6284s.0937.4617.2603.6284c.1667.1666.3927.2603.6284.2603z"/><path d="m22.9751 40.255c.1793.1514.4113.2257.6453.2067.2339-.0191.4508-.1299.6034-.3083l4.9517-5.7682c.1535-.1789.2297-.4114.2118-.6465-.0179-.235-.1285-.4533-.3073-.6068-.1789-.1536-.4114-.2298-.6464-.2119-.2351.018-.4534.1285-.6069.3073l-4.3768 5.101-1.8012-1.5234c-.0891-.0754-.1922-.1326-.3034-.1682-.1112-.0355-.2283-.0489-.3446-.0392-.1163.0096-.2296.0421-.3334.0956-.1038.0534-.196.1268-.2714.2159s-.1326.1922-.1682.3033c-.0355.1112-.0489.2283-.0392.3446.0096.1164.0421.2297.0956.3334.0534.1038.1268.196.2159.2715z"/><path d="m32.5 35.5845h11.4258c.2357 0 .4617-.0937.6284-.2603.1666-.1667.2603-.3927.2603-.6284s-.0937-.4617-.2603-.6284c-.1667-.1666-.3927-.2603-.6284-.2603h-11.4258c-.2357 0-.4617.0937-.6284.2603-.1666.1667-.2603.3927-.2603.6284s.0937.4617.2603.6284c.1667.1666.3927.2603.6284.2603z"/><path d="m32.5 39.5762h7.7441c.2357 0 .4618-.0937.6284-.2603.1667-.1667.2603-.3927.2603-.6284s-.0936-.4617-.2603-.6284c-.1666-.1666-.3927-.2603-.6284-.2603h-7.7441c-.2357 0-.4617.0937-.6284.2603-.1666.1667-.2603.3927-.2603.6284s.0937.4617.2603.6284c.1667.1666.3927.2603.6284.2603z"/><path d="m22.9751 50.4381c.1794.1513.4113.2255.6453.2064.2339-.019.4508-.1297.6034-.308l4.9517-5.7682c.1535-.1789.2297-.4114.2118-.6464-.0179-.2351-.1284-.4534-.3073-.6069-.1789-.1536-.4114-.2297-.6464-.2118s-.4533.1284-.6069.3073l-4.3768 5.1009-1.8012-1.5234c-.0887-.0781-.192-.1377-.304-.1753-.112-.0377-.2303-.0527-.3481-.044-.1178.0086-.2327.0406-.338.0941-.1053.0536-.1989.1276-.2753.2177-.0763.0902-.1339.1946-.1695.3073-.0355.1126-.0482.2312-.0373.3489.0109.1176.0451.2319.1006.3361.0556.1043.1313.1964.2229.271z"/><path d="m32.5 45.7681h11.4258c.2357 0 .4617-.0937.6284-.2603.1666-.1667.2603-.3927.2603-.6284s-.0937-.4617-.2603-.6284c-.1667-.1666-.3927-.2603-.6284-.2603h-11.4258c-.2357 0-.4617.0937-.6284.2603-.1666.1667-.2603.3927-.2603.6284s.0937.4617.2603.6284c.1667.1666.3927.2603.6284.2603z"/><path d="m32.5 49.7598h7.7441c.2357 0 .4618-.0937.6284-.2603.1667-.1667.2603-.3927.2603-.6284s-.0936-.4617-.2603-.6284c-.1666-.1666-.3927-.2603-.6284-.2603h-7.7441c-.2357 0-.4617.0937-.6284.2603-.1666.1667-.2603.3927-.2603.6284s.0937.4617.2603.6284c.1667.1666.3927.2603.6284.2603z"/></g></svg>