<svg fill="none" height="65" viewBox="0 0 65 65" width="65" xmlns="http://www.w3.org/2000/svg"><g fill="#fff"><path d="m33.5156 10.1562h-2.0312v2.0313h2.0312z"/><path d="m17.4178 15.9817-1.4363 1.4363 1.4363 1.4363 1.4363-1.4363z"/><path d="m12.1875 31.4844h-2.0313v2.0312h2.0313z"/><path d="m17.4187 46.1457-1.4363 1.4363 1.4363 1.4363 1.4363-1.4363z"/><path d="m33.5156 52.8125h-2.0312v2.0313h2.0312z"/><path d="m47.5821 46.1452-1.4363 1.4363 1.4363 1.4363 1.4363-1.4363z"/><path d="m54.8438 31.4844h-2.0313v2.0312h2.0313z"/><path d="m47.5819 15.9812-1.4363 1.4363 1.4363 1.4363 1.4364-1.4363z"/><path d="m34.8469 4.16385 1.4219-1.42188-1.4402-1.42898-3.0469 3.04687c-.1904.19046-.2973.44874-.2973.71805s.1069.52759.2973.71805l3.0469 3.04687 1.4361-1.43609-1.1852-1.18524c6.3316.61915 12.2268 3.50331 16.6016 8.1221 4.3748 4.6188 6.9351 10.6618 7.21 17.0176.275 6.3559-1.7539 12.5974-5.7136 17.5767-3.9596 4.9793-9.5838 8.3618-15.8383 9.5253l.3687 1.9978c6.7705-1.2612 12.8533-4.9366 17.1188-10.3436s6.4239-12.1783 6.0744-19.0564c-.3496-6.8781-3.1833-13.3956-7.975-18.3424-4.7917-4.94668-11.2157-7.98644-18.0792-8.55475z"/><path d="m30.1712 56.157-1.4361 1.436 1.1852 1.1853c-6.4127-.6271-12.3749-3.5771-16.7636-8.2946-4.3888-4.7175-6.9013-10.8769-7.06436-17.3181-.16305-6.4412 2.03459-12.7198 6.17906-17.6533 4.1445-4.9335 9.9497-8.18143 16.3225-9.13214l-.2976-2.01297c-6.9008 1.02797-13.183 4.55699-17.6511 9.91561-4.46813 5.3586-6.81039 12.1727-6.58112 19.146.22926 6.9732 3.01405 13.6188 7.82452 18.6724 4.8104 5.0535 11.3108 8.1623 18.2643 8.7347l-1.4219 1.4219 1.4361 1.4361 3.0469-3.0469c.1904-.1904.2973-.4487.2973-.718s-.1069-.5276-.2973-.7181z"/><path d="m32.4999 16.25c-3.2139 0-6.3557.953-9.028 2.7386s-4.7551 4.3235-5.985 7.2928-1.5517 6.2366-.9247 9.3888 2.1747 6.0477 4.4473 8.3203 5.168 3.8203 8.3202 4.4473 6.4196.3052 9.3889-.9248c2.9693-1.2299 5.5072-3.3127 7.2927-5.985 1.7856-2.6723 2.7386-5.8141 2.7386-9.028-.0051-4.3082-1.7187-8.4385-4.7651-11.4848-3.0464-3.0464-7.1767-4.7601-11.4849-4.7652zm0 30.4688c-2.8122 0-5.5612-.834-7.8995-2.3963-2.3382-1.5624-4.1607-3.7831-5.2369-6.3812-1.0761-2.5982-1.3577-5.4571-.8091-8.2152.5486-2.7582 1.9028-5.2917 3.8914-7.2803 1.9885-1.9885 4.522-3.3427 7.2802-3.8913 2.7582-.5487 5.6171-.2671 8.2152.8091 2.5982 1.0762 4.8188 2.8986 6.3812 5.2369 1.5624 2.3382 2.3963 5.0873 2.3963 7.8995-.004 3.7698-1.5034 7.3841-4.169 10.0497-2.6657 2.6657-6.2799 4.165-10.0498 4.1691z"/><path d="m41.6406 28.4375h-5.0781v-5.0781c0-.2694-.107-.5277-.2975-.7182-.1904-.1904-.4488-.2974-.7181-.2974h-6.0938c-.2693 0-.5277.107-.7181.2974-.1905.1905-.2975.4488-.2975.7182v5.0781h-5.0781c-.2694 0-.5277.107-.7182.2975-.1904.1904-.2974.4488-.2974.7181v6.0938c0 .2693.107.5277.2974.7181.1905.1905.4488.2975.7182.2975h5.0781v5.0781c0 .2694.107.5277.2975.7182.1904.1904.4488.2975.7181.2975h6.0938c.2693 0 .5277-.1071.7181-.2975.1905-.1905.2975-.4488.2975-.7182v-5.0781h5.0781c.2694 0 .5277-.107.7182-.2975.1904-.1904.2974-.4488.2974-.7181v-6.0938c0-.2693-.107-.5277-.2974-.7181-.1905-.1905-.4488-.2975-.7182-.2975zm-1.0156 6.0938h-5.0781c-.2694 0-.5277.107-.7182.2974-.1904.1905-.2975.4488-.2975.7182v5.0781h-4.0624v-5.0781c0-.2694-.1071-.5277-.2975-.7182-.1905-.1904-.4488-.2974-.7182-.2974h-5.0781v-4.0625h5.0781c.2694 0 .5277-.1071.7182-.2975.1904-.1905.2975-.4488.2975-.7182v-5.0781h4.0624v5.0781c0 .2694.1071.5277.2975.7182.1905.1904.4488.2975.7182.2975h5.0781z"/></g></svg>