<svg fill="none" height="65" viewBox="0 0 65 65" width="65" xmlns="http://www.w3.org/2000/svg"><g fill="#fff"><path d="m38.2259 0c-.861 0-29.81021 0-30.49525 0-1.05168 0-1.9043.852617-1.9043 1.9043-.00012 7.16942.91242 13.2418 2.78967 18.5642 1.53638 4.356 3.74078 8.3265 6.68598 12.025-7.80799 9.6035-9.44873 19.2247-9.44848 30.6022 0 1.0517.85262 1.9043 1.9043 1.9043h30.44358c.5072 0 .9934-.2024 1.3509-.5621.3575-.3598.5567-.8475.5533-1.3545l-.0071-1.0971c-.039-4.1849-.3185-7.7083-.8548-10.7716-.1594-.9112-.9507-1.576-1.8757-1.576h-2.2307l-2.1599-1.9043s2.7586-2.4338 2.7868-2.4622l.5926-.5926c.5453-.5451.7079-1.3653.412-2.0773-1.4732-3.5447-3.4905-6.8837-6.1135-10.1093 6.5404-8.1925 9.4753-17.7051 9.4749-30.5887 0-1.05181-.8526-1.9043-1.9043-1.9043zm-17.8249 19.1445h5.1487c-.7234 1.5777-1.5792 3.0976-2.576 4.5351-.9973-1.437-1.8511-2.9579-2.5727-4.5351zm8.0407-11.40036h-10.9261c-.1213-1.25849-.1997-2.59352-.2368-3.96094h11.4008c-.0371 1.36957-.1167 2.7036-.2379 3.96094zm-1.4502 7.61716h-8.0288c-.3687-1.2152-.6726-2.5083-.9185-3.834h9.8696c-.2467 1.328-.5531 2.6197-.9223 3.834zm-9.1532 20.0561c.4052.4309.821.8584 1.2486 1.2825.5022.4979.9812 1.0084 1.4424 1.5291-4.9677 6.766-6.798 14.5396-7.0327 22.9623h-3.81823c.17329-9.7578 1.80243-17.7149 8.15993-25.7739zm7.6109 10.4127h-4.9646c.7073-1.5688 1.5353-3.0496 2.4875-4.4538.9469 1.4035 1.7713 2.8854 2.4771 4.4538zm2.3734 7.6172h-9.7046c.2536-1.3216.5657-2.5898.9375-3.8086h7.8245c.374 1.2204.6867 2.4899.9426 3.8086zm-10.2582 3.8086h10.8211c.133 1.2682.2204 2.5791.2621 3.9355h-11.3404c.0407-1.3597.127-2.6696.2572-3.9355zm15.5939-4.2846c.3479.3067.7957.476 1.2594.476h1.3196c.3118 2.2746.4903 4.8299.5417 7.7441h-3.8193c-.0937-3.2899-.4428-6.6262-1.1827-9.8789zm-3.6154-7.2863c-1.7469-4.3918-4.3294-8.2741-7.7745-11.6897-8.1156-8.0462-11.79119-17.1523-12.11047-30.18671h3.80617c.2453 10.75011 3.0242 19.52341 10.8488 27.34681 3.7559 3.7557 6.5194 7.6006 8.4177 11.7191zm-1.4463-16.1014c-.3551-.375-.718-.7487-1.0908-1.1215-.5525-.5523-1.0759-1.1104-1.5769-1.6742 5.0911-6.8626 6.8504-14.3914 7.0617-23.0047h3.8078c-.2672 10.7164-2.8413 18.8385-8.2018 25.8004z"/><path d="m44.0608 43.4958c.2694 0 .5432-.0575.8036-.1789l10.3552-4.8287c.9532-.4445 1.3655-1.5776.921-2.5307-.4444-.9533-1.5776-1.3658-2.5306-.9211l-10.3552 4.8288c-.9532.4445-1.3655 1.5775-.9211 2.5307.3231.6929 1.0098 1.0999 1.7271 1.0999z"/><path d="m55.2193 56.9807-10.3552-4.8288c-.9531-.4443-2.0862-.0319-2.5307.9211-.4445.9532-.032 2.0862.921 2.5307l10.3552 4.8288c.9533.4444 2.0863.0321 2.5307-.9211.4445-.9532.0321-2.0862-.921-2.5307z"/><path d="m57.2693 45.8301h-11.4257c-1.0517 0-1.9043.8526-1.9043 1.9043s.8526 1.9043 1.9043 1.9043h11.4257c1.0517 0 1.9043-.8526 1.9043-1.9043s-.8526-1.9043-1.9043-1.9043z"/></g></svg>