<svg fill="none" height="65" viewBox="0 0 65 65" width="65" xmlns="http://www.w3.org/2000/svg" xmlns:xlink="http://www.w3.org/1999/xlink"><clipPath id="a"><path d="m0 0h65v65h-65z" transform="matrix(-1 0 0 -1 65 65)"/></clipPath><g clip-path="url(#a)" fill="#13b1b0"><path d="m26.7741 65h30.4953c1.0517 0 1.9043-.8526 1.9043-1.9043.0001-7.1694-.9124-13.2418-2.7897-18.5642-1.5364-4.356-3.7408-8.3265-6.686-12.025 7.808-9.6035 9.4488-19.2247 9.4485-30.6022 0-1.051685-.8526-1.90429992-1.9043-1.90429983l-30.4436.00000266c-.5072.00000004-.9934.20236217-1.3509.56214917s-.5567.847408-.5532 1.354458l.0071 1.09713c.0389 4.18489.3185 7.70826.8547 10.77156.1595.9112.9508 1.576 1.8758 1.576h2.2307l2.1598 1.9043s-2.7585 2.4338-2.7867 2.4622l-.5926.5926c-.5453.5451-.7079 1.3654-.412 2.0773 1.4732 3.5447 3.4904 6.8837 6.1134 10.1093-6.5404 8.1925-9.4753 17.7051-9.4749 30.5887 0 1.0518.8526 1.9043 1.9043 1.9043zm17.825-19.1445h-5.1487c.7234-1.5777 1.5792-3.0976 2.576-4.5351.9972 1.437 1.8511 2.9579 2.5727 4.5351zm-8.0407 11.4004h10.9261c.1212 1.2584.1997 2.5935.2368 3.9609h-11.4008c.0371-1.3696.1167-2.7036.2379-3.9609zm1.4502-7.6172h8.0288c.3686 1.2152.6726 2.5083.9185 3.834h-9.8696c.2466-1.328.5531-2.6197.9223-3.834zm9.1532-20.0561c-.4053-.4309-.821-.8584-1.2486-1.2825-.5022-.4979-.9812-1.0084-1.4424-1.5291 4.9676-6.766 6.7979-14.5396 7.0326-22.96228h3.8183c-.1733 9.75778-1.8025 17.71488-8.1599 25.77388zm-7.611-10.4127h4.9646c-.7072 1.5688-1.5352 3.0496-2.4875 4.4538-.9468-1.4035-1.7712-2.8854-2.4771-4.4538zm-2.3734-7.6172h9.7047c-.2537 1.3216-.5657 2.5898-.9375 3.8086h-7.8246c-.374-1.2204-.6866-2.4899-.9426-3.8086zm10.2582-3.80856h-10.8211c-.1329-1.26826-.2204-2.57918-.262-3.93554l11.3403-.00001c-.0406 1.35967-.1269 2.66958-.2572 3.93555zm-15.5939 4.28456c-.3478-.3067-.7956-.476-1.2594-.476h-1.3195c-.3118-2.27458-.4903-4.8299-.5417-7.7441h3.8192c.0937 3.28986.4428 6.6262 1.1827 9.8789zm3.6155 7.2863c1.7469 4.3919 4.3294 8.2741 7.7745 11.6897 8.1156 8.0462 11.7911 17.1523 12.1104 30.1867h-3.8061c-.2453-10.7501-3.0242-19.5234-10.8488-27.3468-3.7559-3.7557-6.5195-7.6006-8.4178-11.7191zm1.4463 16.1014c.355.375.718.7487 1.0907 1.1215.5525.5523 1.076 1.1104 1.5769 1.6742-5.091 6.8626-6.8504 14.3914-7.0616 23.0047h-3.8078c.2672-10.7164 2.8413-18.8384 8.2018-25.8004z"/><path d="m20.9393 21.5042c-.2694 0-.5433.0575-.8036.1789l-10.35524 4.8287c-.95317.4445-1.36551 1.5776-.92104 2.5307.44446.9533 1.57768 1.3658 2.53068.9211l10.3552-4.8288c.9532-.4445 1.3655-1.5775.921-2.5307-.3231-.6929-1.0097-1.0999-1.727-1.0999z"/><path d="m9.78073 8.01927 10.35517 4.82883c.9531.4443 2.0862.0319 2.5307-.9211.4445-.9532.032-2.08621-.921-2.53067l-10.3552-4.82879c-.9533-.44446-2.08625-.03211-2.53071.92105-.44447.95316-.03213 2.08622.92104 2.53068z"/><path d="m7.73071 19.1699h11.42579c1.0517 0 1.9043-.8526 1.9043-1.9043s-.8526-1.9043-1.9043-1.9043h-11.42579c-1.05168 0-1.90429.8526-1.90429 1.9043s.85261 1.9043 1.90429 1.9043z"/></g></svg>