<svg fill="none" height="66" viewBox="0 0 35 66" width="35" xmlns="http://www.w3.org/2000/svg" xmlns:xlink="http://www.w3.org/1999/xlink"><clipPath id="a"><path d="m4 0h27v27h-27z"/></clipPath><g fill="#fff"><path d="m20.918 36.6738c-.3774 0-.6836.3063-.6836.6836 0 .3774.3062.6836.6836.6836.3773 0 .6836-.3062.6836-.6836 0-.3773-.3063-.6836-.6836-.6836z"/><path d="m14.082 36.6738c-.3773 0-.6836.3063-.6836.6836 0 .3774.3063.6836.6836.6836.3774 0 .6836-.3062.6836-.6836 0-.3773-.3062-.6836-.6836-.6836z"/><path d="m32.3424 51.4314c.5867-.8806.8803-1.9794.8803-2.9314 0-1.4353-.6376-2.7688-1.7317-3.673.2421-.5786.3645-1.1804.3645-1.7958 0-1.9041-1.1113-3.6779-2.7635-4.5062.2507-2.0791-1.104-3.9848-3.1117-4.4709-.7858-1.8165-2.5347-3.0541-4.3787-3.0541-1.7165 0-3.2561 1.0012-4.1016 2.462-.8456-1.4608-2.3851-2.462-4.1016-2.462-1.8441 0-3.59307 1.2376-4.37872 3.0542-2.01968.4891-3.36171 2.4044-3.11172 4.4708-1.65211.8282-2.76343 2.6021-2.76343 4.5062 0 .6154.12236 1.2172.36449 1.7958-1.09409.9043-1.73168 2.2377-1.73168 3.673 0 .957.296 2.0543.88027 2.9313-.57094.806-.88027 1.7612-.88027 2.7425 0 1.2726.51598 2.4849 1.42865 3.385-.46922 2.8364 1.79279 5.7068 4.7237 5.7068.02119 0 .04204-.0003.06248-.0009.97173 1.6763 2.77543 2.7353 4.72263 2.7353 2.0295 0 3.8429-1.2182 4.7852-2.9732.9423 1.755 2.7557 2.9732 4.7852 2.9732 1.9472 0 3.7509-1.059 4.7226-2.7353.0205.0006.0413.0009.0625.0009 2.5938 0 4.7852-2.2852 4.7852-4.9902 0-.2303-.0203-.4672-.0615-.7166.9127-.9001 1.4287-2.1123 1.4287-3.385 0-.9813-.3094-1.9365-.8803-2.7424zm-15.526-10.0831c-.4025-.2334-.8693-.3678-1.3672-.3678-.3775 0-.6836.306-.6836.6836 0 .3775.3061.6836.6836.6836.7539 0 1.3672.6133 1.3672 1.3671v12.9999c-1.0029-1.1376-2.4693-1.8573-4.1016-1.8573-.3775 0-.6836.3061-.6836.6836 0 .3776.3061.6836.6836.6836 2.2616 0 4.1016 1.84 4.1016 4.1016 0 2.3344-1.8783 4.3066-4.1016 4.3066-1.5826 0-3.03956-.9359-3.7118-2.3844-.12394-.2669-.40462-.4243-.69727-.3914-.04833.0055-.09638.012-.14444.0185-1.94551.2661-4.13643-1.9369-3.54334-4.4014.06091-.2532-.02728-.5188-.22736-.6853-.79188-.6589-1.24606-1.6121-1.24606-2.615 0-.6201.17534-1.2269.50162-1.759.8199.672 1.83976 1.0754 2.91635 1.0754.37755 0 .68359-.306.68359-.6836 0-.3775-.30604-.6836-.68359-.6836-1.85521 0-3.41797-1.6932-3.41797-3.623 0-1.1707.59671-2.2476 1.59633-2.8808.30796-.1951.40865-.5975.2288-.9146-.30386-.5359-.45794-1.0989-.45794-1.6734 0-1.845 1.50404-3.623 3.41797-3.623 1.82082 0 3.41801 1.6931 3.41801 3.623 0 .3776.306.6836.6835.6836.3776 0 .6836-.306.6836-.6836 0-2.7049-2.1913-4.9902-4.78511-4.9902-.22887 0-.45651.0185-.68189.0536-.00034-.018-.00171-.0355-.00171-.0536 0-1.5256 1.23847-2.7344 2.73438-2.7344.73023 0 1.41713.2845 1.93403.8009.2671.2668.6999.2665.9667-.0005.2668-.2672.2666-.6999-.0004-.9667-.6237-.623-1.4125-1.0203-2.2673-1.152.6028-.8949 1.6053-1.6211 2.7849-1.6211 1.8209 0 3.418 1.693 3.418 3.623zm11.6211 12.1419c1.0767 0 2.0965-.4035 2.9164-1.0752.3262.5321.5016 1.1388.5016 1.7588 0 1.0029-.4542 1.9561-1.246 2.615-.2002.1665-.2883.4322-.2274.6853.0725.301.1062.5556.1062.8012 0 2.1219-1.9192 3.8368-3.6495 3.6002-.0481-.0065-.0962-.013-.1445-.0185-.2931-.0331-.5734.1245-.6972.3914-.6723 1.4485-2.1294 2.3844-3.7119 2.3844-2.2233 0-4.1016-1.9722-4.1016-4.3066 0-2.2616 1.84-4.1016 4.1016-4.1016.3774 0 .6836-.306.6836-.6836 0-.3775-.3062-.6836-.6836-.6836-1.6323 0-3.0987.7197-4.1016 1.8573v-12.9999c0-.7538.6133-1.3671 1.3672-1.3671.3775 0 .6836-.3061.6836-.6836 0-.3776-.3061-.6836-.6836-.6836-.4979 0-.9647.1344-1.3672.3678v-5.3581c0-1.93 1.5971-3.623 3.418-3.623 1.1796 0 2.182.7262 2.7849 1.6211-.8548.1316-1.6435.5289-2.2673 1.1519-.2671.2668-.2674.6996-.0006.9667.2668.2672.6998.2674.9668.0006.5171-.5164 1.2039-.8009 1.9341-.8009 1.5035 0 2.7344 1.2159 2.7344 2.7344 0 .0181-.0014.0356-.0017.0536-.2254-.0351-.453-.0536-.6819-.0536-2.5938 0-4.7851 2.2853-4.7851 4.9902 0 .3776.3061.6836.6836.6836.3774 0 .6835-.306.6835-.6836 0-1.9299 1.5972-3.623 3.418-3.623 1.9128 0 3.418 1.7771 3.418 3.623 0 .5745-.1541 1.1375-.458 1.6734-.1797.3171-.0791.7195.2289.9146.9996.6332 1.5963 1.7101 1.5963 2.8808 0 1.9367-1.5683 3.623-3.418 3.623-.3775 0-.6836.3061-.6836.6836 0 .3776.3061.6836.6836.6836z"/><path d="m15.2751 45.6325c-.2517-.2813-.6838-.3054-.9652-.0537-2.1922 1.9609-5.69662.3937-5.69662-2.5476 0-.3775-.30604-.6835-.68359-.6835s-.6836.306-.6836.6835c0 2.3731 1.73681 4.3474 4.00591 4.7207-.2632.8291-1.0401 1.4317-1.95513 1.4317-.37754 0-.68359.306-.68359.6836 0 .3775.30605.6836.68359.6836 1.66503 0 3.05503-1.197 3.35663-2.7755.9506-.1244 1.8454-.5312 2.5679-1.1775.2813-.2517.3054-.6839.0537-.9653z"/><path d="m7.92969 57.5918c-.37755 0-.6836.306-.6836.6836 0 .3775.30605.6836.6836.6836 1.82082 0 3.41801 1.693 3.41801 3.623 0 .3776.306.6836.6835.6836.3776 0 .6836-.306.6836-.6836 0-2.7049-2.1913-4.9902-4.78511-4.9902z"/><path d="m13.3984 52.123c-2.3164 0-4.30523 1.2705-5.35249 3.1178-.18615.3284-.07082.7456.25758.9318.32846.1861.74559.0709.9318-.2576.81591-1.4394 2.36391-2.4248 4.16311-2.4248.3776 0 .6836-.306.6836-.6836 0-.3775-.306-.6836-.6836-.6836z"/><path d="m25.7029 49.1836c-.9151 0-1.6919-.6026-1.9551-1.4317 2.2691-.3733 4.0059-2.3476 4.0059-4.7207 0-.3775-.3061-.6835-.6836-.6835s-.6836.306-.6836.6835c0 1.8847-1.5333 3.418-3.418 3.418-.8419 0-1.6511-.3091-2.2786-.8704-.2813-.2517-.7135-.2277-.9652.0537-.2518.2814-.2277.7136.0537.9653.7225.6463 1.6173 1.0531 2.5679 1.1775.3016 1.5785 1.6916 2.7755 3.3566 2.7755.3775 0 .6836-.3061.6836-.6836 0-.3776-.3061-.6836-.6836-.6836z"/><path d="m27.0703 57.5918c-2.5938 0-4.7851 2.2853-4.7851 4.9902 0 .3776.3061.6836.6836.6836.3774 0 .6835-.306.6835-.6836 0-1.93 1.5972-3.623 3.418-3.623.3775 0 .6836-.3061.6836-.6836 0-.3776-.3061-.6836-.6836-.6836z"/><path d="m26.9541 55.2408c-1.0447-1.8429-3.0308-3.1178-5.3525-3.1178-.3775 0-.6836.3061-.6836.6836 0 .3776.3061.6836.6836.6836 1.7979 0 3.3471.9852 4.163 2.4248.1864.3289.6039.4436.9318.2577.3285-.1862.4438-.6034.2577-.9319z"/><g clip-path="url(#a)"><path d="m17.4998 27.0001c1.2281 0 2.2237-.9955 2.2237-2.2237 0-1.2281-.9956-2.2237-2.2237-2.2237s-2.2237.9956-2.2237 2.2237c0 1.2282.9956 2.2237 2.2237 2.2237z"/><path d="m17.4998 4.44741c1.2281 0 2.2237-.99559 2.2237-2.22371 0-1.228114-.9956-2.2237-2.2237-2.2237s-2.2237.995586-2.2237 2.2237c0 1.22812.9956 2.22371 2.2237 2.22371z"/><path d="m29.1962 15.6868c1.206-.2321 1.9955-1.3979 1.7634-2.6039s-1.3979-1.9955-2.6039-1.7634-1.9955 1.3979-1.7634 2.6039 1.3979 1.9955 2.6039 1.7634z"/><path d="m7.07984 15.5556c1.13478-.4704 1.67339-1.7716 1.20302-2.9064s-1.7716-1.6734-2.90638-1.203c-1.13478.4703-1.67339 1.7716-1.20302 2.9064.47036 1.1347 1.77159 1.6733 2.90638 1.203z"/><path d="m25.788 7.88039c1.4737 0 2.6684-1.19472 2.6684-2.66847s-1.1947-2.66846-2.6684-2.66846c-1.4738 0-2.6685 1.19471-2.6685 2.66846s1.1947 2.66847 2.6685 2.66847z"/><path d="m9.2118 24.4566c1.4738 0 2.6685-1.1948 2.6685-2.6685 0-1.4738-1.1947-2.6685-2.6685-2.6685-1.47375 0-2.66847 1.1947-2.66847 2.6685 0 1.4737 1.19472 2.6685 2.66847 2.6685z"/><path d="m9.2118 7.88039c1.4738 0 2.6685-1.19472 2.6685-2.66847s-1.1947-2.66846-2.6685-2.66846c-1.47375 0-2.66847 1.19471-2.66847 2.66846s1.19472 2.66847 2.66847 2.66847z"/><path d="m25.788 24.4566c1.4737 0 2.6684-1.1948 2.6684-2.6685 0-1.4738-1.1947-2.6685-2.6684-2.6685-1.4738 0-2.6685 1.1947-2.6685 2.6685 0 1.4737 1.1947 2.6685 2.6685 2.6685z"/><path d="m22.3548 12.5754-.3561-.1343-.1173-.362c-.075-.2317-.1687-.4578-.2782-.6721l-.1734-.3391.157-.347c.1685-.3725.0875-.81709-.2016-1.10613-.289-.28909-.7336-.37009-1.1061-.2016l-.347.15694-.3391-.17334c-.2144-.10958-.4406-.20324-.6721-.27823l-.362-.11733-.1343-.35612c-.1443-.38264-.5158-.63972-.9247-.63972-.4088 0-.7804.25708-.9246.63972l-.1344.35612-.362.11733c-.2316.07504-.4577.16865-.6721.27823l-.3391.17334-.3469-.15694c-.3725-.16843-.8171-.08754-1.1062.20155-.289.28904-.3701.73358-.2016 1.10618l.157.347-.1734.3391c-.1095.2143-.2032.4405-.2782.6721l-.1173.362-.3561.1343c-.3827.1442-.6398.5158-.6398.9246 0 .4089.2571.7804.6398.9247l.3561.1343.1173.362c.0751.2316.1687.4577.2782.6721l.1734.3391-.157.347c-.1684.3725-.0874.8171.2016 1.1061.2891.2891.7337.3702 1.1062.2016l.3469-.1569.3391.1733c.2144.1096.4406.2032.6721.2782l.362.1174.1344.3561c.1442.3826.5158.6397.9246.6397.4089 0 .7804-.2571.9247-.6397l.1343-.3561.362-.1174c.2316-.075.4577-.1686.6721-.2782l.3391-.1733.347.1569c.3724.1686.817.0876 1.1061-.2016.2891-.289.3701-.7335.2016-1.1061l-.157-.347.1734-.3391c.1095-.2144.2032-.4405.2782-.6721l.1173-.362.3561-.1343c.3827-.1443.6398-.5158.6398-.9247 0-.4088-.2571-.7804-.6398-.9246zm-5.3981.3814h-1.582v-1.582h1.582zm2.6685 2.6685h-1.5821v-1.5821h1.5821z"/></g></g></svg>