<svg fill="none" height="65" viewBox="0 0 65 65" width="65" xmlns="http://www.w3.org/2000/svg" xmlns:xlink="http://www.w3.org/1999/xlink"><clipPath id="a"><path d="m0 0h65v65h-65z"/></clipPath><g clip-path="url(#a)" fill="#13b1b0"><path d="m64.0473 53.8629c-.0004 0-.0008 0-.0012 0l-3.6437.0041-.0039-3.0734c-.0007-.5258-.4272-.9517-.9529-.9517-.0004 0-.0008 0-.0011 0-.5264.0007-.9524.4278-.9518.954l.004 3.0733-14.2551.0165-.0141-12.2105 9.8657-.0115c.5035-.0005.9765-.197 1.332-.5533.3555-.3562.5509-.8297.5502-1.3331l-.0114-9.9553c-.0006-.5034-.1972-.9765-.5534-1.3318-.3558-.3549-.8283-.5503-1.3308-.5503-.0008 0-.0016 0-.0025 0l-9.8659.0113-.0045-3.9405 14.2551-.0163.0255 22.4816c.0007.526.427.9519.9529.9519h.0011c.5264-.0006.9525-.4277.9519-.9539l-.0256-22.4817 1.8755-.0022c1.4479-.002 2.6241-1.1813 2.6222-2.6283l-.0026-2.4993c-.0019-1.4475-1.1797-2.6235-2.6259-2.6235-.0012 0-.0026 0-.0036 0l-6.1034.0063c-.5262.0005-.9524.4276-.9518.9539.0005.526.427.9518.9529.9518h.001l6.1036-.0063h.0009c.3969 0 .7201.3229.7206.7201l.0025 2.4993c.0006.3966-.322.7198-.7188.7203l-18.0362.0205-.0046-3.9398 7.6124-.009c.5262-.0006.9523-.4278.9517-.954-.0007-.5259-.4272-.9517-.9529-.9517-.0004 0-.0008 0-.0011 0l-7.6122.009-.0052-4.4741c-.0008-.7026-.2752-1.3628-.7726-1.85897-.4966-.49548-1.1563-.76813-1.8577-.76813-.001 0-.0022 0-.003 0l-18.2252.02109c-.7025.00077-1.3628.27519-1.8589.77258-.4961.49743-.769 1.15813-.7682 1.86073l.0053 4.4742-18.03662.021c-.70143.0008-1.36055.2749-1.855914.772-.494977.4966-.7671135 1.1563-.7662241 1.8575l.002795 2.4997c.0007623.7013.2746771 1.3603.7709251 1.8554.495618.4945 1.153978.7666 1.854008.7666h.0033l1.88628-.0022v2.853c0 .5262.42662.9529.95286.9529.52623 0 .95285-.4267.95285-.9529v-2.8553l14.24444-.0165.0046 3.9403-9.8653.0114c-.5034.0005-.97644.1971-1.33192.5533-.35548.3563-.55088.8298-.55025 1.3332l.01144 9.9554c.00063.5033.19717.9765.55342 1.3318.35573.3549.82821.5503 1.33081.5503h.0024l9.8654-.0113.0141 12.2105-14.27901.0165v-22.6998c0-.5263-.42663-.9529-.95286-.9529s-.95285.4266-.95285.9529v22.7021l-3.619338.0042c-.526359.0006-.95247653.4278-.95184129.954.00063524.5259.42700729.9517.95285729.9517h.001144l63.094298-.073c.5262-.0007.9523-.4278.9517-.954-.0006-.5258-.427-.9517-.9527-.9517zm-9.9892-24.0173.0115 9.9125-9.8444.0115-.0115-9.9125zm-51.37549-7.6922c-.00025 0-.00051 0-.00089 0-.19197 0-.37237-.0746-.50819-.21-.13594-.1357-.21102-.3162-.21128-.5086l-.00279-2.4996c-.00026-.1926.07445-.3737.21039-.5101.13568-.1362.31622-.2113.50832-.2116l18.03643-.0208.0046 3.9399zm8.21299 17.6548-.0114-9.9125 9.8439-.0114.0114 9.9125zm11.7172-27.9977c-.0002-.1935.075-.3756.2117-.5126.1367-.1369.3185-.2125.512-.2128l18.2251-.0211h.0009c.3991 0 .724.3245.7246.7237l.0486 42.1004-2.3814.0028-.0194-16.8037c-.0009-.8033-.3094-1.559-.8684-2.1279-.5633-.5731-1.3129-.8886-2.1113-.8886-.0011 0-.0024 0-.0035 0l-8.9517.0104c-.7996.0009-1.5499.3183-2.1126.8936-.5578.5702-.8645 1.3265-.8635 2.1299l.0195 16.8037-2.3819.0028zm4.3169 25.2916c-.0004-.3014.1133-.5838.32-.7951.2017-.2063.4691-.3201.7526-.3204l8.9517-.0104h.0012c.2831 0 .5502.1132.752.3186.2073.2109.3216.493.322.7943l.0194 16.8037-11.0995.0129z"/><path d="m26.3003 25.4296h.0023l3.1772-.0037.0036 3.1772c.0012.9802.799 1.7768 1.7787 1.7768h.0023l2.4144-.0028c.4752-.0005.9217-.186 1.2573-.5225.3356-.3363.5201-.7833.5195-1.2585l-.0037-3.1772 3.1771-.0037c.9808-.001 1.7779-.7999 1.7769-1.7809l-.0028-2.4146c-.0005-.4751-.1862-.9216-.5226-1.2572-.3359-.3352-.7818-.5195-1.2562-.5195-.0007 0-.0016 0-.0023 0l-3.1772.0036-.0037-3.177c-.0005-.4752-.186-.9216-.5224-1.2573-.3359-.3352-.782-.5196-1.2563-.5196-.0006 0-.0015 0-.0023 0l-2.4145.0028c-.4752.0005-.9216.1861-1.2573.5225-.3355.3363-.52.7834-.5195 1.2584l.0037 3.1772-3.1771.0037c-.4751.0005-.9217.186-1.2572.5224-.3357.3365-.5202.7834-.5195 1.2586l.0028 2.4144c.0005.4751.186.9217.5224 1.2572.336.3353.7821.5197 1.2564.5197zm4.1276-4.0713c.5262-.0006.9524-.4277.9517-.954l-.0047-4.0031 2.1607-.0026.0047 4.0033c0 .0329.0018.0653.0051.0973.0493.4801.4548.8544.9478.8544h.0011l4.0032-.0047.0025 2.1607-4.0033.0047c-.5262.0007-.9523.4278-.9517.954l.0047 4.0032-2.1608.0025-.0047-4.0033c-.0006-.5258-.427-.9517-.9529-.9517-.0002 0-.0007 0-.0011 0l-4.0031.0047-.0026-2.1607z"/></g></svg>