<svg fill="none" height="521" viewBox="0 0 874 521" width="874" xmlns="http://www.w3.org/2000/svg"><rect fill="#efefef" height="500" rx="10" width="873.253" y="21"/><g fill="#898989" opacity=".3"><path d="m76 106.5c-.2761 0-.5.224-.5.5s.2239.5.5.5zm743 0h-1.997v1h1.997zm-5.992 0h-3.995v1h3.995zm-7.989 0h-3.995v1h3.995zm-7.989 0h-3.995v1h3.995zm-7.99 0h-3.994v1h3.994zm-7.989 0h-3.995v1h3.995zm-7.989 0h-3.995v1h3.995zm-7.989 0h-3.995v1h3.995zm-7.99 0h-3.994v1h3.994zm-7.989 0h-3.995v1h3.995zm-7.989 0h-3.995v1h3.995zm-7.989 0h-3.995v1h3.995zm-7.99 0h-3.994v1h3.994zm-7.989 0h-3.995v1h3.995zm-7.989 0h-3.995v1h3.995zm-7.989 0h-3.995v1h3.995zm-7.99 0h-3.994v1h3.994zm-7.989 0h-3.994v1h3.994zm-7.989 0h-3.995v1h3.995zm-7.989 0h-3.995v1h3.995zm-7.99 0h-3.994v1h3.994zm-7.989 0h-3.995v1h3.995zm-7.989 0h-3.995v1h3.995zm-7.989 0h-3.995v1h3.995zm-7.99 0h-3.994v1h3.994zm-7.989 0h-3.995v1h3.995zm-7.989 0h-3.995v1h3.995zm-7.989 0h-3.995v1h3.995zm-7.99 0h-3.994v1h3.994zm-7.989 0h-3.995v1h3.995zm-7.989 0h-3.995v1h3.995zm-7.989 0h-3.995v1h3.995zm-7.99 0h-3.994v1h3.994zm-7.989 0h-3.995v1h3.995zm-7.989 0h-3.995v1h3.995zm-7.989 0h-3.995v1h3.995zm-7.99 0h-3.994v1h3.994zm-7.989 0h-3.995v1h3.995zm-7.989 0h-3.995v1h3.995zm-7.99 0h-3.994v1h3.994zm-7.989 0h-3.994v1h3.994zm-7.989 0h-3.995v1h3.995zm-7.989 0h-3.995v1h3.995zm-7.99 0h-3.994v1h3.994zm-7.989 0h-3.994v1h3.994zm-7.989 0h-3.995v1h3.995zm-7.989 0h-3.995v1h3.995zm-7.99 0h-3.994v1h3.994zm-7.989 0h-3.994v1h3.994zm-7.989 0h-3.995v1h3.995zm-7.989 0h-3.995v1h3.995zm-7.99 0h-3.994v1h3.994zm-7.989 0h-3.995v1h3.995zm-7.989 0h-3.995v1h3.995zm-7.989 0h-3.995v1h3.995zm-7.99 0h-3.994v1h3.994zm-7.989 0h-3.995v1h3.995zm-7.989 0h-3.995v1h3.995zm-7.989 0h-3.995v1h3.995zm-7.99 0h-3.994v1h3.994zm-7.989 0h-3.995v1h3.995zm-7.989 0h-3.995v1h3.995zm-7.989 0h-3.995v1h3.995zm-7.99 0h-3.994v1h3.994zm-7.989 0h-3.995v1h3.995zm-7.989 0h-3.995v1h3.995zm-7.989 0h-3.995v1h3.995zm-7.99 0h-3.994v1h3.994zm-7.989 0h-3.995v1h3.995zm-7.989 0h-3.995v1h3.995zm-7.989 0h-3.995v1h3.995zm-7.99 0h-3.994v1h3.994zm-7.989 0h-3.995v1h3.995zm-7.989 0h-3.995v1h3.995zm-7.99 0h-3.994v1h3.994zm-7.989 0h-3.994v1h3.994zm-7.989 0h-3.995v1h3.995zm-7.989 0h-3.995v1h3.995zm-7.99 0h-3.994v1h3.994zm-7.989 0h-3.994v1h3.994zm-7.989 0h-3.995v1h3.995zm-7.989 0h-3.995v1h3.995zm-7.99 0h-3.994v1h3.994zm-7.989 0h-3.994v1h3.994zm-7.989 0h-3.995v1h3.995zm-7.989 0h-3.995v1h3.995zm-7.99 0h-3.994v1h3.994zm-7.989 0h-3.994v1h3.994zm-7.989 0h-3.995v1h3.995zm-7.989 0h-3.995v1h3.995zm-7.99 0h-3.9943v1h3.9943zm-7.9889 0h-3.9946v1h3.9946zm-7.9893 0h-3.9946v1h3.9946zm-7.9892 0h-1.9966v1h1.9966z"/><path d="m76 142.5c-.2761 0-.5.224-.5.5s.2239.5.5.5zm743 0h-1.997v1h1.997zm-5.992 0h-3.995v1h3.995zm-7.989 0h-3.995v1h3.995zm-7.989 0h-3.995v1h3.995zm-7.99 0h-3.994v1h3.994zm-7.989 0h-3.995v1h3.995zm-7.989 0h-3.995v1h3.995zm-7.989 0h-3.995v1h3.995zm-7.99 0h-3.994v1h3.994zm-7.989 0h-3.995v1h3.995zm-7.989 0h-3.995v1h3.995zm-7.989 0h-3.995v1h3.995zm-7.99 0h-3.994v1h3.994zm-7.989 0h-3.995v1h3.995zm-7.989 0h-3.995v1h3.995zm-7.989 0h-3.995v1h3.995zm-7.99 0h-3.994v1h3.994zm-7.989 0h-3.994v1h3.994zm-7.989 0h-3.995v1h3.995zm-7.989 0h-3.995v1h3.995zm-7.99 0h-3.994v1h3.994zm-7.989 0h-3.995v1h3.995zm-7.989 0h-3.995v1h3.995zm-7.989 0h-3.995v1h3.995zm-7.99 0h-3.994v1h3.994zm-7.989 0h-3.995v1h3.995zm-7.989 0h-3.995v1h3.995zm-7.989 0h-3.995v1h3.995zm-7.99 0h-3.994v1h3.994zm-7.989 0h-3.995v1h3.995zm-7.989 0h-3.995v1h3.995zm-7.989 0h-3.995v1h3.995zm-7.99 0h-3.994v1h3.994zm-7.989 0h-3.995v1h3.995zm-7.989 0h-3.995v1h3.995zm-7.989 0h-3.995v1h3.995zm-7.99 0h-3.994v1h3.994zm-7.989 0h-3.995v1h3.995zm-7.989 0h-3.995v1h3.995zm-7.99 0h-3.994v1h3.994zm-7.989 0h-3.994v1h3.994zm-7.989 0h-3.995v1h3.995zm-7.989 0h-3.995v1h3.995zm-7.99 0h-3.994v1h3.994zm-7.989 0h-3.994v1h3.994zm-7.989 0h-3.995v1h3.995zm-7.989 0h-3.995v1h3.995zm-7.99 0h-3.994v1h3.994zm-7.989 0h-3.994v1h3.994zm-7.989 0h-3.995v1h3.995zm-7.989 0h-3.995v1h3.995zm-7.99 0h-3.994v1h3.994zm-7.989 0h-3.995v1h3.995zm-7.989 0h-3.995v1h3.995zm-7.989 0h-3.995v1h3.995zm-7.99 0h-3.994v1h3.994zm-7.989 0h-3.995v1h3.995zm-7.989 0h-3.995v1h3.995zm-7.989 0h-3.995v1h3.995zm-7.99 0h-3.994v1h3.994zm-7.989 0h-3.995v1h3.995zm-7.989 0h-3.995v1h3.995zm-7.989 0h-3.995v1h3.995zm-7.99 0h-3.994v1h3.994zm-7.989 0h-3.995v1h3.995zm-7.989 0h-3.995v1h3.995zm-7.989 0h-3.995v1h3.995zm-7.99 0h-3.994v1h3.994zm-7.989 0h-3.995v1h3.995zm-7.989 0h-3.995v1h3.995zm-7.989 0h-3.995v1h3.995zm-7.99 0h-3.994v1h3.994zm-7.989 0h-3.995v1h3.995zm-7.989 0h-3.995v1h3.995zm-7.99 0h-3.994v1h3.994zm-7.989 0h-3.994v1h3.994zm-7.989 0h-3.995v1h3.995zm-7.989 0h-3.995v1h3.995zm-7.99 0h-3.994v1h3.994zm-7.989 0h-3.994v1h3.994zm-7.989 0h-3.995v1h3.995zm-7.989 0h-3.995v1h3.995zm-7.99 0h-3.994v1h3.994zm-7.989 0h-3.994v1h3.994zm-7.989 0h-3.995v1h3.995zm-7.989 0h-3.995v1h3.995zm-7.99 0h-3.994v1h3.994zm-7.989 0h-3.994v1h3.994zm-7.989 0h-3.995v1h3.995zm-7.989 0h-3.995v1h3.995zm-7.99 0h-3.9943v1h3.9943zm-7.9889 0h-3.9946v1h3.9946zm-7.9893 0h-3.9946v1h3.9946zm-7.9892 0h-1.9966v1h1.9966z"/><path d="m76 178.5c-.2761 0-.5.224-.5.5s.2239.5.5.5zm743 0h-1.997v1h1.997zm-5.992 0h-3.995v1h3.995zm-7.989 0h-3.995v1h3.995zm-7.989 0h-3.995v1h3.995zm-7.99 0h-3.994v1h3.994zm-7.989 0h-3.995v1h3.995zm-7.989 0h-3.995v1h3.995zm-7.989 0h-3.995v1h3.995zm-7.99 0h-3.994v1h3.994zm-7.989 0h-3.995v1h3.995zm-7.989 0h-3.995v1h3.995zm-7.989 0h-3.995v1h3.995zm-7.99 0h-3.994v1h3.994zm-7.989 0h-3.995v1h3.995zm-7.989 0h-3.995v1h3.995zm-7.989 0h-3.995v1h3.995zm-7.99 0h-3.994v1h3.994zm-7.989 0h-3.994v1h3.994zm-7.989 0h-3.995v1h3.995zm-7.989 0h-3.995v1h3.995zm-7.99 0h-3.994v1h3.994zm-7.989 0h-3.995v1h3.995zm-7.989 0h-3.995v1h3.995zm-7.989 0h-3.995v1h3.995zm-7.99 0h-3.994v1h3.994zm-7.989 0h-3.995v1h3.995zm-7.989 0h-3.995v1h3.995zm-7.989 0h-3.995v1h3.995zm-7.99 0h-3.994v1h3.994zm-7.989 0h-3.995v1h3.995zm-7.989 0h-3.995v1h3.995zm-7.989 0h-3.995v1h3.995zm-7.99 0h-3.994v1h3.994zm-7.989 0h-3.995v1h3.995zm-7.989 0h-3.995v1h3.995zm-7.989 0h-3.995v1h3.995zm-7.99 0h-3.994v1h3.994zm-7.989 0h-3.995v1h3.995zm-7.989 0h-3.995v1h3.995zm-7.99 0h-3.994v1h3.994zm-7.989 0h-3.994v1h3.994zm-7.989 0h-3.995v1h3.995zm-7.989 0h-3.995v1h3.995zm-7.99 0h-3.994v1h3.994zm-7.989 0h-3.994v1h3.994zm-7.989 0h-3.995v1h3.995zm-7.989 0h-3.995v1h3.995zm-7.99 0h-3.994v1h3.994zm-7.989 0h-3.994v1h3.994zm-7.989 0h-3.995v1h3.995zm-7.989 0h-3.995v1h3.995zm-7.99 0h-3.994v1h3.994zm-7.989 0h-3.995v1h3.995zm-7.989 0h-3.995v1h3.995zm-7.989 0h-3.995v1h3.995zm-7.99 0h-3.994v1h3.994zm-7.989 0h-3.995v1h3.995zm-7.989 0h-3.995v1h3.995zm-7.989 0h-3.995v1h3.995zm-7.99 0h-3.994v1h3.994zm-7.989 0h-3.995v1h3.995zm-7.989 0h-3.995v1h3.995zm-7.989 0h-3.995v1h3.995zm-7.99 0h-3.994v1h3.994zm-7.989 0h-3.995v1h3.995zm-7.989 0h-3.995v1h3.995zm-7.989 0h-3.995v1h3.995zm-7.99 0h-3.994v1h3.994zm-7.989 0h-3.995v1h3.995zm-7.989 0h-3.995v1h3.995zm-7.989 0h-3.995v1h3.995zm-7.99 0h-3.994v1h3.994zm-7.989 0h-3.995v1h3.995zm-7.989 0h-3.995v1h3.995zm-7.99 0h-3.994v1h3.994zm-7.989 0h-3.994v1h3.994zm-7.989 0h-3.995v1h3.995zm-7.989 0h-3.995v1h3.995zm-7.99 0h-3.994v1h3.994zm-7.989 0h-3.994v1h3.994zm-7.989 0h-3.995v1h3.995zm-7.989 0h-3.995v1h3.995zm-7.99 0h-3.994v1h3.994zm-7.989 0h-3.994v1h3.994zm-7.989 0h-3.995v1h3.995zm-7.989 0h-3.995v1h3.995zm-7.99 0h-3.994v1h3.994zm-7.989 0h-3.994v1h3.994zm-7.989 0h-3.995v1h3.995zm-7.989 0h-3.995v1h3.995zm-7.99 0h-3.9943v1h3.9943zm-7.9889 0h-3.9946v1h3.9946zm-7.9893 0h-3.9946v1h3.9946zm-7.9892 0h-1.9966v1h1.9966z"/><path d="m76 214.5c-.2761 0-.5.224-.5.5s.2239.5.5.5zm743 0h-1.997v1h1.997zm-5.992 0h-3.995v1h3.995zm-7.989 0h-3.995v1h3.995zm-7.989 0h-3.995v1h3.995zm-7.99 0h-3.994v1h3.994zm-7.989 0h-3.995v1h3.995zm-7.989 0h-3.995v1h3.995zm-7.989 0h-3.995v1h3.995zm-7.99 0h-3.994v1h3.994zm-7.989 0h-3.995v1h3.995zm-7.989 0h-3.995v1h3.995zm-7.989 0h-3.995v1h3.995zm-7.99 0h-3.994v1h3.994zm-7.989 0h-3.995v1h3.995zm-7.989 0h-3.995v1h3.995zm-7.989 0h-3.995v1h3.995zm-7.99 0h-3.994v1h3.994zm-7.989 0h-3.994v1h3.994zm-7.989 0h-3.995v1h3.995zm-7.989 0h-3.995v1h3.995zm-7.99 0h-3.994v1h3.994zm-7.989 0h-3.995v1h3.995zm-7.989 0h-3.995v1h3.995zm-7.989 0h-3.995v1h3.995zm-7.99 0h-3.994v1h3.994zm-7.989 0h-3.995v1h3.995zm-7.989 0h-3.995v1h3.995zm-7.989 0h-3.995v1h3.995zm-7.99 0h-3.994v1h3.994zm-7.989 0h-3.995v1h3.995zm-7.989 0h-3.995v1h3.995zm-7.989 0h-3.995v1h3.995zm-7.99 0h-3.994v1h3.994zm-7.989 0h-3.995v1h3.995zm-7.989 0h-3.995v1h3.995zm-7.989 0h-3.995v1h3.995zm-7.99 0h-3.994v1h3.994zm-7.989 0h-3.995v1h3.995zm-7.989 0h-3.995v1h3.995zm-7.99 0h-3.994v1h3.994zm-7.989 0h-3.994v1h3.994zm-7.989 0h-3.995v1h3.995zm-7.989 0h-3.995v1h3.995zm-7.99 0h-3.994v1h3.994zm-7.989 0h-3.994v1h3.994zm-7.989 0h-3.995v1h3.995zm-7.989 0h-3.995v1h3.995zm-7.99 0h-3.994v1h3.994zm-7.989 0h-3.994v1h3.994zm-7.989 0h-3.995v1h3.995zm-7.989 0h-3.995v1h3.995zm-7.99 0h-3.994v1h3.994zm-7.989 0h-3.995v1h3.995zm-7.989 0h-3.995v1h3.995zm-7.989 0h-3.995v1h3.995zm-7.99 0h-3.994v1h3.994zm-7.989 0h-3.995v1h3.995zm-7.989 0h-3.995v1h3.995zm-7.989 0h-3.995v1h3.995zm-7.99 0h-3.994v1h3.994zm-7.989 0h-3.995v1h3.995zm-7.989 0h-3.995v1h3.995zm-7.989 0h-3.995v1h3.995zm-7.99 0h-3.994v1h3.994zm-7.989 0h-3.995v1h3.995zm-7.989 0h-3.995v1h3.995zm-7.989 0h-3.995v1h3.995zm-7.99 0h-3.994v1h3.994zm-7.989 0h-3.995v1h3.995zm-7.989 0h-3.995v1h3.995zm-7.989 0h-3.995v1h3.995zm-7.99 0h-3.994v1h3.994zm-7.989 0h-3.995v1h3.995zm-7.989 0h-3.995v1h3.995zm-7.99 0h-3.994v1h3.994zm-7.989 0h-3.994v1h3.994zm-7.989 0h-3.995v1h3.995zm-7.989 0h-3.995v1h3.995zm-7.99 0h-3.994v1h3.994zm-7.989 0h-3.994v1h3.994zm-7.989 0h-3.995v1h3.995zm-7.989 0h-3.995v1h3.995zm-7.99 0h-3.994v1h3.994zm-7.989 0h-3.994v1h3.994zm-7.989 0h-3.995v1h3.995zm-7.989 0h-3.995v1h3.995zm-7.99 0h-3.994v1h3.994zm-7.989 0h-3.994v1h3.994zm-7.989 0h-3.995v1h3.995zm-7.989 0h-3.995v1h3.995zm-7.99 0h-3.9943v1h3.9943zm-7.9889 0h-3.9946v1h3.9946zm-7.9893 0h-3.9946v1h3.9946zm-7.9892 0h-1.9966v1h1.9966z"/><path d="m76 250.5c-.2761 0-.5.224-.5.5s.2239.5.5.5zm743 0h-1.997v1h1.997zm-5.992 0h-3.995v1h3.995zm-7.989 0h-3.995v1h3.995zm-7.989 0h-3.995v1h3.995zm-7.99 0h-3.994v1h3.994zm-7.989 0h-3.995v1h3.995zm-7.989 0h-3.995v1h3.995zm-7.989 0h-3.995v1h3.995zm-7.99 0h-3.994v1h3.994zm-7.989 0h-3.995v1h3.995zm-7.989 0h-3.995v1h3.995zm-7.989 0h-3.995v1h3.995zm-7.99 0h-3.994v1h3.994zm-7.989 0h-3.995v1h3.995zm-7.989 0h-3.995v1h3.995zm-7.989 0h-3.995v1h3.995zm-7.99 0h-3.994v1h3.994zm-7.989 0h-3.994v1h3.994zm-7.989 0h-3.995v1h3.995zm-7.989 0h-3.995v1h3.995zm-7.99 0h-3.994v1h3.994zm-7.989 0h-3.995v1h3.995zm-7.989 0h-3.995v1h3.995zm-7.989 0h-3.995v1h3.995zm-7.99 0h-3.994v1h3.994zm-7.989 0h-3.995v1h3.995zm-7.989 0h-3.995v1h3.995zm-7.989 0h-3.995v1h3.995zm-7.99 0h-3.994v1h3.994zm-7.989 0h-3.995v1h3.995zm-7.989 0h-3.995v1h3.995zm-7.989 0h-3.995v1h3.995zm-7.99 0h-3.994v1h3.994zm-7.989 0h-3.995v1h3.995zm-7.989 0h-3.995v1h3.995zm-7.989 0h-3.995v1h3.995zm-7.99 0h-3.994v1h3.994zm-7.989 0h-3.995v1h3.995zm-7.989 0h-3.995v1h3.995zm-7.99 0h-3.994v1h3.994zm-7.989 0h-3.994v1h3.994zm-7.989 0h-3.995v1h3.995zm-7.989 0h-3.995v1h3.995zm-7.99 0h-3.994v1h3.994zm-7.989 0h-3.994v1h3.994zm-7.989 0h-3.995v1h3.995zm-7.989 0h-3.995v1h3.995zm-7.99 0h-3.994v1h3.994zm-7.989 0h-3.994v1h3.994zm-7.989 0h-3.995v1h3.995zm-7.989 0h-3.995v1h3.995zm-7.99 0h-3.994v1h3.994zm-7.989 0h-3.995v1h3.995zm-7.989 0h-3.995v1h3.995zm-7.989 0h-3.995v1h3.995zm-7.99 0h-3.994v1h3.994zm-7.989 0h-3.995v1h3.995zm-7.989 0h-3.995v1h3.995zm-7.989 0h-3.995v1h3.995zm-7.99 0h-3.994v1h3.994zm-7.989 0h-3.995v1h3.995zm-7.989 0h-3.995v1h3.995zm-7.989 0h-3.995v1h3.995zm-7.99 0h-3.994v1h3.994zm-7.989 0h-3.995v1h3.995zm-7.989 0h-3.995v1h3.995zm-7.989 0h-3.995v1h3.995zm-7.99 0h-3.994v1h3.994zm-7.989 0h-3.995v1h3.995zm-7.989 0h-3.995v1h3.995zm-7.989 0h-3.995v1h3.995zm-7.99 0h-3.994v1h3.994zm-7.989 0h-3.995v1h3.995zm-7.989 0h-3.995v1h3.995zm-7.99 0h-3.994v1h3.994zm-7.989 0h-3.994v1h3.994zm-7.989 0h-3.995v1h3.995zm-7.989 0h-3.995v1h3.995zm-7.99 0h-3.994v1h3.994zm-7.989 0h-3.994v1h3.994zm-7.989 0h-3.995v1h3.995zm-7.989 0h-3.995v1h3.995zm-7.99 0h-3.994v1h3.994zm-7.989 0h-3.994v1h3.994zm-7.989 0h-3.995v1h3.995zm-7.989 0h-3.995v1h3.995zm-7.99 0h-3.994v1h3.994zm-7.989 0h-3.994v1h3.994zm-7.989 0h-3.995v1h3.995zm-7.989 0h-3.995v1h3.995zm-7.99 0h-3.9943v1h3.9943zm-7.9889 0h-3.9946v1h3.9946zm-7.9893 0h-3.9946v1h3.9946zm-7.9892 0h-1.9966v1h1.9966z"/><path d="m76 286.5c-.2761 0-.5.224-.5.5s.2239.5.5.5zm743 0h-1.997v1h1.997zm-5.992 0h-3.995v1h3.995zm-7.989 0h-3.995v1h3.995zm-7.989 0h-3.995v1h3.995zm-7.99 0h-3.994v1h3.994zm-7.989 0h-3.995v1h3.995zm-7.989 0h-3.995v1h3.995zm-7.989 0h-3.995v1h3.995zm-7.99 0h-3.994v1h3.994zm-7.989 0h-3.995v1h3.995zm-7.989 0h-3.995v1h3.995zm-7.989 0h-3.995v1h3.995zm-7.99 0h-3.994v1h3.994zm-7.989 0h-3.995v1h3.995zm-7.989 0h-3.995v1h3.995zm-7.989 0h-3.995v1h3.995zm-7.99 0h-3.994v1h3.994zm-7.989 0h-3.994v1h3.994zm-7.989 0h-3.995v1h3.995zm-7.989 0h-3.995v1h3.995zm-7.99 0h-3.994v1h3.994zm-7.989 0h-3.995v1h3.995zm-7.989 0h-3.995v1h3.995zm-7.989 0h-3.995v1h3.995zm-7.99 0h-3.994v1h3.994zm-7.989 0h-3.995v1h3.995zm-7.989 0h-3.995v1h3.995zm-7.989 0h-3.995v1h3.995zm-7.99 0h-3.994v1h3.994zm-7.989 0h-3.995v1h3.995zm-7.989 0h-3.995v1h3.995zm-7.989 0h-3.995v1h3.995zm-7.99 0h-3.994v1h3.994zm-7.989 0h-3.995v1h3.995zm-7.989 0h-3.995v1h3.995zm-7.989 0h-3.995v1h3.995zm-7.99 0h-3.994v1h3.994zm-7.989 0h-3.995v1h3.995zm-7.989 0h-3.995v1h3.995zm-7.99 0h-3.994v1h3.994zm-7.989 0h-3.994v1h3.994zm-7.989 0h-3.995v1h3.995zm-7.989 0h-3.995v1h3.995zm-7.99 0h-3.994v1h3.994zm-7.989 0h-3.994v1h3.994zm-7.989 0h-3.995v1h3.995zm-7.989 0h-3.995v1h3.995zm-7.99 0h-3.994v1h3.994zm-7.989 0h-3.994v1h3.994zm-7.989 0h-3.995v1h3.995zm-7.989 0h-3.995v1h3.995zm-7.99 0h-3.994v1h3.994zm-7.989 0h-3.995v1h3.995zm-7.989 0h-3.995v1h3.995zm-7.989 0h-3.995v1h3.995zm-7.99 0h-3.994v1h3.994zm-7.989 0h-3.995v1h3.995zm-7.989 0h-3.995v1h3.995zm-7.989 0h-3.995v1h3.995zm-7.99 0h-3.994v1h3.994zm-7.989 0h-3.995v1h3.995zm-7.989 0h-3.995v1h3.995zm-7.989 0h-3.995v1h3.995zm-7.99 0h-3.994v1h3.994zm-7.989 0h-3.995v1h3.995zm-7.989 0h-3.995v1h3.995zm-7.989 0h-3.995v1h3.995zm-7.99 0h-3.994v1h3.994zm-7.989 0h-3.995v1h3.995zm-7.989 0h-3.995v1h3.995zm-7.989 0h-3.995v1h3.995zm-7.99 0h-3.994v1h3.994zm-7.989 0h-3.995v1h3.995zm-7.989 0h-3.995v1h3.995zm-7.99 0h-3.994v1h3.994zm-7.989 0h-3.994v1h3.994zm-7.989 0h-3.995v1h3.995zm-7.989 0h-3.995v1h3.995zm-7.99 0h-3.994v1h3.994zm-7.989 0h-3.994v1h3.994zm-7.989 0h-3.995v1h3.995zm-7.989 0h-3.995v1h3.995zm-7.99 0h-3.994v1h3.994zm-7.989 0h-3.994v1h3.994zm-7.989 0h-3.995v1h3.995zm-7.989 0h-3.995v1h3.995zm-7.99 0h-3.994v1h3.994zm-7.989 0h-3.994v1h3.994zm-7.989 0h-3.995v1h3.995zm-7.989 0h-3.995v1h3.995zm-7.99 0h-3.9943v1h3.9943zm-7.9889 0h-3.9946v1h3.9946zm-7.9893 0h-3.9946v1h3.9946zm-7.9892 0h-1.9966v1h1.9966z"/><path d="m76 322.5c-.2761 0-.5.224-.5.5s.2239.5.5.5zm743 0h-1.997v1h1.997zm-5.992 0h-3.995v1h3.995zm-7.989 0h-3.995v1h3.995zm-7.989 0h-3.995v1h3.995zm-7.99 0h-3.994v1h3.994zm-7.989 0h-3.995v1h3.995zm-7.989 0h-3.995v1h3.995zm-7.989 0h-3.995v1h3.995zm-7.99 0h-3.994v1h3.994zm-7.989 0h-3.995v1h3.995zm-7.989 0h-3.995v1h3.995zm-7.989 0h-3.995v1h3.995zm-7.99 0h-3.994v1h3.994zm-7.989 0h-3.995v1h3.995zm-7.989 0h-3.995v1h3.995zm-7.989 0h-3.995v1h3.995zm-7.99 0h-3.994v1h3.994zm-7.989 0h-3.994v1h3.994zm-7.989 0h-3.995v1h3.995zm-7.989 0h-3.995v1h3.995zm-7.99 0h-3.994v1h3.994zm-7.989 0h-3.995v1h3.995zm-7.989 0h-3.995v1h3.995zm-7.989 0h-3.995v1h3.995zm-7.99 0h-3.994v1h3.994zm-7.989 0h-3.995v1h3.995zm-7.989 0h-3.995v1h3.995zm-7.989 0h-3.995v1h3.995zm-7.99 0h-3.994v1h3.994zm-7.989 0h-3.995v1h3.995zm-7.989 0h-3.995v1h3.995zm-7.989 0h-3.995v1h3.995zm-7.99 0h-3.994v1h3.994zm-7.989 0h-3.995v1h3.995zm-7.989 0h-3.995v1h3.995zm-7.989 0h-3.995v1h3.995zm-7.99 0h-3.994v1h3.994zm-7.989 0h-3.995v1h3.995zm-7.989 0h-3.995v1h3.995zm-7.99 0h-3.994v1h3.994zm-7.989 0h-3.994v1h3.994zm-7.989 0h-3.995v1h3.995zm-7.989 0h-3.995v1h3.995zm-7.99 0h-3.994v1h3.994zm-7.989 0h-3.994v1h3.994zm-7.989 0h-3.995v1h3.995zm-7.989 0h-3.995v1h3.995zm-7.99 0h-3.994v1h3.994zm-7.989 0h-3.994v1h3.994zm-7.989 0h-3.995v1h3.995zm-7.989 0h-3.995v1h3.995zm-7.99 0h-3.994v1h3.994zm-7.989 0h-3.995v1h3.995zm-7.989 0h-3.995v1h3.995zm-7.989 0h-3.995v1h3.995zm-7.99 0h-3.994v1h3.994zm-7.989 0h-3.995v1h3.995zm-7.989 0h-3.995v1h3.995zm-7.989 0h-3.995v1h3.995zm-7.99 0h-3.994v1h3.994zm-7.989 0h-3.995v1h3.995zm-7.989 0h-3.995v1h3.995zm-7.989 0h-3.995v1h3.995zm-7.99 0h-3.994v1h3.994zm-7.989 0h-3.995v1h3.995zm-7.989 0h-3.995v1h3.995zm-7.989 0h-3.995v1h3.995zm-7.99 0h-3.994v1h3.994zm-7.989 0h-3.995v1h3.995zm-7.989 0h-3.995v1h3.995zm-7.989 0h-3.995v1h3.995zm-7.99 0h-3.994v1h3.994zm-7.989 0h-3.995v1h3.995zm-7.989 0h-3.995v1h3.995zm-7.99 0h-3.994v1h3.994zm-7.989 0h-3.994v1h3.994zm-7.989 0h-3.995v1h3.995zm-7.989 0h-3.995v1h3.995zm-7.99 0h-3.994v1h3.994zm-7.989 0h-3.994v1h3.994zm-7.989 0h-3.995v1h3.995zm-7.989 0h-3.995v1h3.995zm-7.99 0h-3.994v1h3.994zm-7.989 0h-3.994v1h3.994zm-7.989 0h-3.995v1h3.995zm-7.989 0h-3.995v1h3.995zm-7.99 0h-3.994v1h3.994zm-7.989 0h-3.994v1h3.994zm-7.989 0h-3.995v1h3.995zm-7.989 0h-3.995v1h3.995zm-7.99 0h-3.9943v1h3.9943zm-7.9889 0h-3.9946v1h3.9946zm-7.9893 0h-3.9946v1h3.9946zm-7.9892 0h-1.9966v1h1.9966z"/><path d="m76 358.5c-.2761 0-.5.224-.5.5s.2239.5.5.5zm743 0h-1.997v1h1.997zm-5.992 0h-3.995v1h3.995zm-7.989 0h-3.995v1h3.995zm-7.989 0h-3.995v1h3.995zm-7.99 0h-3.994v1h3.994zm-7.989 0h-3.995v1h3.995zm-7.989 0h-3.995v1h3.995zm-7.989 0h-3.995v1h3.995zm-7.99 0h-3.994v1h3.994zm-7.989 0h-3.995v1h3.995zm-7.989 0h-3.995v1h3.995zm-7.989 0h-3.995v1h3.995zm-7.99 0h-3.994v1h3.994zm-7.989 0h-3.995v1h3.995zm-7.989 0h-3.995v1h3.995zm-7.989 0h-3.995v1h3.995zm-7.99 0h-3.994v1h3.994zm-7.989 0h-3.994v1h3.994zm-7.989 0h-3.995v1h3.995zm-7.989 0h-3.995v1h3.995zm-7.99 0h-3.994v1h3.994zm-7.989 0h-3.995v1h3.995zm-7.989 0h-3.995v1h3.995zm-7.989 0h-3.995v1h3.995zm-7.99 0h-3.994v1h3.994zm-7.989 0h-3.995v1h3.995zm-7.989 0h-3.995v1h3.995zm-7.989 0h-3.995v1h3.995zm-7.99 0h-3.994v1h3.994zm-7.989 0h-3.995v1h3.995zm-7.989 0h-3.995v1h3.995zm-7.989 0h-3.995v1h3.995zm-7.99 0h-3.994v1h3.994zm-7.989 0h-3.995v1h3.995zm-7.989 0h-3.995v1h3.995zm-7.989 0h-3.995v1h3.995zm-7.99 0h-3.994v1h3.994zm-7.989 0h-3.995v1h3.995zm-7.989 0h-3.995v1h3.995zm-7.99 0h-3.994v1h3.994zm-7.989 0h-3.994v1h3.994zm-7.989 0h-3.995v1h3.995zm-7.989 0h-3.995v1h3.995zm-7.99 0h-3.994v1h3.994zm-7.989 0h-3.994v1h3.994zm-7.989 0h-3.995v1h3.995zm-7.989 0h-3.995v1h3.995zm-7.99 0h-3.994v1h3.994zm-7.989 0h-3.994v1h3.994zm-7.989 0h-3.995v1h3.995zm-7.989 0h-3.995v1h3.995zm-7.99 0h-3.994v1h3.994zm-7.989 0h-3.995v1h3.995zm-7.989 0h-3.995v1h3.995zm-7.989 0h-3.995v1h3.995zm-7.99 0h-3.994v1h3.994zm-7.989 0h-3.995v1h3.995zm-7.989 0h-3.995v1h3.995zm-7.989 0h-3.995v1h3.995zm-7.99 0h-3.994v1h3.994zm-7.989 0h-3.995v1h3.995zm-7.989 0h-3.995v1h3.995zm-7.989 0h-3.995v1h3.995zm-7.99 0h-3.994v1h3.994zm-7.989 0h-3.995v1h3.995zm-7.989 0h-3.995v1h3.995zm-7.989 0h-3.995v1h3.995zm-7.99 0h-3.994v1h3.994zm-7.989 0h-3.995v1h3.995zm-7.989 0h-3.995v1h3.995zm-7.989 0h-3.995v1h3.995zm-7.99 0h-3.994v1h3.994zm-7.989 0h-3.995v1h3.995zm-7.989 0h-3.995v1h3.995zm-7.99 0h-3.994v1h3.994zm-7.989 0h-3.994v1h3.994zm-7.989 0h-3.995v1h3.995zm-7.989 0h-3.995v1h3.995zm-7.99 0h-3.994v1h3.994zm-7.989 0h-3.994v1h3.994zm-7.989 0h-3.995v1h3.995zm-7.989 0h-3.995v1h3.995zm-7.99 0h-3.994v1h3.994zm-7.989 0h-3.994v1h3.994zm-7.989 0h-3.995v1h3.995zm-7.989 0h-3.995v1h3.995zm-7.99 0h-3.994v1h3.994zm-7.989 0h-3.994v1h3.994zm-7.989 0h-3.995v1h3.995zm-7.989 0h-3.995v1h3.995zm-7.99 0h-3.9943v1h3.9943zm-7.9889 0h-3.9946v1h3.9946zm-7.9893 0h-3.9946v1h3.9946zm-7.9892 0h-1.9966v1h1.9966z"/><path d="m76 394.5c-.2761 0-.5.224-.5.5s.2239.5.5.5zm743 0h-1.997v1h1.997zm-5.992 0h-3.995v1h3.995zm-7.989 0h-3.995v1h3.995zm-7.989 0h-3.995v1h3.995zm-7.99 0h-3.994v1h3.994zm-7.989 0h-3.995v1h3.995zm-7.989 0h-3.995v1h3.995zm-7.989 0h-3.995v1h3.995zm-7.99 0h-3.994v1h3.994zm-7.989 0h-3.995v1h3.995zm-7.989 0h-3.995v1h3.995zm-7.989 0h-3.995v1h3.995zm-7.99 0h-3.994v1h3.994zm-7.989 0h-3.995v1h3.995zm-7.989 0h-3.995v1h3.995zm-7.989 0h-3.995v1h3.995zm-7.99 0h-3.994v1h3.994zm-7.989 0h-3.994v1h3.994zm-7.989 0h-3.995v1h3.995zm-7.989 0h-3.995v1h3.995zm-7.99 0h-3.994v1h3.994zm-7.989 0h-3.995v1h3.995zm-7.989 0h-3.995v1h3.995zm-7.989 0h-3.995v1h3.995zm-7.99 0h-3.994v1h3.994zm-7.989 0h-3.995v1h3.995zm-7.989 0h-3.995v1h3.995zm-7.989 0h-3.995v1h3.995zm-7.99 0h-3.994v1h3.994zm-7.989 0h-3.995v1h3.995zm-7.989 0h-3.995v1h3.995zm-7.989 0h-3.995v1h3.995zm-7.99 0h-3.994v1h3.994zm-7.989 0h-3.995v1h3.995zm-7.989 0h-3.995v1h3.995zm-7.989 0h-3.995v1h3.995zm-7.99 0h-3.994v1h3.994zm-7.989 0h-3.995v1h3.995zm-7.989 0h-3.995v1h3.995zm-7.99 0h-3.994v1h3.994zm-7.989 0h-3.994v1h3.994zm-7.989 0h-3.995v1h3.995zm-7.989 0h-3.995v1h3.995zm-7.99 0h-3.994v1h3.994zm-7.989 0h-3.994v1h3.994zm-7.989 0h-3.995v1h3.995zm-7.989 0h-3.995v1h3.995zm-7.99 0h-3.994v1h3.994zm-7.989 0h-3.994v1h3.994zm-7.989 0h-3.995v1h3.995zm-7.989 0h-3.995v1h3.995zm-7.99 0h-3.994v1h3.994zm-7.989 0h-3.995v1h3.995zm-7.989 0h-3.995v1h3.995zm-7.989 0h-3.995v1h3.995zm-7.99 0h-3.994v1h3.994zm-7.989 0h-3.995v1h3.995zm-7.989 0h-3.995v1h3.995zm-7.989 0h-3.995v1h3.995zm-7.99 0h-3.994v1h3.994zm-7.989 0h-3.995v1h3.995zm-7.989 0h-3.995v1h3.995zm-7.989 0h-3.995v1h3.995zm-7.99 0h-3.994v1h3.994zm-7.989 0h-3.995v1h3.995zm-7.989 0h-3.995v1h3.995zm-7.989 0h-3.995v1h3.995zm-7.99 0h-3.994v1h3.994zm-7.989 0h-3.995v1h3.995zm-7.989 0h-3.995v1h3.995zm-7.989 0h-3.995v1h3.995zm-7.99 0h-3.994v1h3.994zm-7.989 0h-3.995v1h3.995zm-7.989 0h-3.995v1h3.995zm-7.99 0h-3.994v1h3.994zm-7.989 0h-3.994v1h3.994zm-7.989 0h-3.995v1h3.995zm-7.989 0h-3.995v1h3.995zm-7.99 0h-3.994v1h3.994zm-7.989 0h-3.994v1h3.994zm-7.989 0h-3.995v1h3.995zm-7.989 0h-3.995v1h3.995zm-7.99 0h-3.994v1h3.994zm-7.989 0h-3.994v1h3.994zm-7.989 0h-3.995v1h3.995zm-7.989 0h-3.995v1h3.995zm-7.99 0h-3.994v1h3.994zm-7.989 0h-3.994v1h3.994zm-7.989 0h-3.995v1h3.995zm-7.989 0h-3.995v1h3.995zm-7.99 0h-3.9943v1h3.9943zm-7.9889 0h-3.9946v1h3.9946zm-7.9893 0h-3.9946v1h3.9946zm-7.9892 0h-1.9966v1h1.9966z"/><path d="m76 430.5c-.2761 0-.5.224-.5.5s.2239.5.5.5zm743 0h-1.997v1h1.997zm-5.992 0h-3.995v1h3.995zm-7.989 0h-3.995v1h3.995zm-7.989 0h-3.995v1h3.995zm-7.99 0h-3.994v1h3.994zm-7.989 0h-3.995v1h3.995zm-7.989 0h-3.995v1h3.995zm-7.989 0h-3.995v1h3.995zm-7.99 0h-3.994v1h3.994zm-7.989 0h-3.995v1h3.995zm-7.989 0h-3.995v1h3.995zm-7.989 0h-3.995v1h3.995zm-7.99 0h-3.994v1h3.994zm-7.989 0h-3.995v1h3.995zm-7.989 0h-3.995v1h3.995zm-7.989 0h-3.995v1h3.995zm-7.99 0h-3.994v1h3.994zm-7.989 0h-3.994v1h3.994zm-7.989 0h-3.995v1h3.995zm-7.989 0h-3.995v1h3.995zm-7.99 0h-3.994v1h3.994zm-7.989 0h-3.995v1h3.995zm-7.989 0h-3.995v1h3.995zm-7.989 0h-3.995v1h3.995zm-7.99 0h-3.994v1h3.994zm-7.989 0h-3.995v1h3.995zm-7.989 0h-3.995v1h3.995zm-7.989 0h-3.995v1h3.995zm-7.99 0h-3.994v1h3.994zm-7.989 0h-3.995v1h3.995zm-7.989 0h-3.995v1h3.995zm-7.989 0h-3.995v1h3.995zm-7.99 0h-3.994v1h3.994zm-7.989 0h-3.995v1h3.995zm-7.989 0h-3.995v1h3.995zm-7.989 0h-3.995v1h3.995zm-7.99 0h-3.994v1h3.994zm-7.989 0h-3.995v1h3.995zm-7.989 0h-3.995v1h3.995zm-7.99 0h-3.994v1h3.994zm-7.989 0h-3.994v1h3.994zm-7.989 0h-3.995v1h3.995zm-7.989 0h-3.995v1h3.995zm-7.99 0h-3.994v1h3.994zm-7.989 0h-3.994v1h3.994zm-7.989 0h-3.995v1h3.995zm-7.989 0h-3.995v1h3.995zm-7.99 0h-3.994v1h3.994zm-7.989 0h-3.994v1h3.994zm-7.989 0h-3.995v1h3.995zm-7.989 0h-3.995v1h3.995zm-7.99 0h-3.994v1h3.994zm-7.989 0h-3.995v1h3.995zm-7.989 0h-3.995v1h3.995zm-7.989 0h-3.995v1h3.995zm-7.99 0h-3.994v1h3.994zm-7.989 0h-3.995v1h3.995zm-7.989 0h-3.995v1h3.995zm-7.989 0h-3.995v1h3.995zm-7.99 0h-3.994v1h3.994zm-7.989 0h-3.995v1h3.995zm-7.989 0h-3.995v1h3.995zm-7.989 0h-3.995v1h3.995zm-7.99 0h-3.994v1h3.994zm-7.989 0h-3.995v1h3.995zm-7.989 0h-3.995v1h3.995zm-7.989 0h-3.995v1h3.995zm-7.99 0h-3.994v1h3.994zm-7.989 0h-3.995v1h3.995zm-7.989 0h-3.995v1h3.995zm-7.989 0h-3.995v1h3.995zm-7.99 0h-3.994v1h3.994zm-7.989 0h-3.995v1h3.995zm-7.989 0h-3.995v1h3.995zm-7.99 0h-3.994v1h3.994zm-7.989 0h-3.994v1h3.994zm-7.989 0h-3.995v1h3.995zm-7.989 0h-3.995v1h3.995zm-7.99 0h-3.994v1h3.994zm-7.989 0h-3.994v1h3.994zm-7.989 0h-3.995v1h3.995zm-7.989 0h-3.995v1h3.995zm-7.99 0h-3.994v1h3.994zm-7.989 0h-3.994v1h3.994zm-7.989 0h-3.995v1h3.995zm-7.989 0h-3.995v1h3.995zm-7.99 0h-3.994v1h3.994zm-7.989 0h-3.994v1h3.994zm-7.989 0h-3.995v1h3.995zm-7.989 0h-3.995v1h3.995zm-7.99 0h-3.9943v1h3.9943zm-7.9889 0h-3.9946v1h3.9946zm-7.9893 0h-3.9946v1h3.9946zm-7.9892 0h-1.9966v1h1.9966z"/><path d="m76 466.5c-.2761 0-.5.224-.5.5s.2239.5.5.5zm743 0h-1.997v1h1.997zm-5.992 0h-3.995v1h3.995zm-7.989 0h-3.995v1h3.995zm-7.989 0h-3.995v1h3.995zm-7.99 0h-3.994v1h3.994zm-7.989 0h-3.995v1h3.995zm-7.989 0h-3.995v1h3.995zm-7.989 0h-3.995v1h3.995zm-7.99 0h-3.994v1h3.994zm-7.989 0h-3.995v1h3.995zm-7.989 0h-3.995v1h3.995zm-7.989 0h-3.995v1h3.995zm-7.99 0h-3.994v1h3.994zm-7.989 0h-3.995v1h3.995zm-7.989 0h-3.995v1h3.995zm-7.989 0h-3.995v1h3.995zm-7.99 0h-3.994v1h3.994zm-7.989 0h-3.994v1h3.994zm-7.989 0h-3.995v1h3.995zm-7.989 0h-3.995v1h3.995zm-7.99 0h-3.994v1h3.994zm-7.989 0h-3.995v1h3.995zm-7.989 0h-3.995v1h3.995zm-7.989 0h-3.995v1h3.995zm-7.99 0h-3.994v1h3.994zm-7.989 0h-3.995v1h3.995zm-7.989 0h-3.995v1h3.995zm-7.989 0h-3.995v1h3.995zm-7.99 0h-3.994v1h3.994zm-7.989 0h-3.995v1h3.995zm-7.989 0h-3.995v1h3.995zm-7.989 0h-3.995v1h3.995zm-7.99 0h-3.994v1h3.994zm-7.989 0h-3.995v1h3.995zm-7.989 0h-3.995v1h3.995zm-7.989 0h-3.995v1h3.995zm-7.99 0h-3.994v1h3.994zm-7.989 0h-3.995v1h3.995zm-7.989 0h-3.995v1h3.995zm-7.99 0h-3.994v1h3.994zm-7.989 0h-3.994v1h3.994zm-7.989 0h-3.995v1h3.995zm-7.989 0h-3.995v1h3.995zm-7.99 0h-3.994v1h3.994zm-7.989 0h-3.994v1h3.994zm-7.989 0h-3.995v1h3.995zm-7.989 0h-3.995v1h3.995zm-7.99 0h-3.994v1h3.994zm-7.989 0h-3.994v1h3.994zm-7.989 0h-3.995v1h3.995zm-7.989 0h-3.995v1h3.995zm-7.99 0h-3.994v1h3.994zm-7.989 0h-3.995v1h3.995zm-7.989 0h-3.995v1h3.995zm-7.989 0h-3.995v1h3.995zm-7.99 0h-3.994v1h3.994zm-7.989 0h-3.995v1h3.995zm-7.989 0h-3.995v1h3.995zm-7.989 0h-3.995v1h3.995zm-7.99 0h-3.994v1h3.994zm-7.989 0h-3.995v1h3.995zm-7.989 0h-3.995v1h3.995zm-7.989 0h-3.995v1h3.995zm-7.99 0h-3.994v1h3.994zm-7.989 0h-3.995v1h3.995zm-7.989 0h-3.995v1h3.995zm-7.989 0h-3.995v1h3.995zm-7.99 0h-3.994v1h3.994zm-7.989 0h-3.995v1h3.995zm-7.989 0h-3.995v1h3.995zm-7.989 0h-3.995v1h3.995zm-7.99 0h-3.994v1h3.994zm-7.989 0h-3.995v1h3.995zm-7.989 0h-3.995v1h3.995zm-7.99 0h-3.994v1h3.994zm-7.989 0h-3.994v1h3.994zm-7.989 0h-3.995v1h3.995zm-7.989 0h-3.995v1h3.995zm-7.99 0h-3.994v1h3.994zm-7.989 0h-3.994v1h3.994zm-7.989 0h-3.995v1h3.995zm-7.989 0h-3.995v1h3.995zm-7.99 0h-3.994v1h3.994zm-7.989 0h-3.994v1h3.994zm-7.989 0h-3.995v1h3.995zm-7.989 0h-3.995v1h3.995zm-7.99 0h-3.994v1h3.994zm-7.989 0h-3.994v1h3.994zm-7.989 0h-3.995v1h3.995zm-7.989 0h-3.995v1h3.995zm-7.99 0h-3.9943v1h3.9943zm-7.9889 0h-3.9946v1h3.9946zm-7.9893 0h-3.9946v1h3.9946zm-7.9892 0h-1.9966v1h1.9966z"/></g><rect fill="#b40b47" height="130" rx="10" transform="matrix(0 -1 1 0 -217 729)" width="344" x="256" y="473"/><rect fill="#a3acb1" height="130" rx="10" transform="matrix(0 -1 1 0 59 1005)" width="315" x="532" y="473"/><path d="m40.6406 72.6172c0-1.3802.2005-2.6719.6016-3.875.4062-1.2031.9896-2.2578 1.75-3.1641h1.2656c-.75 1.0052-1.3151 2.1094-1.6953 3.3125-.375 1.2032-.5625 2.4401-.5625 3.711 0 1.25.1927 2.4713.5781 3.664s.9401 2.2813 1.6641 3.2656h-1.25c-.7656-.8854-1.349-1.9192-1.75-3.1015-.4011-1.1823-.6016-2.4531-.6016-3.8125zm5.9844-3.6328c0 .8854.0964 1.5495.2891 1.9922s.5052.664.9375.664c.8541 0 1.2812-.8854 1.2812-2.6562 0-1.7604-.4271-2.6406-1.2812-2.6406-.4323 0-.7448.2187-.9375.6562s-.2891 1.099-.2891 1.9844zm3.5781 0c0 1.1875-.2005 2.0859-.6015 2.6953-.3959.6042-.9792.9062-1.75.9062-.7292 0-1.2969-.3099-1.7032-.9297-.401-.6197-.6015-1.5104-.6015-2.6718 0-1.1823.1927-2.0729.5781-2.6719.3906-.599.9661-.8984 1.7266-.8984.7552 0 1.3359.3099 1.7422.9297.4062.6197.6093 1.5.6093 2.6406zm3.2969 4.5781c0 .8906.0964 1.5573.2891 2 .1927.4375.5078.6563.9453.6563s.7604-.2162.9687-.6485c.2084-.4375.3125-1.1068.3125-2.0078 0-.8906-.1041-1.5495-.3125-1.9766-.2083-.4323-.5312-.6484-.9687-.6484s-.7526.2161-.9453.6484c-.1927.4271-.2891 1.086-.2891 1.9766zm3.5859 0c0 1.1823-.2005 2.0781-.6015 2.6875-.3959.6042-.9792.9062-1.75.9062-.7396 0-1.3099-.3098-1.711-.9296-.3958-.6198-.5937-1.5078-.5937-2.6641 0-1.1823.1927-2.0729.5781-2.6719.3906-.5989.9662-.8984 1.7266-.8984.7396 0 1.3151.3073 1.7265.9219.4167.6093.625 1.4921.625 2.6484zm-2.0156-7.9844-6.3359 11.4219h-1.1485l6.336-11.4219zm6.9297 7.0391c0 1.3698-.2031 2.6458-.6094 3.8281-.401 1.1823-.9817 2.2109-1.7422 3.0859h-1.25c.724-.9791 1.2787-2.0651 1.6641-3.2578.3854-1.1979.5781-2.4218.5781-3.6718 0-1.2709-.1901-2.5078-.5703-3.711-.375-1.2031-.9375-2.3073-1.6875-3.3125h1.2656c.7657.9115 1.349 1.9714 1.75 3.1797.4011 1.2031.6016 2.4896.6016 3.8594zm-16.4141 39.3828h-1.2656v-8.141c0-.677.0208-1.317.0625-1.921-.1094.109-.2318.223-.3672.343s-.7552.628-1.8594 1.524l-.6874-.891 3.0234-2.336h1.0937zm11.9219-5.727c0 1.974-.3125 3.448-.9375 4.422-.6198.974-1.5703 1.461-2.8515 1.461-1.2292 0-2.1641-.497-2.8047-1.492-.6407-1-.961-2.463-.961-4.391 0-1.989.3099-3.466.9297-4.429.6198-.964 1.5651-1.446 2.836-1.446 1.2395 0 2.1796.503 2.8203 1.508.6458 1.005.9687 2.461.9687 4.367zm-6.2422 0c0 1.662.1953 2.873.586 3.633.3906.755 1.013 1.133 1.8672 1.133.8645 0 1.4895-.383 1.875-1.148.3906-.771.5859-1.977.5859-3.618 0-1.64-.1953-2.841-.5859-3.601-.3855-.766-1.0105-1.149-1.875-1.149-.8542 0-1.4766.378-1.8672 1.133-.3907.75-.586 1.956-.586 3.617zm15.3985 0c0 1.974-.3125 3.448-.9375 4.422-.6198.974-1.5704 1.461-2.8516 1.461-1.2292 0-2.1641-.497-2.8047-1.492-.6406-1-.9609-2.463-.9609-4.391 0-1.989.3099-3.466.9297-4.429.6198-.964 1.5651-1.446 2.8359-1.446 1.2396 0 2.1797.503 2.8203 1.508.6458 1.005.9688 2.461.9688 4.367zm-6.2422 0c0 1.662.1953 2.873.5859 3.633.3906.755 1.013 1.133 1.8672 1.133.8646 0 1.4896-.383 1.875-1.148.3906-.771.5859-1.977.5859-3.618 0-1.64-.1953-2.841-.5859-3.601-.3854-.766-1.0104-1.149-1.875-1.149-.8542 0-1.4766.378-1.8672 1.133-.3906.75-.5859 1.956-.5859 3.617zm-12.1328 34.18c0 4.469-1.7292 6.703-5.1875 6.703-.6042 0-1.0834-.052-1.4375-.156v-1.117c.4166.135.8906.203 1.4218.203 1.25 0 2.1927-.385 2.8282-1.156.6406-.776.9895-1.964 1.0468-3.563h-.0937c-.2865.432-.6667.763-1.1406.992-.474.224-1.0078.336-1.6016.336-1.0104 0-1.8125-.302-2.4062-.906-.5938-.604-.8907-1.448-.8907-2.531 0-1.188.3308-2.125.9922-2.813.6667-.687 1.5417-1.031 2.625-1.031.7761 0 1.4531.201 2.0313.602.5833.395 1.0312.976 1.3437 1.742.3125.76.4688 1.659.4688 2.695zm-3.8438-3.93c-.7448 0-1.3203.24-1.7265.719-.4063.479-.6094 1.146-.6094 2 0 .75.1875 1.341.5625 1.774.375.427.9453.64 1.7109.64.474 0 .9089-.096 1.3047-.289.401-.193.7161-.456.9453-.789s.3438-.682.3438-1.047c0-.547-.1068-1.052-.3204-1.515-.2135-.464-.513-.828-.8984-1.094-.3802-.266-.8177-.399-1.3125-.399zm13.0625 4.75c0 1.974-.3125 3.448-.9375 4.422-.6198.974-1.5703 1.461-2.8515 1.461-1.2292 0-2.1641-.497-2.8047-1.492-.6407-1-.961-2.463-.961-4.391 0-1.989.3099-3.466.9297-4.429.6198-.964 1.5651-1.446 2.836-1.446 1.2395 0 2.1796.503 2.8203 1.508.6458 1.005.9687 2.461.9687 4.367zm-6.2422 0c0 1.662.1953 2.873.586 3.633.3906.755 1.013 1.133 1.8672 1.133.8645 0 1.4895-.383 1.875-1.148.3906-.771.5859-1.977.5859-3.618 0-1.64-.1953-2.841-.5859-3.601-.3855-.766-1.0105-1.149-1.875-1.149-.8542 0-1.4766.378-1.8672 1.133-.3907.75-.586 1.956-.586 3.617zm-6.7031 29.141c1.0417 0 1.8672.242 2.4766.727.6093.484.914 1.153.914 2.007 0 .563-.1745 1.076-.5234 1.54-.349.463-.9063.885-1.6719 1.265.9271.443 1.586.909 1.9766 1.399.3906.484.5859 1.046.5859 1.687 0 .948-.3307 1.706-.9922 2.273-.6614.563-1.5677.844-2.7187.844-1.2188 0-2.1563-.265-2.8125-.797-.6563-.536-.9844-1.294-.9844-2.273 0-1.307.7969-2.326 2.3906-3.055-.7187-.406-1.2343-.843-1.5469-1.312-.3124-.474-.4687-1.003-.4687-1.586 0-.828.3047-1.487.9141-1.977.6145-.495 1.4349-.742 2.4609-.742zm-2.4687 8.703c0 .625.2161 1.112.6484 1.461.4375.349 1.0495.524 1.8359.524.7761 0 1.3802-.183 1.8125-.547.4323-.365.6485-.865.6485-1.5 0-.506-.2032-.953-.6094-1.344-.4063-.396-1.1146-.779-2.125-1.149-.7761.334-1.3386.704-1.6875 1.11-.349.401-.5234.883-.5234 1.445zm2.4531-7.648c-.6511 0-1.1615.156-1.5313.469-.3698.312-.5547.729-.5547 1.25 0 .479.1537.89.461 1.234s.875.687 1.7031 1.031c.7448-.312 1.2708-.648 1.5781-1.008.3125-.359.4688-.778.4688-1.257 0-.527-.1901-.943-.5703-1.25-.375-.313-.8933-.469-1.5547-.469zm12.9609 4.804c0 1.974-.3125 3.448-.9375 4.422-.6198.974-1.5703 1.461-2.8515 1.461-1.2292 0-2.1641-.497-2.8047-1.492-.6407-1-.961-2.463-.961-4.391 0-1.989.3099-3.466.9297-4.429.6198-.964 1.5651-1.446 2.836-1.446 1.2395 0 2.1796.503 2.8203 1.508.6458 1.005.9687 2.461.9687 4.367zm-6.2422 0c0 1.662.1953 2.873.586 3.633.3906.755 1.013 1.133 1.8672 1.133.8645 0 1.4895-.383 1.875-1.148.3906-.771.5859-1.977.5859-3.618 0-1.64-.1953-2.841-.5859-3.601-.3855-.766-1.0105-1.149-1.875-1.149-.8542 0-1.4766.378-1.8672 1.133-.3907.75-.586 1.956-.586 3.617zm-9.039 40.727 4.7343-10.227h-6.2265v-1.195h7.6015v1.039l-4.6718 10.383zm15.2812-5.727c0 1.974-.3125 3.448-.9375 4.422-.6198.974-1.5703 1.461-2.8515 1.461-1.2292 0-2.1641-.497-2.8047-1.492-.6407-1-.961-2.463-.961-4.391 0-1.989.3099-3.466.9297-4.429.6198-.964 1.5651-1.446 2.836-1.446 1.2395 0 2.1796.503 2.8203 1.508.6458 1.005.9687 2.461.9687 4.367zm-6.2422 0c0 1.662.1953 2.873.586 3.633.3906.755 1.013 1.133 1.8672 1.133.8645 0 1.4895-.383 1.875-1.148.3906-.771.5859-1.977.5859-3.618 0-1.64-.1953-2.841-.5859-3.601-.3855-.766-1.0105-1.149-1.875-1.149-.8542 0-1.4766.378-1.8672 1.133-.3907.75-.586 1.956-.586 3.617zm-10.3515 35.844c0-2.245.4349-3.922 1.3047-5.031.875-1.115 2.1666-1.672 3.875-1.672.5885 0 1.052.05 1.3906.148v1.118c-.4011-.131-.8594-.196-1.375-.196-1.224 0-2.1589.383-2.8047 1.149-.6458.76-1 1.958-1.0625 3.594h.0937c.573-.896 1.4792-1.344 2.7188-1.344 1.026 0 1.8333.31 2.4219.929.5937.62.8906 1.461.8906 2.524 0 1.187-.3255 2.122-.9766 2.805-.6458.677-1.5208 1.015-2.625 1.015-1.1823 0-2.1198-.442-2.8125-1.328-.6927-.89-1.039-2.127-1.039-3.711zm3.8359 3.938c.7396 0 1.3125-.232 1.7188-.696.4114-.468.6171-1.143.6171-2.023 0-.755-.1901-1.349-.5703-1.781-.3802-.433-.9479-.649-1.7031-.649-.4687 0-.8984.097-1.2891.289-.3906.193-.7031.459-.9375.797-.2291.339-.3437.69-.3437 1.055 0 .536.1042 1.036.3125 1.5.2083.463.5026.831.8828 1.101.3854.271.8229.407 1.3125.407zm12.7578-4.782c0 1.974-.3125 3.448-.9375 4.422-.6198.974-1.5703 1.461-2.8515 1.461-1.2292 0-2.1641-.497-2.8047-1.492-.6407-1-.961-2.463-.961-4.391 0-1.989.3099-3.466.9297-4.429.6198-.964 1.5651-1.446 2.836-1.446 1.2395 0 2.1796.503 2.8203 1.508.6458 1.005.9687 2.461.9687 4.367zm-6.2422 0c0 1.662.1953 2.873.586 3.633.3906.755 1.013 1.133 1.8672 1.133.8645 0 1.4895-.383 1.875-1.148.3906-.771.5859-1.977.5859-3.618 0-1.64-.1953-2.841-.5859-3.601-.3855-.766-1.0105-1.149-1.875-1.149-.8542 0-1.4766.378-1.8672 1.133-.3907.75-.586 1.956-.586 3.617zm-6.914 33.75c1.2031 0 2.1484.3 2.8359.899.6927.594 1.0391 1.409 1.0391 2.445 0 1.182-.3776 2.11-1.1328 2.781-.75.672-1.7865 1.008-3.1094 1.008-1.2865 0-2.2683-.205-2.9453-.617v-1.25c.3645.234.8177.419 1.3593.555.5417.13 1.0756.195 1.6016.195.9167 0 1.6276-.216 2.1328-.648.5104-.433.7656-1.058.7656-1.875 0-1.594-.9765-2.391-2.9296-2.391-.4948 0-1.1563.076-1.9844.227l-.6719-.43.4297-5.344h5.6797v1.195h-4.5703l-.2891 3.43c.599-.12 1.1953-.18 1.7891-.18zm13.1562 1.25c0 1.974-.3125 3.448-.9375 4.422-.6198.974-1.5703 1.461-2.8515 1.461-1.2292 0-2.1641-.497-2.8047-1.492-.6407-1-.961-2.463-.961-4.391 0-1.989.3099-3.466.9297-4.429.6198-.964 1.5651-1.446 2.836-1.446 1.2395 0 2.1796.503 2.8203 1.508.6458 1.005.9687 2.461.9687 4.367zm-6.2422 0c0 1.662.1953 2.873.586 3.633.3906.755 1.013 1.133 1.8672 1.133.8645 0 1.4895-.383 1.875-1.148.3906-.771.5859-1.977.5859-3.618 0-1.64-.1953-2.841-.5859-3.601-.3855-.766-1.0105-1.149-1.875-1.149-.8542 0-1.4766.378-1.8672 1.133-.3907.75-.586 1.956-.586 3.617zm-2.4375 38.102h-1.6953v2.625h-1.2422v-2.625h-5.5547v-1.133l5.4219-7.726h1.375v7.679h1.6953zm-2.9375-1.18v-3.797c0-.744.0261-1.586.0782-2.523h-.0626c-.25.5-.4843.914-.7031 1.242l-3.5703 5.078zm11.6172-1.922c0 1.974-.3125 3.448-.9375 4.422-.6198.974-1.5703 1.461-2.8515 1.461-1.2292 0-2.1641-.497-2.8047-1.492-.6407-1-.961-2.463-.961-4.391 0-1.989.3099-3.466.9297-4.429.6198-.964 1.5651-1.446 2.836-1.446 1.2395 0 2.1796.503 2.8203 1.508.6458 1.005.9687 2.461.9687 4.367zm-6.2422 0c0 1.662.1953 2.873.586 3.633.3906.755 1.013 1.133 1.8672 1.133.8645 0 1.4895-.383 1.875-1.148.3906-.771.5859-1.977.5859-3.618 0-1.64-.1953-2.841-.5859-3.601-.3855-.766-1.0105-1.149-1.875-1.149-.8542 0-1.4766.378-1.8672 1.133-.3907.75-.586 1.956-.586 3.617zm-3.4062 31.993c0 .729-.2058 1.325-.6172 1.789-.4063.463-.9844.773-1.7344.929v.063c.9167.114 1.5964.406 2.0391.875s.664 1.083.664 1.844c0 1.088-.3776 1.927-1.1328 2.515-.7552.584-1.8281.875-3.2187.875-.6042 0-1.1589-.047-1.6641-.14-.5-.089-.987-.248-1.4609-.477v-1.234c.4948.244 1.0208.432 1.5781.562.5625.125 1.0937.188 1.5937.188 1.974 0 2.961-.774 2.961-2.321 0-1.385-1.0886-2.078-3.2656-2.078h-1.125v-1.117h1.1406c.8906 0 1.5963-.195 2.1172-.586.5208-.396.7812-.943.7812-1.641 0-.557-.1927-.994-.5781-1.312-.3802-.318-.8984-.477-1.5547-.477-.5 0-.9713.068-1.414.204-.4428.135-.948.385-1.5157.75l-.6562-.875c.4687-.37 1.0078-.659 1.6172-.868.6145-.213 1.2604-.32 1.9375-.32 1.1093 0 1.9713.255 2.5859.766.6146.505.9219 1.2.9219 2.086zm9.6484 3.007c0 1.974-.3125 3.448-.9375 4.422-.6198.974-1.5703 1.461-2.8515 1.461-1.2292 0-2.1641-.497-2.8047-1.492-.6407-1-.961-2.463-.961-4.391 0-1.989.3099-3.466.9297-4.429.6198-.964 1.5651-1.446 2.836-1.446 1.2395 0 2.1796.503 2.8203 1.508.6458 1.005.9687 2.461.9687 4.367zm-6.2422 0c0 1.662.1953 2.873.586 3.633.3906.755 1.013 1.133 1.8672 1.133.8645 0 1.4895-.383 1.875-1.148.3906-.771.5859-1.977.5859-3.618 0-1.64-.1953-2.841-.5859-3.601-.3855-.766-1.0105-1.149-1.875-1.149-.8542 0-1.4766.378-1.8672 1.133-.3907.75-.586 1.956-.586 3.617zm-2.9765 40.727h-7.5079v-1.117l3.0079-3.024c.9166-.927 1.5208-1.588 1.8125-1.984.2916-.396.5104-.781.6562-1.156s.2188-.779.2188-1.211c0-.61-.1849-1.091-.5547-1.446-.3698-.359-.8828-.539-1.5391-.539-.4739 0-.9245.079-1.3516.235-.4218.156-.8932.44-1.414.851l-.6875-.882c1.0521-.875 2.1979-1.313 3.4375-1.313 1.0729 0 1.914.276 2.5234.828.6094.547.9141 1.284.9141 2.211 0 .724-.2031 1.44-.6094 2.149-.4062.708-1.1667 1.604-2.2812 2.687l-2.5 2.445v.063h5.875zm9.2187-5.727c0 1.974-.3125 3.448-.9375 4.422-.6198.974-1.5703 1.461-2.8515 1.461-1.2292 0-2.1641-.497-2.8047-1.492-.6407-1-.961-2.463-.961-4.391 0-1.989.3099-3.466.9297-4.429.6198-.964 1.5651-1.446 2.836-1.446 1.2395 0 2.1796.503 2.8203 1.508.6458 1.005.9687 2.461.9687 4.367zm-6.2422 0c0 1.662.1953 2.873.586 3.633.3906.755 1.013 1.133 1.8672 1.133.8645 0 1.4895-.383 1.875-1.148.3906-.771.5859-1.977.5859-3.618 0-1.64-.1953-2.841-.5859-3.601-.3855-.766-1.0105-1.149-1.875-1.149-.8542 0-1.4766.378-1.8672 1.133-.3907.75-.586 1.956-.586 3.617zm-5.6797 40.727h-1.2656v-8.141c0-.677.0208-1.317.0625-1.921-.1094.109-.2318.223-.3672.343s-.7552.628-1.8594 1.524l-.6874-.891 3.0234-2.336h1.0937zm11.9219-5.727c0 1.974-.3125 3.448-.9375 4.422-.6198.974-1.5703 1.461-2.8515 1.461-1.2292 0-2.1641-.497-2.8047-1.492-.6407-1-.961-2.463-.961-4.391 0-1.989.3099-3.466.9297-4.429.6198-.964 1.5651-1.446 2.836-1.446 1.2395 0 2.1796.503 2.8203 1.508.6458 1.005.9687 2.461.9687 4.367zm-6.2422 0c0 1.662.1953 2.873.586 3.633.3906.755 1.013 1.133 1.8672 1.133.8645 0 1.4895-.383 1.875-1.148.3906-.771.5859-1.977.5859-3.618 0-1.64-.1953-2.841-.5859-3.601-.3855-.766-1.0105-1.149-1.875-1.149-.8542 0-1.4766.378-1.8672 1.133-.3907.75-.586 1.956-.586 3.617zm-2.914 35c0 1.974-.3125 3.448-.9375 4.422-.6198.974-1.5703 1.461-2.8516 1.461-1.2292 0-2.1641-.497-2.8047-1.492-.6406-1-.9609-2.463-.9609-4.391 0-1.989.3099-3.466.9297-4.429.6198-.964 1.5651-1.446 2.8359-1.446 1.2396 0 2.1797.503 2.8203 1.508.6458 1.005.9688 2.461.9688 4.367zm-6.2422 0c0 1.662.1953 2.873.5859 3.633.3906.755 1.013 1.133 1.8672 1.133.8646 0 1.4896-.383 1.875-1.148.3906-.771.5859-1.977.5859-3.618 0-1.64-.1953-2.841-.5859-3.601-.3854-.766-1.0104-1.149-1.875-1.149-.8542 0-1.4766.378-1.8672 1.133-.3906.75-.5859 1.956-.5859 3.617z" fill="#000"/><rect fill="#898989" height="495" rx="18.5" transform="matrix(0 1 -1 0 524 -524)" width="37" x="524"/><path d="m57.3555 25h-1.4942v-11.5225h-6.6006v11.5225h-1.4941v-12.8496h9.5889zm7.8047.1758c-.627 0-1.2012-.1143-1.7227-.3428-.5156-.2344-.9492-.5918-1.3008-1.0723h-.1055c.0704.5625.1055 1.0957.1055 1.5997v3.9638h-1.459v-13.957h1.1866l.2021 1.3183h.0703c.375-.5273.8115-.9082 1.3096-1.1425.498-.2344 1.0693-.3516 1.7139-.3516 1.2773 0 2.2617.4365 2.9531 1.3096.6972.873 1.0459 2.0976 1.0459 3.6738 0 1.582-.3545 2.8125-1.0635 3.6914-.7031.8731-1.6816 1.3096-2.9355 1.3096zm-.211-8.7451c-.9844 0-1.6963.2724-2.1357.8173-.4395.545-.6651 1.4122-.6768 2.6016v.3252c0 1.3535.2256 2.3232.6768 2.9092.4511.5801 1.1748.8701 2.1709.8701.832 0 1.4824-.3369 1.9511-1.0107.4747-.6739.712-1.6026.712-2.7862 0-1.2011-.2373-2.1211-.712-2.7597-.4687-.6446-1.1308-.9668-1.9863-.9668zm15.082 3.7441c0 1.5703-.3955 2.7979-1.1865 3.6826-.791.8789-1.8838 1.3184-3.2783 1.3184-.8613 0-1.626-.2022-2.2939-.6065-.668-.4043-1.1836-.9843-1.5469-1.7402s-.5449-1.6406-.5449-2.6543c0-1.5703.3925-2.792 1.1777-3.665.7852-.8789 1.875-1.3184 3.2695-1.3184 1.3477 0 2.417.4482 3.208 1.3447.7969.8965 1.1953 2.1094 1.1953 3.6387zm-7.3388 0c0 1.2305.2461 2.168.7383 2.8125s1.2158.9668 2.1709.9668c.955 0 1.6787-.3193 2.1709-.958.498-.6445.747-1.585.747-2.8213 0-1.2246-.249-2.1533-.747-2.7861-.4922-.6387-1.2217-.958-2.1885-.958-.9551 0-1.6758.3134-2.1621.9404-.4864.6269-.7295 1.5615-.7295 2.8037zm18.2724 8.1563h-1.415v-3.3311h-6.7324v3.3311h-1.4063v-4.5879h.7559c.7851-1.0664 1.4004-2.3174 1.8457-3.753.4453-1.4355.6768-2.9765.6943-4.623h4.878v8.376h1.3798zm-2.7861-4.5879v-7.2246h-2.1621c-.0762 1.3007-.3281 2.6191-.7559 3.955-.4218 1.3301-.9492 2.42-1.582 3.2696zm13.0343-3.5684c0 1.5703-.396 2.7979-1.187 3.6826-.7906.8789-1.8834 1.3184-3.278 1.3184-.8613 0-1.6259-.2022-2.2939-.6065s-1.1836-.9843-1.5469-1.7402-.5449-1.6406-.5449-2.6543c0-1.5703.3926-2.792 1.1777-3.665.7852-.8789 1.875-1.3184 3.2696-1.3184 1.3476 0 2.417.4482 3.2084 1.3447.796.8965 1.195 2.1094 1.195 3.6387zm-7.339 0c0 1.2305.2461 2.168.7383 2.8125s1.2158.9668 2.1709.9668 1.6787-.3193 2.1709-.958c.498-.6445.7471-1.585.7471-2.8213 0-1.2246-.2491-2.1533-.7471-2.7861-.4922-.6387-1.2217-.958-2.1885-.958-.9551 0-1.6758.3134-2.1621.9404-.4863.6269-.7295 1.5615-.7295 2.8037zm17.086 4.8252h-1.477v-8.3848h-2.891c-.158 2.086-.378 3.7412-.659 4.9659-.282 1.2246-.648 2.121-1.099 2.6894-.445.5684-1.014.8525-1.705.8525-.317 0-.568-.0351-.756-.1054v-1.0811c.129.0352.275.0528.439.0528.674 0 1.21-.712 1.609-2.1358.398-1.4238.7-3.5859.905-6.4863h5.634zm7.497-9.6152h1.345v4.667l3.981-4.667h1.6l-4.026 4.667 4.369 4.9482h-1.688l-4.236-4.8779v4.8779h-1.345v-4.8779l-4.228 4.8779h-1.678l4.359-4.9482-4.016-4.667h1.599l3.964 4.667zm14.783 9.6152-.29-1.3711h-.07c-.481.6035-.961 1.0137-1.442 1.2305-.474.2109-1.069.3164-1.784.3164-.955 0-1.705-.2461-2.25-.7383-.539-.4922-.808-1.1924-.808-2.1006 0-1.9453 1.555-2.9648 4.667-3.0586l1.634-.0527v-.5977c0-.7558-.164-1.3125-.492-1.6699-.322-.3633-.841-.5449-1.555-.5449-.803 0-1.711.2461-2.725.7383l-.448-1.1162c.474-.2579.993-.46 1.555-.6065.569-.1465 1.137-.2197 1.706-.2197 1.148 0 1.998.2549 2.548.7646.557.5098.835 1.3272.835 2.4522v6.5742zm-3.296-1.0283c.909 0 1.62-.249 2.136-.7471.522-.498.782-1.1953.782-2.0918v-.8701l-1.459.0615c-1.16.041-1.998.2227-2.513.5449-.51.3164-.765.8116-.765 1.4854 0 .5273.158.9287.475 1.2041.322.2754.77.4131 1.344.4131zm19.793-3.7969c0 1.5762-.378 2.8037-1.133 3.6826-.75.8789-1.782 1.3184-3.094 1.3184-1.248 0-2.239-.3897-2.971-1.169-.732-.7851-1.14-1.9013-1.222-3.3486h-2.522v4.3418h-1.459v-9.6328h1.459v4.0342h2.54c.117-1.336.545-2.3702 1.283-3.1026.738-.7383 1.714-1.1074 2.927-1.1074 1.289 0 2.309.4482 3.059 1.3447.755.8907 1.133 2.1035 1.133 3.6387zm-6.908 0c0 1.2363.214 2.1768.642 2.8213.427.6387 1.113.958 2.056.958.926 0 1.606-.3105 2.039-.9316.44-.627.66-1.5762.66-2.8477 0-1.2305-.214-2.1621-.642-2.7949s-1.113-.9492-2.057-.9492c-.943 0-1.629.3164-2.056.9492-.428.6328-.642 1.5644-.642 2.7949zm16.647 3.5684h4.271v-8.3584h1.459v8.3584h1.38v4.5703h-1.477v-3.3135h-12.814v-9.6152h1.459v8.3584h4.263v-8.3584h1.459zm14.897 1.2568-.29-1.3711h-.07c-.481.6035-.961 1.0137-1.442 1.2305-.474.2109-1.069.3164-1.784.3164-.955 0-1.705-.2461-2.25-.7383-.539-.4922-.808-1.1924-.808-2.1006 0-1.9453 1.555-2.9648 4.667-3.0586l1.634-.0527v-.5977c0-.7558-.164-1.3125-.492-1.6699-.322-.3633-.841-.5449-1.556-.5449-.802 0-1.711.2461-2.724.7383l-.448-1.1162c.474-.2579.993-.46 1.555-.6065.569-.1465 1.137-.2197 1.705-.2197 1.149 0 1.998.2549 2.549.7646.557.5098.835 1.3272.835 2.4522v6.5742zm-3.296-1.0283c.908 0 1.62-.249 2.136-.7471.521-.498.782-1.1953.782-2.0918v-.8701l-1.459.0615c-1.16.041-1.998.2227-2.514.5449-.509.3164-.764.8116-.764 1.4854 0 .5273.158.9287.474 1.2041.323.2754.771.4131 1.345.4131zm7.875 1.0283h-1.705l2.769-4.0693c-.745-.1641-1.316-.4805-1.714-.9493-.393-.4746-.589-1.0693-.589-1.7841 0-.8789.296-1.5703.888-2.0743.591-.5039 1.418-.7558 2.478-.7558h4.289v9.6328h-1.459v-3.8496h-2.434zm.185-6.7852c0 1.1133.808 1.67 2.425 1.67h2.347v-3.252h-2.645c-1.418 0-2.127.5274-2.127 1.582zm13.183 6.961c-1.394 0-2.475-.4278-3.243-1.2832-.762-.8614-1.142-2.0772-1.142-3.6475 0-1.6113.386-2.8564 1.16-3.7353.779-.8789 1.886-1.3184 3.322-1.3184.463 0 .926.0498 1.389.1494s.826.2168 1.09.3516l-.449 1.2392c-.322-.1289-.674-.2343-1.054-.3164-.381-.0879-.718-.1318-1.011-.1318-1.957 0-2.936 1.248-2.936 3.7441 0 1.1836.238 2.0918.712 2.7246.481.6329 1.19.9493 2.127.9493.803 0 1.626-.1729 2.47-.5186v1.292c-.645.334-1.456.501-2.435.501zm5.212-.1758h-1.705l2.769-4.0693c-.744-.1641-1.316-.4805-1.714-.9493-.393-.4746-.589-1.0693-.589-1.7841 0-.8789.296-1.5703.888-2.0743.591-.5039 1.418-.7558 2.478-.7558h4.289v9.6328h-1.459v-3.8496h-2.434zm.185-6.7852c0 1.1133.808 1.67 2.426 1.67h2.346v-3.252h-2.645c-1.418 0-2.127.5274-2.127 1.582zm13.509 1.0108c0-2.1094.31-3.7529.931-4.9307.621-1.1836 1.606-1.9219 2.953-2.2148 1.676-.3574 3.153-.6475 4.43-.8701l.272 1.2832c-2.033.3398-3.486.6093-4.359.8086-.849.1933-1.488.6503-1.916 1.3711-.422.7207-.653 1.7021-.694 2.9443h.105c.364-.4922.832-.8789 1.406-1.1602.575-.2812 1.175-.4218 1.802-.4218 1.184 0 2.107.3837 2.769 1.1513s.993 1.8311.993 3.1905c0 1.5058-.384 2.6835-1.151 3.5332-.768.8437-1.837 1.2656-3.208 1.2656-1.354 0-2.414-.5186-3.182-1.5557s-1.151-2.5019-1.151-4.3945zm4.464 4.7285c1.788 0 2.681-1.1396 2.681-3.4189 0-2.1739-.811-3.2608-2.434-3.2608-.446 0-.876.0938-1.292.2813-.411.1816-.789.4248-1.134.7295-.34.3046-.604.6181-.791.9404 0 1.541.243 2.7158.729 3.5244.487.8027 1.234 1.2041 2.241 1.2041zm10.846 1.2217c-1.424 0-2.549-.4336-3.375-1.3008-.82-.8672-1.23-2.0713-1.23-3.6123 0-1.5527.381-2.7861 1.142-3.7002.768-.9141 1.796-1.3711 3.085-1.3711 1.207 0 2.162.3984 2.865 1.1953.704.791 1.055 1.8369 1.055 3.1377v.9229h-6.636c.03 1.1308.314 1.9892.853 2.5752.545.5859 1.309.8789 2.294.8789 1.037 0 2.062-.2168 3.076-.6504v1.3008c-.516.2226-1.005.3808-1.468.4746-.457.0996-1.01.1494-1.661.1494zm-.395-8.7627c-.774 0-1.392.2519-1.855.7558-.457.504-.726 1.2012-.808 2.0918h5.036c0-.9199-.205-1.623-.616-2.1093-.41-.4922-.996-.7383-1.757-.7383zm10.916 8.7627c-.627 0-1.202-.1143-1.723-.3428-.516-.2344-.949-.5918-1.301-1.0723h-.105c.07.5625.105 1.0957.105 1.5997v3.9638h-1.459v-13.957h1.187l.202 1.3183h.07c.375-.5273.812-.9082 1.31-1.1425.498-.2344 1.069-.3516 1.714-.3516 1.277 0 2.261.4365 2.953 1.3096.697.873 1.046 2.0976 1.046 3.6738 0 1.582-.355 2.8125-1.064 3.6914-.703.8731-1.681 1.3096-2.935 1.3096zm-.211-8.7451c-.985 0-1.697.2724-2.136.8173-.439.545-.665 1.4122-.677 2.6016v.3252c0 1.3535.226 2.3232.677 2.9092.451.5801 1.175.8701 2.171.8701.832 0 1.482-.3369 1.951-1.0107.475-.6739.712-1.6026.712-2.7862 0-1.2011-.237-2.1211-.712-2.7597-.469-.6446-1.131-.9668-1.986-.9668zm10.837 8.7451c-1.424 0-2.549-.4336-3.375-1.3008-.821-.8672-1.231-2.0713-1.231-3.6123 0-1.5527.381-2.7861 1.143-3.7002.767-.9141 1.796-1.3711 3.085-1.3711 1.207 0 2.162.3984 2.865 1.1953.703.791 1.055 1.8369 1.055 3.1377v.9229h-6.636c.029 1.1308.313 1.9892.852 2.5752.545.5859 1.31.8789 2.294.8789 1.037 0 2.063-.2168 3.077-.6504v1.3008c-.516.2226-1.005.3808-1.468.4746-.457.0996-1.011.1494-1.661.1494zm-.396-8.7627c-.773 0-1.391.2519-1.854.7558-.457.504-.727 1.2012-.809 2.0918h5.036c0-.9199-.205-1.623-.615-2.1093-.41-.4922-.996-.7383-1.758-.7383zm11.435 7.1807.272-.8174.378-1.0371 2.61-6.3545h1.855v9.6152h-1.292v-7.9541l-.176.5098-.51 1.3447-2.487 6.0996h-1.222l-2.487-6.1172c-.31-.7851-.524-1.3974-.642-1.8369v7.9541h-1.3v-9.6152h1.784l2.522 6.1084c.252.6445.484 1.3447.695 2.1006zm12.304 1.582c-1.423 0-2.548-.4336-3.375-1.3008-.82-.8672-1.23-2.0713-1.23-3.6123 0-1.5527.381-2.7861 1.142-3.7002.768-.9141 1.796-1.3711 3.085-1.3711 1.207 0 2.163.3984 2.866 1.1953.703.791 1.054 1.8369 1.054 3.1377v.9229h-6.635c.029 1.1308.313 1.9892.852 2.5752.545.5859 1.31.8789 2.294.8789 1.037 0 2.063-.2168 3.076-.6504v1.3008c-.515.2226-1.005.3808-1.467.4746-.458.0996-1.011.1494-1.662.1494zm-.395-8.7627c-.774 0-1.392.2519-1.855.7558-.457.504-.726 1.2012-.808 2.0918h5.036c0-.9199-.205-1.623-.615-2.1093-.41-.4922-.996-.7383-1.758-.7383zm7.892-1.0459v4.0342h5.397v-4.0342h1.459v9.6328h-1.459v-4.3418h-5.397v4.3418h-1.459v-9.6328zm11.409 0v4.0342h5.396v-4.0342h1.459v9.6328h-1.459v-4.3418h-5.396v4.3418h-1.459v-9.6328zm18.263 4.8076c0 1.5703-.395 2.7979-1.186 3.6826-.791.8789-1.884 1.3184-3.279 1.3184-.861 0-1.626-.2022-2.293-.6065-.668-.4043-1.184-.9843-1.547-1.7402-.364-.7559-.545-1.6406-.545-2.6543 0-1.5703.392-2.792 1.177-3.665.786-.8789 1.875-1.3184 3.27-1.3184 1.348 0 2.417.4482 3.208 1.3447.797.8965 1.195 2.1094 1.195 3.6387zm-7.339 0c0 1.2305.247 2.168.739 2.8125s1.216.9668 2.171.9668 1.678-.3193 2.171-.958c.498-.6445.747-1.585.747-2.8213 0-1.2246-.249-2.1533-.747-2.7861-.493-.6387-1.222-.958-2.189-.958-.955 0-1.676.3134-2.162.9404-.486.6269-.73 1.5615-.73 2.8037zm13.755 5.001c-1.394 0-2.475-.4278-3.243-1.2832-.762-.8614-1.142-2.0772-1.142-3.6475 0-1.6113.386-2.8564 1.16-3.7353.779-.8789 1.886-1.3184 3.322-1.3184.463 0 .926.0498 1.389.1494s.826.2168 1.09.3516l-.449 1.2392c-.322-.1289-.674-.2343-1.054-.3164-.381-.0879-.718-.1318-1.011-.1318-1.957 0-2.936 1.248-2.936 3.7441 0 1.1836.238 2.0918.712 2.7246.481.6329 1.19.9493 2.127.9493.803 0 1.626-.1729 2.47-.5186v1.292c-.645.334-1.456.501-2.435.501zm11.224-8.5606h-3.129v8.3848h-1.459v-8.3848h-3.094v-1.248h7.682zm3.366 2.7334h2.971c2.461 0 3.691.9053 3.691 2.7159 0 .9492-.322 1.6757-.967 2.1796-.638.5039-1.576.7559-2.812.7559h-4.342v-9.6328h1.459zm0 1.2569v3.1728h2.813c.773 0 1.365-.1347 1.775-.4043.41-.2695.615-.6767.615-1.2217 0-.5332-.19-.9228-.571-1.1689-.375-.252-.996-.3779-1.863-.3779zm15.24-5.2383v6.1084l-.061 1.5996-.026.501 5.211-8.209h1.82v9.6328h-1.363v-5.8887l.027-1.1601.044-1.1426-5.203 8.1914h-1.82v-9.6328zm17.218 9.6328h-1.476v-8.3848h-2.892c-.158 2.086-.378 3.7412-.659 4.9659-.281 1.2246-.648 2.121-1.099 2.6894-.445.5684-1.013.8525-1.705.8525-.316 0-.568-.0351-.756-.1054v-1.0811c.129.0352.276.0528.44.0528.674 0 1.21-.712 1.608-2.1358.399-1.4238.7-3.5859.905-6.4863h5.634zm4.474-9.6328v6.1084l-.062 1.5996-.026.501 5.212-8.209h1.819v9.6328h-1.362v-5.8887l.026-1.1601.044-1.1426-5.203 8.1914h-1.819v-9.6328zm19.107.0176h1.345v4.667l3.981-4.667h1.6l-4.025 4.667 4.368 4.9482h-1.688l-4.236-4.8779v4.8779h-1.345v-4.8779l-4.227 4.8779h-1.679l4.359-4.9482-4.016-4.667h1.599l3.964 4.667zm10.231-.0176v6.1084l-.062 1.5996-.026.501 5.212-8.209h1.819v9.6328h-1.362v-5.8887l.026-1.1601.044-1.1426-5.203 8.1914h-1.819v-9.6328zm17.85 2.417c0 .6269-.181 1.1045-.545 1.4326-.357.3223-.861.5391-1.511.6504v.0791c.82.1113 1.418.3516 1.793.7207.38.3691.571.8789.571 1.5293 0 .8965-.331 1.5879-.993 2.0742-.657.4863-1.617.7295-2.883.7295h-4.245v-9.6328h4.227c2.391 0 3.586.8057 3.586 2.417zm-1.151 4.3154c0-.5215-.199-.8994-.598-1.1338-.392-.2402-1.046-.3603-1.96-.3603h-2.645v3.1728h2.68c1.682 0 2.523-.5595 2.523-1.6787zm-.273-4.1748c0-.4687-.181-.7998-.544-.9932-.358-.1992-.903-.2988-1.635-.2988h-2.751v2.7158h2.47c.902 0 1.538-.1113 1.907-.334.369-.2226.553-.5859.553-1.0898zm5.318 1.4238h2.628c1.224 0 2.13.2285 2.716.6856.591.4512.887 1.1279.887 2.0303 0 .9667-.313 1.6992-.94 2.1972-.621.4922-1.538.7383-2.751.7383h-3.999v-9.6328h1.459zm9.307 5.6514h-1.459v-9.6328h1.459zm-9.307-4.3945v3.1728h2.47c1.546 0 2.32-.542 2.32-1.626 0-.539-.179-.9316-.536-1.1777-.358-.2461-.967-.3691-1.828-.3691zm16.479 4.5703c-1.423 0-2.548-.4336-3.375-1.3008-.82-.8672-1.23-2.0713-1.23-3.6123 0-1.5527.381-2.7861 1.142-3.7002.768-.9141 1.796-1.3711 3.085-1.3711 1.207 0 2.163.3984 2.866 1.1953.703.791 1.054 1.8369 1.054 3.1377v.9229h-6.635c.029 1.1308.313 1.9892.852 2.5752.545.5859 1.31.8789 2.294.8789 1.037 0 2.063-.2168 3.076-.6504v1.3008c-.515.2226-1.005.3808-1.468.4746-.457.0996-1.01.1494-1.661.1494zm-.395-8.7627c-.774 0-1.392.2519-1.855.7558-.457.504-.726 1.2012-.808 2.0918h5.036c0-.9199-.205-1.623-.615-2.1093-.411-.4922-.996-.7383-1.758-.7383zm15.592 8.7627c-.627 0-1.202-.1143-1.723-.3428-.516-.2344-.949-.5918-1.301-1.0723h-.105c.07.5625.105 1.0957.105 1.5997v3.9638h-1.459v-13.957h1.187l.202 1.3183h.07c.375-.5273.812-.9082 1.31-1.1425.498-.2344 1.069-.3516 1.714-.3516 1.277 0 2.261.4365 2.953 1.3096.697.873 1.046 2.0976 1.046 3.6738 0 1.582-.355 2.8125-1.064 3.6914-.703.8731-1.681 1.3096-2.935 1.3096zm-.211-8.7451c-.985 0-1.697.2724-2.136.8173-.44.545-.665 1.4122-.677 2.6016v.3252c0 1.3535.226 2.3232.677 2.9092.451.5801 1.175.8701 2.171.8701.832 0 1.482-.3369 1.951-1.0107.475-.6739.712-1.6026.712-2.7862 0-1.2011-.237-2.1211-.712-2.7597-.469-.6446-1.131-.9668-1.986-.9668zm15.082 3.7441c0 1.5703-.396 2.7979-1.187 3.6826-.791.8789-1.884 1.3184-3.278 1.3184-.861 0-1.626-.2022-2.294-.6065s-1.184-.9843-1.547-1.7402-.545-1.6406-.545-2.6543c0-1.5703.393-2.792 1.178-3.665.785-.8789 1.875-1.3184 3.269-1.3184 1.348 0 2.417.4482 3.208 1.3447.797.8965 1.196 2.1094 1.196 3.6387zm-7.339 0c0 1.2305.246 2.168.738 2.8125s1.216.9668 2.171.9668 1.679-.3193 2.171-.958c.498-.6445.747-1.585.747-2.8213 0-1.2246-.249-2.1533-.747-2.7861-.492-.6387-1.222-.958-2.189-.958-.955 0-1.675.3134-2.162.9404-.486.6269-.729 1.5615-.729 2.8037zm18.272 8.1563h-1.415v-3.3311h-6.732v3.3311h-1.406v-4.5879h.755c.786-1.0664 1.401-2.3174 1.846-3.753.445-1.4355.677-2.9765.695-4.623h4.877v8.376h1.38zm-2.786-4.5879v-7.2246h-2.162c-.076 1.3007-.328 2.6191-.756 3.955-.422 1.3301-.949 2.42-1.582 3.2696zm6.179-4.3946h2.628c1.224 0 2.13.2285 2.716.6856.591.4512.887 1.1279.887 2.0303 0 .9667-.313 1.6992-.94 2.1972-.621.4922-1.538.7383-2.751.7383h-3.999v-9.6328h1.459zm9.308 5.6514h-1.459v-9.6328h1.459zm-9.308-4.3945v3.1728h2.47c1.546 0 2.32-.542 2.32-1.626 0-.539-.179-.9316-.536-1.1777-.358-.2461-.967-.3691-1.828-.3691zm16.26-.5362c0-1.5527.225-3.0058.676-4.3593.457-1.3536 1.114-2.5401 1.969-3.5596h1.424c-.844 1.1308-1.479 2.373-1.907 3.7266-.422 1.3535-.633 2.7451-.633 4.1748 0 1.4062.217 2.7802.65 4.122.434 1.3418 1.058 2.5664 1.872 3.6739h-1.406c-.861-.9961-1.517-2.1592-1.969-3.4893-.451-1.3301-.676-2.7598-.676-4.2891zm6.732-4.0869c0 .9961.108 1.7432.325 2.2412.217.4981.569.7471 1.055.7471.961 0 1.441-.9961 1.441-2.9883 0-1.9804-.48-2.9707-1.441-2.9707-.486 0-.838.2461-1.055.7383s-.325 1.2363-.325 2.2324zm4.025 0c0 1.336-.225 2.3467-.676 3.0322-.446.6797-1.102 1.0196-1.969 1.0196-.82 0-1.459-.3487-1.916-1.0459-.451-.6973-.677-1.6992-.677-3.0059 0-1.3301.217-2.332.651-3.0058.439-.6739 1.086-1.0108 1.942-1.0108.85 0 1.503.3487 1.96 1.0459.457.6973.685 1.6875.685 2.9707zm3.709 5.1504c0 1.002.109 1.752.326 2.25.216.4922.571.7383 1.063.7383s.856-.2432 1.09-.7295c.234-.4922.352-1.2451.352-2.2588 0-1.0019-.118-1.7432-.352-2.2236-.234-.4863-.598-.7295-1.09-.7295s-.847.2432-1.063.7295c-.217.4804-.326 1.2217-.326 2.2236zm4.035 0c0 1.3301-.226 2.3379-.677 3.0234-.445.6797-1.102 1.0196-1.969 1.0196-.832 0-1.474-.3487-1.925-1.0459-.445-.6973-.668-1.6963-.668-2.9971 0-1.3301.217-2.332.651-3.0058.439-.6739 1.087-1.0108 1.942-1.0108.832 0 1.48.3457 1.943 1.0371.468.6856.703 1.6787.703 2.9795zm-2.268-8.9824-7.128 12.8496h-1.292l7.128-12.8496zm7.796 7.9189c0 1.5411-.229 2.9766-.686 4.3067-.451 1.3301-1.104 2.4873-1.96 3.4717h-1.406c.815-1.1016 1.439-2.3233 1.872-3.6651.434-1.3476.651-2.7246.651-4.1308 0-1.4297-.214-2.8213-.642-4.1748-.422-1.3536-1.055-2.5958-1.898-3.7266h1.423c.862 1.0254 1.518 2.2178 1.969 3.5771.451 1.3536.677 2.8008.677 4.3418z" fill="#fff"/><path d="m303.688 495-.829-2.719h-4.164l-.828 2.719h-2.609l4.031-11.469h2.961l4.047 11.469zm-1.407-4.75c-.765-2.464-1.198-3.857-1.297-4.18-.093-.323-.161-.578-.203-.765-.172.666-.664 2.315-1.476 4.945zm7.735-.031h-3.024v-1.711h3.024v-3.047h1.711v3.047h3.023v1.711h-3.023v3.008h-1.711zm13.859 4.781-.828-2.719h-4.164l-.828 2.719h-2.61l4.032-11.469h2.961l4.046 11.469zm-1.406-4.75c-.766-2.464-1.198-3.857-1.297-4.18-.094-.323-.162-.578-.203-.765-.172.666-.664 2.315-1.477 4.945zm11.976-6.672h2.446l-3.883 11.422h-2.641l-3.875-11.422h2.446l2.148 6.797c.12.401.242.87.367 1.406.13.531.211.901.242 1.11.058-.48.253-1.318.586-2.516zm13.367 5.602c0 1.88-.536 3.32-1.609 4.32-1.068 1-2.612 1.5-4.633 1.5h-3.234v-11.422h3.586c1.864 0 3.312.492 4.344 1.477 1.031.984 1.546 2.359 1.546 4.125zm-2.515.062c0-2.453-1.083-3.68-3.25-3.68h-1.289v7.438h1.039c2.333 0 3.5-1.253 3.5-3.758z" fill="#393939"/><path d="m292.236 143.752c1.914 0 3.455.437 4.621 1.312 1.176.866 1.764 2.038 1.764 3.514 0 1.021-.282 1.932-.848 2.734-.565.793-1.476 1.504-2.734 2.133 1.495.802 2.566 1.641 3.213 2.516.656.866.984 1.818.984 2.857 0 1.641-.642 2.963-1.927 3.965-1.286.994-2.976 1.49-5.073 1.49-2.187 0-3.905-.464-5.154-1.394s-1.873-2.247-1.873-3.951c0-1.14.301-2.151.902-3.035.611-.885 1.586-1.664 2.926-2.338-1.139-.72-1.96-1.491-2.461-2.311s-.752-1.718-.752-2.693c0-1.431.593-2.589 1.778-3.473 1.184-.884 2.729-1.326 4.634-1.326zm-3.117 14.93c0 .783.274 1.394.82 1.832.547.437 1.295.656 2.243.656 1.048 0 1.832-.223 2.351-.67.52-.456.779-1.053.779-1.791 0-.611-.259-1.18-.779-1.709-.51-.538-1.344-1.107-2.502-1.709-1.941.893-2.912 2.023-2.912 3.391zm3.09-11.84c-.72 0-1.303.187-1.75.56-.438.365-.656.857-.656 1.477 0 .547.173 1.039.519 1.476.356.429.994.871 1.914 1.327.894-.42 1.518-.848 1.873-1.286.356-.437.534-.943.534-1.517 0-.629-.228-1.126-.684-1.49-.456-.365-1.039-.547-1.75-.547zm23.105 17.158h-13.972v-2.939l5.017-5.073c1.486-1.522 2.457-2.575 2.912-3.158.456-.592.784-1.139.985-1.641.2-.501.301-1.02.301-1.558 0-.802-.224-1.399-.67-1.791-.438-.392-1.026-.588-1.764-.588-.775 0-1.527.178-2.256.533-.729.356-1.49.861-2.283 1.518l-2.297-2.721c.984-.839 1.8-1.431 2.447-1.777.648-.347 1.354-.611 2.12-.793.765-.192 1.622-.287 2.57-.287 1.249 0 2.351.227 3.308.683s1.7 1.094 2.229 1.914c.529.821.793 1.759.793 2.817 0 .92-.164 1.786-.492 2.597-.319.802-.821 1.627-1.504 2.475-.675.848-1.869 2.055-3.582 3.623l-2.571 2.42v.191h8.709zm12.332-19.988-7.451 19.988h-3.787l7.451-19.988zm8.149-.26c1.914 0 3.454.437 4.621 1.312 1.176.866 1.764 2.038 1.764 3.514 0 1.021-.283 1.932-.848 2.734-.565.793-1.477 1.504-2.734 2.133 1.494.802 2.565 1.641 3.213 2.516.656.866.984 1.818.984 2.857 0 1.641-.643 2.963-1.928 3.965-1.285.994-2.976 1.49-5.072 1.49-2.188 0-3.906-.464-5.154-1.394-1.249-.93-1.873-2.247-1.873-3.951 0-1.14.3-2.151.902-3.035.611-.885 1.586-1.664 2.926-2.338-1.14-.72-1.96-1.491-2.461-2.311-.502-.82-.752-1.718-.752-2.693 0-1.431.592-2.589 1.777-3.473s2.73-1.326 4.635-1.326zm-3.117 14.93c0 .783.273 1.394.82 1.832.547.437 1.294.656 2.242.656 1.048 0 1.832-.223 2.352-.67.519-.456.779-1.053.779-1.791 0-.611-.26-1.18-.779-1.709-.511-.538-1.345-1.107-2.502-1.709-1.942.893-2.912 2.023-2.912 3.391zm3.09-11.84c-.72 0-1.304.187-1.75.56-.438.365-.657.857-.657 1.477 0 .547.174 1.039.52 1.476.355.429.993.871 1.914 1.327.893-.42 1.517-.848 1.873-1.286.355-.437.533-.943.533-1.517 0-.629-.228-1.126-.683-1.49-.456-.365-1.039-.547-1.75-.547zm23.023 5.701c0 3.937-.829 6.877-2.488 8.818-1.659 1.942-4.17 2.912-7.533 2.912-1.185 0-2.083-.063-2.694-.191v-3.391c.766.192 1.568.288 2.406.288 1.413 0 2.575-.206 3.487-.616.911-.419 1.608-1.071 2.092-1.955.483-.893.761-2.119.834-3.678h-.165c-.528.857-1.139 1.459-1.832 1.805-.692.347-1.558.52-2.597.52-1.741 0-3.113-.556-4.115-1.668-1.003-1.121-1.504-2.675-1.504-4.662 0-2.142.606-3.833 1.818-5.073 1.221-1.248 2.88-1.873 4.977-1.873 1.476 0 2.766.347 3.869 1.039 1.112.693 1.964 1.7 2.556 3.022.593 1.312.889 2.88.889 4.703zm-7.232-5.373c-.875 0-1.559.301-2.051.902-.492.602-.738 1.468-.738 2.598 0 .966.223 1.732.669 2.297.447.565 1.126.847 2.038.847.856 0 1.59-.278 2.201-.834.61-.565.916-1.212.916-1.941 0-1.085-.287-2.001-.862-2.748-.565-.747-1.289-1.121-2.173-1.121zm-50.692 33.447c0-1.38.201-2.672.602-3.875.406-1.203.989-2.258 1.75-3.164h1.953c-.734 1.005-1.289 2.11-1.664 3.313s-.563 2.44-.563 3.711c0 1.276.19 2.51.571 3.703.385 1.187.932 2.263 1.64 3.226h-1.937c-.766-.885-1.349-1.919-1.75-3.101-.401-1.183-.602-2.453-.602-3.813zm13.36-2.164c0 2.25-.474 3.93-1.422 5.039-.948 1.11-2.383 1.664-4.305 1.664-.677 0-1.19-.036-1.539-.109v-1.938c.437.11.896.164 1.375.164.807 0 1.471-.117 1.992-.351.521-.24.919-.612 1.195-1.117.276-.511.435-1.211.477-2.102h-.094c-.302.49-.651.833-1.047 1.031-.395.198-.89.297-1.484.297-.995 0-1.779-.317-2.352-.953-.572-.64-.859-1.529-.859-2.664 0-1.224.346-2.19 1.039-2.898.698-.714 1.646-1.071 2.844-1.071.844 0 1.581.198 2.211.594.635.396 1.122.971 1.461 1.727.338.75.508 1.645.508 2.687zm-4.133-3.07c-.5 0-.891.172-1.172.515-.281.344-.422.839-.422 1.485 0 .552.128.989.383 1.312s.643.485 1.164.485c.489 0 .909-.159 1.258-.477.349-.323.523-.693.523-1.109 0-.62-.164-1.143-.492-1.571-.323-.427-.737-.64-1.242-.64zm13.32 9.617h-7.984v-1.68l2.867-2.898c.849-.87 1.404-1.471 1.664-1.805.26-.338.448-.651.562-.937.115-.287.172-.584.172-.891 0-.458-.127-.799-.383-1.023-.25-.224-.585-.336-1.007-.336-.443 0-.873.101-1.289.304-.417.204-.852.493-1.305.868l-1.313-1.555c.563-.479 1.029-.818 1.399-1.016s.773-.349 1.211-.453c.437-.109.927-.164 1.469-.164.713 0 1.343.13 1.89.391.547.26.972.625 1.274 1.093.302.469.453 1.006.453 1.61 0 .526-.094 1.021-.282 1.484-.182.459-.468.93-.859 1.414-.385.485-1.068 1.175-2.047 2.071l-1.468 1.382v.11h4.976zm2.977-8c0 .661.057 1.156.171 1.484.12.323.31.485.571.485.5 0 .75-.657.75-1.969 0-1.302-.25-1.953-.75-1.953-.261 0-.451.161-.571.484-.114.318-.171.808-.171 1.469zm3.461-.016c0 1.198-.232 2.099-.696 2.704-.463.598-1.143.898-2.039.898-.859 0-1.523-.307-1.992-.922-.469-.62-.703-1.513-.703-2.68 0-2.38.898-3.57 2.695-3.57.88 0 1.555.31 2.024.93.474.614.711 1.495.711 2.64zm5.375-3.406-6.336 11.422h-1.875l6.336-11.422zm-.836 7.984c0 .662.057 1.157.171 1.485.12.323.31.484.571.484.5 0 .75-.656.75-1.969 0-1.302-.25-1.953-.75-1.953-.261 0-.451.162-.571.485-.114.317-.171.807-.171 1.468zm3.461-.015c0 1.193-.232 2.091-.696 2.695-.463.599-1.143.899-2.039.899-.859 0-1.523-.308-1.992-.922-.469-.62-.703-1.511-.703-2.672 0-2.38.898-3.57 2.695-3.57.88 0 1.555.309 2.024.929.474.615.711 1.495.711 2.641zm5.281-.93c0 1.37-.203 2.646-.61 3.828-.401 1.183-.981 2.211-1.742 3.086h-1.937c.703-.958 1.247-2.031 1.633-3.219.385-1.192.578-2.429.578-3.71 0-1.271-.188-2.508-.563-3.711s-.93-2.308-1.664-3.313h1.953c.766.912 1.349 1.971 1.75 3.18.401 1.203.602 2.489.602 3.859z" fill="#fff"/><path d="m567.619 182.23c1.932 0 3.468.543 4.608 1.627 1.148 1.085 1.722 2.571 1.722 4.457 0 2.234-.688 3.952-2.064 5.155-1.377 1.203-3.345 1.804-5.906 1.804-2.224 0-4.02-.36-5.387-1.08v-3.65c.72.383 1.558.697 2.515.943.957.237 1.864.356 2.721.356 2.58 0 3.869-1.057 3.869-3.172 0-2.014-1.335-3.022-4.006-3.022-.483 0-1.016.051-1.599.151-.584.091-1.057.191-1.422.301l-1.682-.903.752-10.185h10.842v3.582h-7.137l-.369 3.924.479-.096c.556-.128 1.244-.192 2.064-.192zm22.695 12.77h-13.972v-2.939l5.017-5.073c1.486-1.522 2.457-2.575 2.912-3.158.456-.592.784-1.139.985-1.641.2-.501.301-1.02.301-1.558 0-.802-.224-1.399-.67-1.791-.438-.392-1.026-.588-1.764-.588-.775 0-1.527.178-2.256.533-.729.356-1.49.861-2.283 1.518l-2.297-2.721c.984-.839 1.8-1.431 2.447-1.777.648-.347 1.354-.611 2.12-.793.765-.192 1.622-.287 2.57-.287 1.249 0 2.351.227 3.308.683s1.7 1.094 2.229 1.914c.529.821.793 1.759.793 2.817 0 .92-.164 1.786-.492 2.597-.319.802-.821 1.627-1.504 2.475-.675.848-1.869 2.055-3.582 3.623l-2.571 2.42v.191h8.709zm12.332-19.988-7.451 19.988h-3.787l7.451-19.988zm1.122 11.498c0-3.956.834-6.9 2.502-8.832 1.677-1.933 4.183-2.899 7.519-2.899 1.139 0 2.033.069 2.68.205v3.377c-.811-.182-1.614-.273-2.407-.273-1.449 0-2.634.219-3.554.656-.912.438-1.595 1.085-2.051 1.942-.456.856-.725 2.073-.807 3.65h.178c.902-1.55 2.347-2.324 4.334-2.324 1.787 0 3.186.56 4.197 1.681 1.012 1.121 1.518 2.671 1.518 4.649 0 2.133-.602 3.823-1.805 5.072-1.203 1.24-2.871 1.859-5.004 1.859-1.476 0-2.766-.341-3.869-1.025-1.094-.684-1.941-1.682-2.543-2.994-.592-1.313-.888-2.894-.888-4.744zm7.218 5.386c.903 0 1.595-.3 2.078-.902.484-.611.725-1.476.725-2.598 0-.975-.228-1.74-.684-2.296-.446-.565-1.125-.848-2.037-.848-.856 0-1.59.278-2.201.834-.601.556-.902 1.203-.902 1.941 0 1.085.282 2.001.847 2.748.575.748 1.299 1.121 2.174 1.121zm19.36 3.104h-4.225v-11.566l.041-1.901.068-2.078c-.701.702-1.189 1.162-1.462 1.381l-2.297 1.846-2.037-2.543 6.439-5.127h3.473zm-54.479 16.617c0-1.38.201-2.672.602-3.875.406-1.203.989-2.258 1.75-3.164h1.953c-.734 1.005-1.289 2.11-1.664 3.313s-.563 2.44-.563 3.711c0 1.276.19 2.51.571 3.703.385 1.187.932 2.263 1.64 3.226h-1.937c-.766-.885-1.349-1.919-1.75-3.101-.401-1.183-.602-2.453-.602-3.813zm9.36-7.187c1.093 0 1.974.25 2.64.75.672.494 1.008 1.164 1.008 2.008 0 .583-.161 1.104-.484 1.562-.323.453-.844.859-1.563 1.219.854.458 1.466.937 1.836 1.437.375.495.563 1.039.563 1.633 0 .938-.368 1.693-1.102 2.266-.734.567-1.701.851-2.898.851-1.25 0-2.232-.265-2.946-.797-.713-.531-1.07-1.283-1.07-2.257 0-.651.172-1.23.516-1.735.349-.505.906-.95 1.671-1.336-.651-.411-1.119-.851-1.406-1.32-.286-.469-.43-.982-.43-1.539 0-.818.339-1.479 1.016-1.984.677-.506 1.56-.758 2.649-.758zm-1.782 8.531c0 .448.157.797.469 1.047.313.25.74.375 1.281.375.599 0 1.047-.128 1.344-.383.297-.26.445-.602.445-1.023 0-.349-.148-.675-.445-.977-.292-.307-.768-.633-1.43-.977-1.109.511-1.664 1.157-1.664 1.938zm1.766-6.766c-.412 0-.745.107-1 .321-.25.208-.375.489-.375.843 0 .313.099.594.297.844.203.245.568.498 1.094.758.51-.24.867-.484 1.07-.734s.305-.539.305-.868c0-.359-.131-.643-.391-.851-.26-.209-.594-.313-1-.313zm9.375 2.508c1.104 0 1.982.31 2.633.93.656.62.984 1.469.984 2.547 0 1.276-.393 2.258-1.18 2.945-.786.687-1.911 1.031-3.375 1.031-1.27 0-2.296-.205-3.078-.617v-2.086c.412.219.891.399 1.438.539.547.136 1.065.203 1.554.203 1.474 0 2.211-.604 2.211-1.812 0-1.151-.763-1.727-2.289-1.727-.276 0-.58.029-.914.086-.333.052-.604.11-.812.172l-.961-.516.43-5.82h6.195v2.047h-4.078l-.211 2.242.273-.055c.318-.072.711-.109 1.18-.109zm6.805-.703c0 .661.057 1.156.171 1.484.12.323.31.485.571.485.5 0 .75-.657.75-1.969 0-1.302-.25-1.953-.75-1.953-.261 0-.451.161-.571.484-.114.318-.171.808-.171 1.469zm3.461-.016c0 1.198-.232 2.099-.696 2.704-.463.598-1.143.898-2.039.898-.859 0-1.523-.307-1.992-.922-.469-.62-.703-1.513-.703-2.68 0-2.38.898-3.57 2.695-3.57.88 0 1.555.31 2.024.93.474.614.711 1.495.711 2.64zm5.375-3.406-6.336 11.422h-1.875l6.336-11.422zm-.836 7.984c0 .662.057 1.157.171 1.485.12.323.31.484.571.484.5 0 .75-.656.75-1.969 0-1.302-.25-1.953-.75-1.953-.261 0-.451.162-.571.485-.114.317-.171.807-.171 1.468zm3.461-.015c0 1.193-.232 2.091-.696 2.695-.463.599-1.143.899-2.039.899-.859 0-1.523-.308-1.992-.922-.469-.62-.703-1.511-.703-2.672 0-2.38.898-3.57 2.695-3.57.88 0 1.555.309 2.024.929.474.615.711 1.495.711 2.641zm5.281-.93c0 1.37-.203 2.646-.61 3.828-.401 1.183-.981 2.211-1.742 3.086h-1.937c.703-.958 1.247-2.031 1.633-3.219.385-1.192.578-2.429.578-3.71 0-1.271-.188-2.508-.563-3.711s-.93-2.308-1.664-3.313h1.953c.766.912 1.349 1.971 1.75 3.18.401 1.203.602 2.489.602 3.859z" fill="#fff"/><path d="m576.406 495-.828-2.719h-4.164l-.828 2.719h-2.609l4.031-11.469h2.961l4.047 11.469zm-1.406-4.75c-.766-2.464-1.198-3.857-1.297-4.18-.094-.323-.161-.578-.203-.765-.172.666-.664 2.315-1.477 4.945zm5.461-6.672h3.555c1.619 0 2.794.232 3.523.695.734.459 1.102 1.191 1.102 2.196 0 .682-.162 1.242-.485 1.679-.317.438-.742.701-1.273.79v.078c.724.161 1.245.463 1.562.906.323.443.485 1.031.485 1.766 0 1.041-.378 1.854-1.133 2.437-.75.583-1.771.875-3.063.875h-4.273zm2.422 4.524h1.406c.656 0 1.13-.102 1.422-.305.297-.203.445-.539.445-1.008 0-.437-.161-.75-.484-.937-.318-.193-.823-.29-1.516-.29h-1.273zm0 1.921v2.977h1.578c.667 0 1.159-.128 1.477-.383.317-.255.476-.646.476-1.172 0-.948-.677-1.422-2.031-1.422zm14.844-6.445h2.445l-3.883 11.422h-2.641l-3.875-11.422h2.446l2.148 6.797c.12.401.242.87.367 1.406.131.531.211.901.243 1.11.057-.48.252-1.318.585-2.516zm13.367 5.602c0 1.88-.537 3.32-1.61 4.32-1.067 1-2.612 1.5-4.632 1.5h-3.235v-11.422h3.586c1.865 0 3.313.492 4.344 1.477 1.031.984 1.547 2.359 1.547 4.125zm-2.516.062c0-2.453-1.083-3.68-3.25-3.68h-1.289v7.438h1.039c2.333 0 3.5-1.253 3.5-3.758z" fill="#393939"/></svg>