<svg width="21" height="21" viewBox="0 0 21 21" fill="none" xmlns="http://www.w3.org/2000/svg">
<path d="M0.875001 8.75C1.358 8.75 1.75 8.358 1.75 7.875L1.75 1.75L19.25 1.75L19.25 19.25L13.125 19.25C12.642 19.25 12.25 19.642 12.25 20.125C12.25 20.608 12.642 21 13.125 21L20.125 21C20.608 21 21 20.608 21 20.125L21 0.875C21 0.392 20.608 -3.42697e-08 20.125 -7.64949e-08L0.875002 -1.75938e-06C0.392002 -1.80161e-06 1.80161e-06 0.391998 1.75938e-06 0.874998L1.14742e-06 7.875C1.1052e-06 8.358 0.392001 8.75 0.875001 8.75Z" fill="white"/>
<path d="M12.6853 9.04075C12.5488 8.71525 12.2303 8.50175 11.8768 8.5H4.87675C4.39375 8.5 4.00175 8.892 4.00175 9.375C4.00175 9.858 4.39375 10.25 4.87675 10.25H9.7645L0.75725 19.2555C0.41425 19.5985 0.41425 20.1515 0.75725 20.4945C1.10025 20.8375 1.65325 20.8375 1.99625 20.4945L11.0018 11.4873V16.375C11.0018 16.858 11.3938 17.25 11.8768 17.25C12.3598 17.25 12.7518 16.858 12.7518 16.375V9.375C12.7518 9.2595 12.729 9.1475 12.6853 9.04075Z" fill="white"/>
</svg>
