<svg width="19" height="20" viewBox="0 0 19 20" fill="none" xmlns="http://www.w3.org/2000/svg">
<path d="M1.79124 18.6161C1.53535 19.0639 1.02356 19.2558 0.57575 19.0639C0.127938 18.808 -0.0639809 18.2962 0.127938 17.8484C1.85521 14.2659 5.50168 11.8989 9.53198 11.8989C13.4983 11.8989 17.1448 14.2659 18.8721 17.8484C19.1279 18.2962 18.936 18.808 18.4882 19.0639C18.0404 19.2558 17.4646 19.0639 17.2727 18.6161C15.8653 15.6094 12.8586 13.6902 9.53198 13.6902C6.20538 13.6902 3.19865 15.6094 1.79124 18.6161Z" fill="#EF7622"/>
<path d="M9.53196 0C12.5387 0 15.0336 2.49495 15.0336 5.50168C15.0336 8.50841 12.5387 11.0034 9.53196 11.0034C6.46125 11.0034 4.03027 8.50841 4.03027 5.50168C4.03027 2.49495 6.46125 0 9.53196 0ZM9.53196 1.79124C7.48482 1.79124 5.82152 3.45454 5.82152 5.50168C5.82152 7.54882 7.48482 9.21212 9.53196 9.21212C11.5791 9.21212 13.2424 7.54882 13.2424 5.50168C13.2424 3.45454 11.5791 1.79124 9.53196 1.79124Z" fill="#EF7622"/>
</svg>
