<svg width="21" height="36" viewBox="0 0 21 36" fill="none" xmlns="http://www.w3.org/2000/svg">
<path d="M6.75781 24.5938V23.0938C6.75781 21.375 7.07031 19.9453 7.69531 18.8047C8.32031 17.6641 9.41406 16.4844 10.9766 15.2656C12.8359 13.7969 14.0312 12.6562 14.5625 11.8438C15.1094 11.0312 15.3828 10.0625 15.3828 8.9375C15.3828 7.625 14.9453 6.61719 14.0703 5.91406C13.1953 5.21094 11.9375 4.85938 10.2969 4.85938C8.8125 4.85938 7.4375 5.07031 6.17188 5.49219C4.90625 5.91406 3.67188 6.42188 2.46875 7.01562L0.5 2.89062C3.67187 1.125 7.07031 0.242188 10.6953 0.242188C13.7578 0.242188 16.1875 0.992188 17.9844 2.49219C19.7812 3.99219 20.6797 6.0625 20.6797 8.70312C20.6797 9.875 20.5078 10.9219 20.1641 11.8438C19.8203 12.75 19.2969 13.6172 18.5938 14.4453C17.9062 15.2734 16.7109 16.3516 15.0078 17.6797C13.5547 18.8203 12.5781 19.7656 12.0781 20.5156C11.5938 21.2656 11.3516 22.2734 11.3516 23.5391V24.5938H6.75781ZM5.79688 32.0703C5.79688 29.7109 6.94531 28.5312 9.24219 28.5312C10.3672 28.5312 11.2266 28.8438 11.8203 29.4688C12.4141 30.0781 12.7109 30.9453 12.7109 32.0703C12.7109 33.1797 12.4062 34.0625 11.7969 34.7188C11.2031 35.3594 10.3516 35.6797 9.24219 35.6797C8.13281 35.6797 7.28125 35.3672 6.6875 34.7422C6.09375 34.1016 5.79688 33.2109 5.79688 32.0703Z" fill="white"/>
</svg>
