<svg width="212" height="58" viewBox="0 0 212 58" fill="none" xmlns="http://www.w3.org/2000/svg">
<path d="M79.9778 19.6127C77.9378 19.6127 76.3592 20.3794 75.2392 21.9127C74.1205 23.4447 73.5618 25.5807 73.5618 28.3194C73.5618 34.0194 75.7005 36.8687 79.9778 36.8687C81.7725 36.8687 83.9472 36.4207 86.4992 35.5234V40.0687C84.4005 40.9434 82.0592 41.3807 79.4712 41.3807C75.7525 41.3807 72.9085 40.2527 70.9392 37.9981C68.9685 35.7421 67.9832 32.5047 67.9832 28.2847C67.9832 25.6274 68.4672 23.2994 69.4352 21.3007C70.4018 19.3007 71.7925 17.7687 73.6045 16.7021C75.4178 15.6354 77.5418 15.1021 79.9778 15.1021C82.4605 15.1021 84.9538 15.7021 87.4605 16.9034L85.7125 21.3087C84.7565 20.8541 83.7952 20.4581 82.8272 20.1194C81.8605 19.7821 80.9098 19.6127 79.9778 19.6127Z" fill="#015CAC"/>
<path d="M104.437 30.4005C102.724 24.8871 101.76 21.7698 101.544 21.0458C101.328 20.3245 101.173 19.7525 101.08 19.3338C100.696 20.8258 99.5947 24.5138 97.7761 30.4005H104.437ZM107.584 41.0311L105.732 34.9458H96.4121L94.5587 41.0311H88.7188L97.7414 15.3645H104.368L113.424 41.0311H107.584Z" fill="#015CAC"/>
<path d="M139.318 41.0305H132.429L121.31 21.6931H121.152C121.374 25.1091 121.485 27.5451 121.485 29.0025V41.0305H116.641V15.4691H123.478L134.58 34.6145H134.702C134.528 31.2918 134.44 28.9438 134.44 27.5678V15.4691H139.318V41.0305Z" fill="#015CAC"/>
<path d="M156.61 19.6127C154.57 19.6127 152.991 20.3794 151.871 21.9127C150.753 23.4447 150.194 25.5807 150.194 28.3194C150.194 34.0194 152.333 36.8687 156.61 36.8687C158.405 36.8687 160.579 36.4207 163.131 35.5234V40.0687C161.033 40.9434 158.69 41.3807 156.103 41.3807C152.385 41.3807 149.541 40.2527 147.57 37.9981C145.601 35.7421 144.615 32.5047 144.615 28.2847C144.615 25.6274 145.099 23.2994 146.067 21.3007C147.034 19.3007 148.425 17.7687 150.237 16.7021C152.049 15.6354 154.173 15.1021 156.61 15.1021C159.093 15.1021 161.586 15.7021 164.093 16.9034L162.345 21.3087C161.389 20.8541 160.427 20.4581 159.459 20.1194C158.493 19.7821 157.542 19.6127 156.61 19.6127Z" fill="#015CAC"/>
<path d="M183.29 41.0305H168.569V15.4691H183.29V19.9105H173.989V25.5225H182.644V29.9638H173.989V36.5545H183.29V41.0305Z" fill="#015CAC"/>
<path d="M188.623 41.0305V15.4691H194.043V36.5545H200.37L203.098 41.0305H188.623Z" fill="#015CAC"/>
<path opacity="0.5" d="M196.266 19.9091H198.315C200.064 19.9091 201.355 20.1665 202.188 20.6785C203.022 21.1918 203.438 22.0545 203.438 23.2665C203.438 24.4905 203.03 25.3878 202.214 25.9585C201.399 26.5305 199.556 26.8158 199.556 26.8158V31.2211C201.098 33.7198 204.144 38.5838 205.727 41.0305H211.674C210.507 39.3518 208.002 35.6385 204.155 29.8931C205.671 29.2291 206.842 28.3105 207.67 27.1385C208.496 25.9678 208.911 24.6305 208.911 23.1265C208.911 20.5505 208.076 18.6305 206.411 17.3651C204.743 16.1011 202.174 15.4691 198.7 15.4691H196.266V19.9091Z" fill="#009CB3"/>
<path opacity="0.5" d="M5.08527 14.9934L15.6879 4.39074L27.1466 15.8507L16.5453 26.4521L5.08527 14.9934ZM27.1466 41.5681L15.6879 53.0267L5.08527 42.4254L16.5453 30.9654L27.1466 41.5681ZM42.2613 30.9654L53.7213 42.4254L43.1186 53.0267L31.6599 41.5681L42.2613 30.9654ZM29.4039 18.1067L40.0053 28.7094L29.4039 39.3107L18.8013 28.7094L29.4039 18.1067ZM39.5173 3.47874L29.4039 13.5934L19.2893 3.47874H39.5173ZM43.1186 4.39074L53.7213 14.9934L42.2613 26.4521L31.6599 15.8507L43.1186 4.39074ZM44.5186 28.7094L57.5346 15.6934C57.9213 15.3067 57.9213 14.6801 57.5346 14.2934L43.8186 0.577406C43.6333 0.392073 43.3813 0.288074 43.1186 0.288074H15.6879C15.4253 0.288074 15.1733 0.392073 14.9879 0.577406L1.27193 14.2934C0.885267 14.6801 0.885267 15.3067 1.27193 15.6934L14.2879 28.7094L1.27193 41.7254C0.885267 42.1121 0.885267 42.7387 1.27193 43.1254L14.9879 56.8414C15.3746 57.2267 16.0013 57.2267 16.3879 56.8414L29.4039 43.8241L42.4186 56.8414C42.6133 57.0334 42.8653 57.1307 43.1186 57.1307C43.3719 57.1307 43.6253 57.0334 43.8186 56.8414L57.5346 43.1254C57.9213 42.7387 57.9213 42.1121 57.5346 41.7254L44.5186 28.7094Z" fill="#009CB3"/>
<path d="M43.1192 53.0273L31.6605 41.5673L42.2619 30.966L53.7205 42.4247L43.1192 53.0273ZM18.8019 28.7087L29.4032 18.1073L40.0059 28.7087L29.4032 39.3113L18.8019 28.7087ZM15.6872 53.0273L5.08587 42.4247L16.5445 30.966L27.1472 41.5673L15.6872 53.0273ZM5.08587 14.994L15.6872 4.39135L27.1472 15.8514L16.5445 26.4527L5.08587 14.994ZM43.1192 4.39135L53.7205 14.994L42.2619 26.4527L31.6605 15.8514L43.1192 4.39135ZM44.5192 28.7087L57.5352 15.694C57.9219 15.306 57.9219 14.6807 57.5352 14.294L43.8192 0.578016C43.6339 0.391351 43.3819 0.287352 43.1192 0.287352C43.1192 0.287352 42.2805 1.05002 39.5179 3.47935L29.4032 13.594L19.2885 3.47935C19.2885 3.47935 15.9952 0.287352 15.6872 0.287352C15.4245 0.287352 15.1739 0.391351 14.9872 0.578016L1.2712 14.294C0.884535 14.6807 0.884535 15.306 1.2712 15.694L14.2872 28.7087L1.2712 41.7247C0.884535 42.1113 0.884535 42.738 1.2712 43.1247L14.9872 56.8407C15.3739 57.226 16.0005 57.226 16.3872 56.8407L29.4032 43.8247L42.4192 56.8407C42.6125 57.034 42.8659 57.1313 43.1192 57.1313C43.3725 57.1313 43.6259 57.034 43.8192 56.8407L57.5352 43.1247C57.9219 42.738 57.9219 42.1113 57.5352 41.7247L44.5192 28.7087Z" fill="#015CAC"/>
</svg>
