<svg width="21" height="21" viewBox="0 0 21 21" fill="none" xmlns="http://www.w3.org/2000/svg">
<path d="M20.3226 10.1613C20.3226 4.55654 15.766 0 10.1613 0C4.55654 0 0 4.55654 0 10.1613C0 15.7661 4.55654 20.3226 10.1613 20.3226C15.766 20.3226 20.3226 15.7661 20.3226 10.1613ZM9.47674 13.6696L5.56197 9.73345C5.36944 9.54092 5.28387 9.30561 5.28387 9.0489C5.28387 8.79219 5.36944 8.55688 5.56197 8.36435C5.92564 8.00068 6.54601 8.00068 6.90968 8.36435L10.1613 11.6374L13.4129 8.38574C13.7766 8.02207 14.3969 8.02207 14.7606 8.38574C15.1243 8.74941 15.1243 9.36978 14.7606 9.73345L10.8458 13.6696C10.6747 13.8408 10.418 13.9477 10.1613 13.9477C9.90458 13.9477 9.66927 13.8408 9.47674 13.6696Z" fill="white"/>
</svg>
