<svg width="22" height="31" viewBox="0 0 22 31" fill="none" xmlns="http://www.w3.org/2000/svg">
<path fill-rule="evenodd" clip-rule="evenodd" d="M18.6441 11.625H19.3898C20.8314 11.625 22 12.8394 22 14.3375V28.2875C22 29.7856 20.8314 31 19.3898 31H2.61017C1.16861 31 0 29.7856 0 28.2875V14.3375C0 12.8394 1.16861 11.625 2.61017 11.625H3.35593V7.94375C3.35593 3.55654 6.7783 0 11 0C15.2217 0 18.6441 3.55654 18.6441 7.94375V11.625ZM16.0339 11.625V7.94375C16.0339 5.05461 13.7801 2.7125 11 2.7125C8.21985 2.7125 5.9661 5.05461 5.9661 7.94375V11.625H16.0339ZM12.4682 21.4416C13.0865 21.0114 13.4936 20.279 13.4936 19.4477C13.4936 18.1235 12.4607 17.05 11.1864 17.05C9.91221 17.05 8.87924 18.1235 8.87924 19.4477C8.87924 20.279 9.28634 21.0114 9.90466 21.4416V24.243C9.90466 24.9786 10.4785 25.575 11.1864 25.575C11.8943 25.575 12.4682 24.9786 12.4682 24.243V21.4416Z" fill="#B40B47"/>
</svg>
