<svg width="26" height="26" viewBox="0 0 26 26" fill="none" xmlns="http://www.w3.org/2000/svg">
<path d="M26 13C26 5.82947 20.1705 0 13 0C5.82947 0 0 5.82947 0 13C0 20.1705 5.82947 26 13 26C20.1705 26 26 20.1705 26 13ZM12.1242 17.4884L7.11579 12.4526C6.86947 12.2063 6.76 11.9053 6.76 11.5768C6.76 11.2484 6.86947 10.9474 7.11579 10.7011C7.58105 10.2358 8.37474 10.2358 8.84 10.7011L13 14.8884L17.16 10.7284C17.6253 10.2632 18.4189 10.2632 18.8842 10.7284C19.3495 11.1937 19.3495 11.9874 18.8842 12.4526L13.8758 17.4884C13.6568 17.7074 13.3284 17.8442 13 17.8442C12.6716 17.8442 12.3705 17.7074 12.1242 17.4884Z" fill="white"/>
</svg>
