<svg width="208" height="74" viewBox="0 0 208 74" fill="none" xmlns="http://www.w3.org/2000/svg">
<path d="M28.5861 23.3285C11.7904 34.891 0 50.4865 0 50.4865L22.0421 65.3605C22.0421 65.3605 23.9515 60.606 24.0071 60.4765C29.2535 71.262 40.4877 74.148 46.7722 74H46.661H161.135H161.024C167.383 74.1665 178.747 71.3175 184.03 60.5505C184.215 60.9945 185.939 65.194 185.939 65.194L207.981 50.4865C207.981 50.4865 196.006 34.8725 179.08 23.3285C163.508 12.6725 137.777 0 103.74 0C69.6856 0 44.0841 12.691 28.5861 23.3285Z" fill="white"/>
<path d="M70.353 35.1315L72.2624 31.0615H47.8104L45.901 35.1315H55.374L45.5673 55.0375H51.8888L61.6956 35.1315H70.353Z" fill="#CC2229"/>
<path d="M158.651 48.4332C156.834 50.9862 154.257 52.2812 152.904 51.3192C151.551 50.3572 151.922 47.5082 153.738 44.9552C155.555 42.4022 158.132 41.1072 159.485 42.0692C160.839 43.0312 160.468 45.8802 158.651 48.4332ZM137.239 48.3407C135.423 50.8937 132.846 52.1887 131.492 51.2267C130.139 50.2647 130.51 47.4157 132.327 44.8442C134.143 42.2912 136.72 40.9962 138.074 41.9582C139.427 42.9387 139.056 45.7877 137.239 48.3407ZM110.655 46.4907C110.655 46.4907 111.842 42.5317 115.679 40.9407C115.679 40.9407 116.773 40.5707 117.348 41.0332C117.348 41.0332 118.163 41.8287 117.199 43.2902C116.328 44.5852 114.233 46.9347 111.953 47.7302C111.934 47.7302 109.877 48.6182 110.655 46.4907ZM73.3191 48.3407C71.5024 50.8937 68.9256 52.1887 67.5723 51.2267C66.219 50.2647 66.5897 47.4157 68.4065 44.8442C70.2233 42.2912 72.8001 40.9962 74.1534 41.9582C75.5067 42.9387 75.1359 45.7877 73.3191 48.3407ZM164.732 51.4487C164.732 51.4487 163.49 52.0222 162.97 51.4672C162.433 50.9122 162.915 49.8947 162.915 49.8947L168.087 39.0537H162.822L162.025 40.4967C158.948 37.7957 153.164 39.1832 149.567 42.9387C147.51 45.1032 146.323 47.6562 146.175 49.8762C145.582 50.2647 144.618 50.8567 143.338 51.3562C143.338 51.3562 142.115 51.9112 141.577 51.3747C141.04 50.8382 141.522 49.8022 141.522 49.8022L150.698 30.9692H145.433L140.613 40.4042C137.536 37.7032 131.752 39.1092 128.174 42.8462C127.451 43.6047 126.839 44.4187 126.339 45.2327V45.2142C126.302 45.2697 126.265 45.3437 126.228 45.4177C126.116 45.6027 126.005 45.8062 125.912 45.9912C123.057 50.9307 119.498 51.7632 119.498 51.7632C111.972 54.0017 111.119 50.3387 111.119 50.3387C119.554 47.2307 122.705 43.5492 122.427 40.7372C122.131 37.9067 118.256 37.7772 118.256 37.7772C111.879 37.3887 106.373 41.8472 105.038 46.1947C104.63 47.5267 104.501 48.8772 104.76 50.1167C102.202 51.4672 100.737 51.6892 100.737 51.6892C98.6054 52.3552 98.3459 51.3562 98.1049 50.7457C97.8454 50.1352 96.8999 44.7147 96.8999 44.7147L105.798 38.8502H100.329L93.6001 43.0127C92.0985 43.6417 92.6732 42.0507 92.6732 42.0507L98.1605 30.9507H92.8771L83.9787 48.9512C82.9591 49.5617 80.9013 50.7642 79.4183 51.3377C79.4183 51.3377 78.1762 51.8927 77.6571 51.3562C77.1195 50.8012 77.6015 49.7837 77.6015 49.7837L82.7737 38.9427H77.4903L76.6746 40.3857C73.5972 37.6847 67.8133 39.0907 64.2354 42.8277C60.6389 46.5647 59.7306 51.5042 62.1962 53.8352C64.1612 55.7222 67.6835 55.3707 70.8536 53.2432C70.8536 53.2432 71.6507 52.5587 72.0956 53.3727C72.5405 54.2052 74.3573 56.0922 78.547 54.4457C79.8817 53.9277 81.0867 53.3172 82.1249 52.7437L81.0311 54.9637H86.296L88.9284 49.6357L91.2272 48.1742C91.2272 48.1742 91.9316 47.6192 92.2097 48.8032C92.2097 48.8032 93.3405 53.2802 93.7855 53.8722C94.2304 54.4642 95.1017 55.7777 98.8093 54.7047C101.646 53.8907 104.297 52.8917 105.687 52.2997C106.929 54.0017 109.321 55.1672 113.214 55.1672C118.998 55.1672 123.076 52.4107 124.8 50.9862C124.93 52.1332 125.356 53.1322 126.135 53.8537C128.1 55.7407 131.622 55.3892 134.792 53.2617C134.792 53.2617 135.589 52.5772 136.034 53.3912C136.479 54.2237 138.296 56.1107 142.467 54.4642C144.395 53.7057 145.674 52.9842 146.508 52.4292C146.731 53.0212 147.083 53.5392 147.528 53.9832C149.493 55.8517 153.015 55.5002 156.185 53.3727C156.185 53.3727 156.983 52.6882 157.428 53.5022C157.872 54.3347 159.689 56.2217 163.86 54.5752C168.05 52.9287 169.236 51.4302 169.236 51.4302L168.18 49.5802C168.031 49.6357 166.752 50.6532 164.732 51.4487Z" fill="#CC2229"/>
<path d="M179.488 50.9491C179.488 50.9491 177.004 65.4531 160.931 65.4531C144.988 65.4531 62.5669 65.4531 46.6425 65.4531C30.5698 65.4531 28.3081 50.8195 28.3081 50.8195C27.6963 46.9345 28.4564 44.2705 29.6429 42.439C41.2108 27.232 64.1056 6.84505 103.685 6.84505C143.598 6.84505 166.678 27.5465 178.246 42.7535C179.581 44.4185 180.081 47.1936 179.488 50.9491ZM103.741 4.31055C39.9872 4.31055 6.17334 49.4505 6.17334 49.4505L20.04 58.793C20.04 58.793 21.7085 54.612 25.5459 48.618C25.5644 50.1166 25.7683 51.171 25.7683 51.171C28.2154 70.1335 46.6796 69.6895 46.6796 69.6895H161.154C161.154 69.6895 179.859 70.189 182.306 51.245C182.306 51.245 182.491 50.2645 182.51 48.766C186.273 54.612 187.923 58.6635 187.923 58.6635L201.771 49.4135C201.79 49.432 167.475 4.31055 103.741 4.31055Z" fill="#CC2229"/>
</svg>
