<svg width="129" height="36" viewBox="0 0 129 36" fill="none" xmlns="http://www.w3.org/2000/svg">
<path d="M48.3671 12.2078C47.118 12.2078 46.1514 12.6908 45.4657 13.6568C44.7808 14.6219 44.4387 15.9676 44.4387 17.6929C44.4387 21.2838 45.7482 23.0788 48.3671 23.0788C49.4659 23.0788 50.7974 22.7966 52.3599 22.2313V25.0948C51.0749 25.6458 49.6414 25.9213 48.0568 25.9213C45.78 25.9213 44.0387 25.2107 42.8329 23.7903C41.6264 22.369 41.0231 20.3296 41.0231 17.671C41.0231 15.997 41.3194 14.5303 41.9121 13.2712C42.5039 12.0112 43.3554 11.0461 44.4648 10.3741C45.5751 9.70213 46.8756 9.36614 48.3671 9.36614C49.8871 9.36614 51.4137 9.74413 52.9485 10.501L51.8782 13.2763C51.2929 12.9898 50.7043 12.7403 50.1116 12.527C49.5198 12.3145 48.9377 12.2078 48.3671 12.2078Z" fill="#01A0AF"/>
<path d="M63.3429 19.0039C62.2939 15.5306 61.7037 13.5667 61.5714 13.1106C61.4392 12.6561 61.3445 12.2958 61.2873 12.032C61.0522 12.972 60.3779 15.2954 59.2644 19.0039H63.3429ZM65.2695 25.701L64.1356 21.8674H58.4293L57.2945 25.701H53.7189L59.2432 9.53142H63.3005L68.8452 25.701H65.2695Z" fill="#01A0AF"/>
<path d="M84.6993 25.7007H80.4812L73.6736 13.5184H73.5764C73.7128 15.6705 73.7805 17.2051 73.7805 18.1232V25.7007H70.8147V9.59741H75.001L81.798 21.6587H81.8731C81.7661 19.5655 81.7122 18.0863 81.7122 17.2194V9.59741H84.6993V25.7007Z" fill="#01A0AF"/>
<path d="M95.2864 12.2078C94.0374 12.2078 93.0708 12.6908 92.385 13.6568C91.7001 14.6219 91.3581 15.9676 91.3581 17.6929C91.3581 21.2838 92.6675 23.0788 95.2864 23.0788C96.3852 23.0788 97.7167 22.7966 99.2793 22.2313V25.0948C97.9943 25.6458 96.5599 25.9213 94.9762 25.9213C92.6993 25.9213 90.958 25.2107 89.7514 23.7903C88.5457 22.369 87.9424 20.3296 87.9424 17.671C87.9424 15.997 88.2387 14.5303 88.8314 13.2712C89.4233 12.0112 90.2747 11.0461 91.3842 10.3741C92.4936 9.70213 93.7941 9.36614 95.2864 9.36614C96.8065 9.36614 98.3331 9.74413 99.8679 10.501L98.7976 13.2763C98.2123 12.9898 97.6237 12.7403 97.031 12.527C96.4391 12.3145 95.857 12.2078 95.2864 12.2078Z" fill="#01A0AF"/>
<path d="M111.622 25.7007H102.609V9.59741H111.622V12.3954H105.927V15.9309H111.226V18.7288H105.927V22.8809H111.622V25.7007Z" fill="#01A0AF"/>
<path d="M114.887 25.7007V9.59741H118.205V22.8809H122.079L123.749 25.7007H114.887Z" fill="#01A0AF"/>
<path opacity="0.5" d="M119.566 12.3945H120.821C121.892 12.3945 122.682 12.5567 123.193 12.8792C123.703 13.2026 123.957 13.7461 123.957 14.5096C123.957 15.2807 123.708 15.846 123.208 16.2055C122.709 16.5659 121.581 16.7456 121.581 16.7456V19.5209C122.525 21.0951 124.39 24.1593 125.359 25.7007H129C128.286 24.6431 126.752 22.3038 124.397 18.6843C125.325 18.266 126.042 17.6873 126.549 16.9489C127.055 16.2114 127.309 15.3689 127.309 14.4214C127.309 12.7986 126.798 11.589 125.778 10.7919C124.757 9.99556 123.184 9.59741 121.057 9.59741H119.566V12.3945Z" fill="#DA5F13"/>
<path opacity="0.5" d="M2.51283 9.29771L9.0045 2.61818L16.0203 9.83782L9.52942 16.5165L2.51283 9.29771ZM16.0203 26.0394L9.0045 33.2582L2.51283 26.5795L9.52942 19.3598L16.0203 26.0394ZM25.2745 19.3598L32.2911 26.5795L25.7994 33.2582L18.7836 26.0394L25.2745 19.3598ZM17.4024 11.2591L23.8932 17.9386L17.4024 24.6173L10.9107 17.9386L17.4024 11.2591ZM23.5944 2.04364L17.4024 8.41573L11.2095 2.04364H23.5944ZM25.7994 2.61818L32.2911 9.29771L25.2745 16.5165L18.7836 9.83782L25.7994 2.61818ZM26.6566 17.9386L34.6259 9.7387C34.8626 9.4951 34.8626 9.10031 34.6259 8.85672L26.228 0.215835C26.1145 0.0990774 25.9602 0.0335613 25.7994 0.0335613H9.0045C8.84368 0.0335613 8.68939 0.0990774 8.57591 0.215835L0.178046 8.85672C-0.0586976 9.10031 -0.0586976 9.4951 0.178046 9.7387L8.14733 17.9386L0.178046 26.1385C-0.0586976 26.3821 -0.0586976 26.7769 0.178046 27.0205L8.57591 35.6614C8.81266 35.9041 9.19635 35.9041 9.43309 35.6614L17.4024 27.4606L25.3708 35.6614C25.49 35.7823 25.6443 35.8436 25.7994 35.8436C25.9545 35.8436 26.1096 35.7823 26.228 35.6614L34.6259 27.0205C34.8626 26.7769 34.8626 26.3821 34.6259 26.1385L26.6566 17.9386Z" fill="#DA5F13"/>
<path d="M25.7997 33.2585L18.784 26.0389L25.2748 19.3602L32.2906 26.579L25.7997 33.2585ZM10.911 17.9381L17.4019 11.2594L23.8935 17.9381L17.4019 24.6176L10.911 17.9381ZM9.00401 33.2585L2.51316 26.579L9.52893 19.3602L16.0206 26.0389L9.00401 33.2585ZM2.51316 9.29807L9.00401 2.61855L16.0206 9.83818L9.52893 16.5169L2.51316 9.29807ZM25.7997 2.61855L32.2906 9.29807L25.2748 16.5169L18.784 9.83818L25.7997 2.61855ZM26.6569 17.9381L34.6262 9.73907C34.8629 9.49463 34.8629 9.10068 34.6262 8.85709L26.2283 0.216201C26.1149 0.0986044 25.9606 0.0330857 25.7997 0.0330857C25.7997 0.0330857 25.2863 0.513557 23.5948 2.044L17.4019 8.4161L11.209 2.044C11.209 2.044 9.19259 0.0330857 9.00401 0.0330857C8.84319 0.0330857 8.68971 0.0986044 8.57542 0.216201L0.177558 8.85709C-0.0591859 9.10068 -0.0591859 9.49463 0.177558 9.73907L8.14683 17.9381L0.177558 26.138C-0.0591859 26.3816 -0.0591859 26.7764 0.177558 27.02L8.57542 35.6609C8.81217 35.9036 9.19585 35.9036 9.4326 35.6609L17.4019 27.461L25.3712 35.6609C25.4895 35.7827 25.6446 35.844 25.7997 35.844C25.9549 35.844 26.11 35.7827 26.2283 35.6609L34.6262 27.02C34.8629 26.7764 34.8629 26.3816 34.6262 26.138L26.6569 17.9381Z" fill="#01A0AF"/>
</svg>
