<svg width="31" height="31" viewBox="0 0 31 31" fill="none" xmlns="http://www.w3.org/2000/svg">
<path fill-rule="evenodd" clip-rule="evenodd" d="M17.2856 15.1113L29.7636 2.63328C30.3634 2.03353 30.3634 1.05061 29.7719 0.44253C29.1805 -0.14889 28.1976 -0.148892 27.5978 0.450858L15.1115 12.9372L2.62527 0.450959C2.02552 -0.14879 1.0426 -0.14879 0.451176 0.442629C-0.148573 1.04238 -0.148573 2.0253 0.451176 2.62505L12.9374 15.1113L0.450859 27.5978C-0.148891 28.1976 -0.148891 29.1805 0.442529 29.7719C1.04228 30.3717 2.0252 30.3717 2.62495 29.7719L15.1115 17.2854L27.5898 29.7637C28.1896 30.3635 29.1725 30.3635 29.7806 29.772C30.372 29.1806 30.372 28.1977 29.7723 27.5979L17.2856 15.1113Z" fill="#01A0AF"/>
</svg>
