<svg width="40" height="35" viewBox="0 0 40 35" fill="none" xmlns="http://www.w3.org/2000/svg">
<path d="M35.9022 10.7101H34.5024V18.7075H35.9022V10.7101Z" fill="#13B1B0"/>
<path d="M38.4279 34.7378C38.0414 34.7378 37.728 34.4302 37.728 34.0509V6.58262C37.728 6.20328 38.0414 5.89572 38.4279 5.89572C38.8144 5.89572 39.1278 6.20328 39.1278 6.58262V34.0509C39.1278 34.4302 38.8144 34.7378 38.4279 34.7378Z" fill="#13B1B0"/>
<path d="M0.850276 34.7378C0.463764 34.7378 0.150391 34.4302 0.150391 34.0509V13.0612C0.150391 12.6818 0.463764 12.3743 0.850276 12.3743C1.23679 12.3743 1.55016 12.6818 1.55016 13.0612V34.0509C1.55016 34.4302 1.23679 34.7378 0.850276 34.7378Z" fill="#13B1B0"/>
<path d="M38.4282 21.2401H0.850276C0.463764 21.2401 0.150391 20.9325 0.150391 20.5532C0.150391 20.1739 0.463764 19.8663 0.850276 19.8663H38.4282C38.8147 19.8663 39.128 20.1739 39.128 20.5532C39.128 20.9325 38.8147 21.2401 38.4282 21.2401Z" fill="#13B1B0"/>
<path d="M38.4282 26.9387H0.850276C0.463764 26.9387 0.150391 26.6311 0.150391 26.2518C0.150391 25.8724 0.463764 25.5648 0.850276 25.5648H38.4282C38.8147 25.5648 39.128 25.8724 39.128 26.2518C39.128 26.6311 38.8147 26.9387 38.4282 26.9387Z" fill="#13B1B0"/>
<path d="M4.07586 18.7073C3.68935 18.7073 3.37598 18.3998 3.37598 18.0204C3.37598 14.9071 5.9568 12.3743 9.12921 12.3743H24.9797C25.3662 12.3743 25.6796 12.6818 25.6796 13.0612C25.6796 13.4405 25.3662 13.7481 24.9797 13.7481H9.12938C6.72878 13.7481 4.77592 15.6647 4.77592 18.0204C4.77575 18.3998 4.46237 18.7073 4.07586 18.7073Z" fill="white"/>
<path d="M4.80007 18.7073H3.37598V18.0204C3.37598 14.9071 6.0016 12.3743 9.22912 12.3743H26.0668V13.7481H9.22912C6.78687 13.7481 4.80007 15.6647 4.80007 18.0204V18.7073Z" fill="#13B1B0"/>
<path d="M20.7051 17.108C20.4693 17.108 20.2392 16.9913 20.1072 16.7794C19.9057 16.4557 20.0094 16.0329 20.3393 15.835L32.1183 8.76748C32.1234 8.76439 32.1285 8.76147 32.1334 8.75855C32.7145 8.42936 33.3918 8.34195 34.0397 8.5123C34.688 8.68282 35.2297 9.09085 35.5653 9.66132C35.7932 10.0487 35.9096 10.489 35.9017 10.9348V14.7087C35.9017 15.088 35.5884 15.3956 35.2018 15.3956C34.8153 15.3956 34.502 15.088 34.502 14.7087V10.923C34.5056 10.7147 34.454 10.5201 34.3529 10.3484C34.2042 10.0956 33.9643 9.91496 33.6771 9.8394C33.3926 9.76435 33.0954 9.80196 32.8397 9.94449L21.0691 17.0071C20.9555 17.0756 20.8295 17.108 20.7051 17.108Z" fill="#13B1B0"/>
<path d="M24.0206 18.7837C23.7758 18.7837 23.538 18.6575 23.4096 18.4331C23.2202 18.1023 23.3403 17.6835 23.6773 17.4979L31.828 13.0069C32.165 12.8209 32.5917 12.9389 32.7809 13.2696C32.9702 13.6004 32.8501 14.0192 32.5131 14.2048L24.3625 18.6958C24.2542 18.7554 24.1364 18.7837 24.0206 18.7837Z" fill="#13B1B0"/>
<path d="M32.6121 7.41413C30.7978 7.41413 29.3218 5.96545 29.3218 4.18482C29.3218 2.4042 30.7978 0.955688 32.6121 0.955688C34.4264 0.955688 35.9024 2.40437 35.9024 4.18482C35.9024 5.96545 34.4264 7.41413 32.6121 7.41413ZM32.6121 2.32932C31.5696 2.32932 30.7215 3.16168 30.7215 4.18465C30.7215 5.20779 31.5696 6.04015 32.6121 6.04015C33.6546 6.04015 34.5027 5.20779 34.5027 4.18465C34.5027 3.16168 33.6546 2.32932 32.6121 2.32932Z" fill="#13B1B0"/>
</svg>
