<svg width="35" height="36" viewBox="0 0 35 36" fill="none" xmlns="http://www.w3.org/2000/svg">
<path d="M8.36749 35.262C7.25908 35.262 6.21708 34.8318 5.43321 34.051L1.32684 29.9584C0.542964 29.1773 0.111328 28.1389 0.111328 27.0343C0.111328 25.9297 0.542964 24.8911 1.32684 24.1101L23.4715 2.04145C24.2552 1.26043 25.2972 0.830444 26.4056 0.830444C27.514 0.830444 28.5561 1.2606 29.3399 2.04145L33.4463 6.13341C35.064 7.74595 35.064 10.3698 33.4463 11.9822L11.3018 34.0508C10.5181 34.8318 9.47589 35.262 8.36749 35.262ZM26.4056 2.17715C25.6583 2.17715 24.9557 2.46723 24.4272 2.99385L2.28252 25.0625C1.75391 25.5891 1.46283 26.2893 1.46283 27.0341C1.46283 27.7789 1.75391 28.4792 2.28252 29.0058L6.38889 33.0984C6.91732 33.625 7.6201 33.9151 8.36749 33.9151C9.11487 33.9151 9.81765 33.625 10.3463 33.0984L32.4908 11.0298C33.5816 9.94252 33.5816 8.17307 32.4908 7.08564L28.3846 2.99369C27.8558 2.46723 27.1532 2.17715 26.4056 2.17715Z" fill="white"/>
<path d="M8.36749 35.262C7.25908 35.262 6.21708 34.8318 5.43321 34.051L1.32684 29.9584C0.542964 29.1773 0.111328 28.1389 0.111328 27.0343C0.111328 25.9297 0.542964 24.8911 1.32684 24.1101L23.4715 2.04145C24.2552 1.26043 25.2972 0.830444 26.4056 0.830444C27.514 0.830444 28.5561 1.2606 29.3399 2.04145L33.4463 6.13341C35.064 7.74595 35.064 10.3698 33.4463 11.9822L11.3018 34.0508C10.5181 34.8318 9.47589 35.262 8.36749 35.262ZM26.4056 2.17715C25.6583 2.17715 24.9557 2.46723 24.4272 2.99385L2.28252 25.0625C1.75391 25.5891 1.46283 26.2893 1.46283 27.0341C1.46283 27.7789 1.75391 28.4792 2.28252 29.0058L6.38889 33.0984C6.91732 33.625 7.6201 33.9151 8.36749 33.9151C9.11487 33.9151 9.81765 33.625 10.3463 33.0984L32.4906 11.0298C33.5816 9.94252 33.5816 8.17307 32.4906 7.08564L28.3844 2.99369C27.8558 2.46723 27.1532 2.17715 26.4056 2.17715Z" fill="#13B1B0"/>
<path d="M11.3745 27.7081C11.1954 27.7081 11.0214 27.6357 10.8964 27.5094C10.7697 27.3849 10.6987 27.2114 10.6987 27.033C10.6987 26.8562 10.7697 26.6828 10.8964 26.5582C11.0214 26.4319 11.1954 26.3612 11.3745 26.3612C11.5519 26.3612 11.7259 26.4319 11.8509 26.5582C11.9776 26.6828 12.0502 26.8562 12.0502 27.033C12.0502 27.2114 11.9776 27.3849 11.8509 27.5094C11.7259 27.6357 11.5519 27.7081 11.3745 27.7081Z" fill="#13B1B0"/>
<path d="M8.36716 24.7113C8.18977 24.7113 8.01577 24.6389 7.88906 24.5144C7.76405 24.3898 7.69141 24.2164 7.69141 24.0379C7.69141 23.8611 7.76405 23.6877 7.88906 23.5615C8.01577 23.4369 8.18977 23.3645 8.36716 23.3645C8.54454 23.3645 8.71855 23.4369 8.84525 23.5615C8.97027 23.6877 9.04291 23.8611 9.04291 24.0379C9.04291 24.2164 8.97027 24.3898 8.84525 24.5144C8.72024 24.6389 8.54623 24.7113 8.36716 24.7113Z" fill="#13B1B0"/>
<path d="M8.36716 30.7032C8.18977 30.7032 8.01577 30.6325 7.88906 30.5062C7.76405 30.3817 7.69141 30.2082 7.69141 30.0298C7.69141 29.853 7.76405 29.6796 7.88906 29.5533C8.01577 29.4289 8.18977 29.3564 8.36716 29.3564C8.54454 29.3564 8.71855 29.4289 8.84525 29.5533C8.97027 29.6796 9.04291 29.853 9.04291 30.0298C9.04291 30.2084 8.97027 30.3817 8.84525 30.5062C8.71855 30.6325 8.54454 30.7032 8.36716 30.7032Z" fill="#13B1B0"/>
<path d="M5.36032 27.7081C5.18294 27.7081 5.00893 27.6357 4.88392 27.5094C4.75721 27.3849 4.68457 27.2114 4.68457 27.033C4.68457 26.8562 4.75721 26.6828 4.88392 26.5582C5.00893 26.4319 5.18294 26.3612 5.36032 26.3612C5.5394 26.3612 5.7134 26.4319 5.83841 26.5582C5.96512 26.6828 6.03607 26.8562 6.03607 27.033C6.03607 27.2114 5.96512 27.3849 5.83841 27.5094C5.7134 27.6357 5.5394 27.7081 5.36032 27.7081Z" fill="#13B1B0"/>
<path d="M11.3745 9.73078C11.1971 9.73078 11.0214 9.66007 10.8964 9.5338C10.7697 9.40753 10.6987 9.23412 10.6987 9.05735C10.6987 8.88057 10.7697 8.70716 10.8964 8.58089C11.0214 8.45631 11.1954 8.38391 11.3745 8.38391C11.5519 8.38391 11.7259 8.45631 11.8526 8.58089C11.9776 8.70716 12.0502 8.88057 12.0502 9.05735C12.0502 9.23412 11.9776 9.40753 11.8526 9.5338C11.7259 9.66007 11.5519 9.73078 11.3745 9.73078Z" fill="#13B1B0"/>
<path d="M8.36716 6.73566C8.18977 6.73566 8.01577 6.66327 7.88906 6.537C7.76405 6.41241 7.69141 6.239 7.69141 6.06054C7.69141 5.88377 7.76405 5.71036 7.88906 5.58577C8.01577 5.4595 8.18977 5.38879 8.36716 5.38879C8.54623 5.38879 8.72024 5.4595 8.84525 5.58577C8.97027 5.71036 9.04291 5.88377 9.04291 6.06054C9.04291 6.239 8.97027 6.41241 8.84525 6.537C8.71855 6.66327 8.54454 6.73566 8.36716 6.73566Z" fill="#13B1B0"/>
<path d="M8.36716 12.7275C8.18977 12.7275 8.01577 12.6552 7.88906 12.5289C7.76405 12.4043 7.69141 12.2309 7.69141 12.0541C7.69141 11.8757 7.76405 11.7022 7.88906 11.5777C8.01577 11.4514 8.18977 11.3807 8.36716 11.3807C8.54454 11.3807 8.71855 11.4514 8.84525 11.5777C8.97027 11.7022 9.04291 11.8757 9.04291 12.0541C9.04291 12.2309 8.97027 12.4043 8.84525 12.5289C8.72024 12.6552 8.54454 12.7275 8.36716 12.7275Z" fill="#13B1B0"/>
<path d="M5.36032 9.73078C5.18294 9.73078 5.00893 9.66007 4.88392 9.5338C4.75721 9.40922 4.68457 9.23412 4.68457 9.05735C4.68457 8.88057 4.75721 8.70716 4.88392 8.58089C5.00893 8.45631 5.18294 8.38391 5.36032 8.38391C5.5394 8.38391 5.7134 8.45631 5.83841 8.58089C5.96512 8.70716 6.03776 8.88057 6.03776 9.05735C6.03776 9.23412 5.96512 9.40753 5.83841 9.5338C5.7134 9.66007 5.5394 9.73078 5.36032 9.73078Z" fill="#13B1B0"/>
<path d="M29.4121 9.73078C29.2347 9.73078 29.0607 9.66007 28.934 9.5338C28.809 9.40922 28.7363 9.23412 28.7363 9.05735C28.7363 8.88057 28.809 8.70716 28.934 8.58089C29.0607 8.45631 29.2347 8.38391 29.4121 8.38391C29.5912 8.38391 29.7652 8.45631 29.8902 8.58089C30.0152 8.70716 30.0878 8.88057 30.0878 9.05735C30.0878 9.23412 30.0152 9.40753 29.8902 9.5338C29.7635 9.66007 29.5895 9.73078 29.4121 9.73078Z" fill="#13B1B0"/>
<path d="M26.4067 6.73566C26.2276 6.73566 26.0536 6.66327 25.9286 6.537C25.8019 6.41241 25.731 6.239 25.731 6.06054C25.731 5.88377 25.8019 5.71036 25.9286 5.58577C26.0536 5.4595 26.2276 5.38879 26.4067 5.38879C26.5841 5.38879 26.7581 5.4595 26.8831 5.58577C27.0098 5.71036 27.0825 5.88377 27.0825 6.06054C27.0825 6.239 27.0098 6.41241 26.8831 6.537C26.7581 6.66327 26.5841 6.73566 26.4067 6.73566Z" fill="#13B1B0"/>
<path d="M26.4067 12.7275C26.2276 12.7275 26.0536 12.6552 25.9286 12.5289C25.8019 12.4043 25.731 12.2309 25.731 12.0541C25.731 11.8757 25.8019 11.7022 25.9286 11.5777C26.0536 11.4514 26.2276 11.3807 26.4067 11.3807C26.5841 11.3807 26.7581 11.4514 26.8831 11.5777C27.0098 11.7022 27.0825 11.8757 27.0825 12.0541C27.0825 12.2309 27.0098 12.4043 26.8831 12.5289C26.7581 12.6552 26.5841 12.7275 26.4067 12.7275Z" fill="#13B1B0"/>
<path d="M23.3994 9.73078C23.222 9.73078 23.048 9.66007 22.9213 9.5338C22.7963 9.40922 22.7236 9.23412 22.7236 9.05735C22.7236 8.88057 22.7963 8.70716 22.9213 8.58089C23.048 8.45631 23.222 8.38391 23.3994 8.38391C23.5785 8.38391 23.7525 8.45631 23.8775 8.58089C24.0025 8.70716 24.0751 8.88057 24.0751 9.05735C24.0751 9.23412 24.0025 9.40753 23.8775 9.5338C23.7508 9.66007 23.5768 9.73078 23.3994 9.73078Z" fill="#13B1B0"/>
<path d="M29.4121 27.7081C29.2347 27.7081 29.0607 27.6357 28.934 27.5094C28.809 27.3849 28.7363 27.2114 28.7363 27.033C28.7363 26.8562 28.809 26.6828 28.934 26.5582C29.0607 26.4319 29.2347 26.3612 29.4121 26.3612C29.5895 26.3612 29.7652 26.4319 29.8902 26.5582C30.0169 26.6828 30.0878 26.8562 30.0878 27.033C30.0878 27.2114 30.0169 27.3849 29.8902 27.5094C29.7652 27.6357 29.5895 27.7081 29.4121 27.7081Z" fill="#13B1B0"/>
<path d="M26.4067 24.7113C26.2276 24.7113 26.0536 24.6389 25.9286 24.5144C25.8019 24.3898 25.731 24.2164 25.731 24.0379C25.731 23.8611 25.8019 23.6877 25.9286 23.5615C26.0536 23.4369 26.2276 23.3645 26.4067 23.3645C26.5841 23.3645 26.7581 23.4369 26.8831 23.5615C27.0098 23.6877 27.0808 23.8611 27.0808 24.0379C27.0808 24.2164 27.0098 24.3898 26.8831 24.5144C26.7581 24.6389 26.5841 24.7113 26.4067 24.7113Z" fill="#13B1B0"/>
<path d="M26.405 30.7032C26.2276 30.7032 26.0536 30.6325 25.9286 30.5062C25.8019 30.3817 25.731 30.2082 25.731 30.0298C25.731 29.853 25.8019 29.6796 25.9286 29.5533C26.0536 29.4289 26.2276 29.3564 26.405 29.3564C26.5841 29.3564 26.7581 29.4289 26.8831 29.5533C27.0098 29.6796 27.0825 29.853 27.0825 30.0298C27.0825 30.2067 27.0098 30.3817 26.8831 30.5062C26.7581 30.6325 26.5841 30.7032 26.405 30.7032Z" fill="#13B1B0"/>
<path d="M23.3994 27.7081C23.222 27.7081 23.048 27.6357 22.9213 27.5094C22.7963 27.3849 22.7236 27.2114 22.7236 27.033C22.7236 26.8562 22.7963 26.6828 22.9213 26.5582C23.048 26.4319 23.222 26.3612 23.3994 26.3612C23.5768 26.3612 23.7508 26.4319 23.8775 26.5582C24.0025 26.6828 24.0751 26.8562 24.0751 27.033C24.0751 27.2114 24.0025 27.3849 23.8775 27.5094C23.7508 27.6357 23.5768 27.7081 23.3994 27.7081Z" fill="#13B1B0"/>
<path d="M24.5439 16.8638C24.371 16.8638 24.1981 16.798 24.066 16.6666L18.7707 11.3894C18.5068 11.1263 18.5068 10.7 18.7707 10.437C19.0347 10.1741 19.4625 10.1741 19.7263 10.437L25.0217 15.7142C25.2856 15.9774 25.2856 16.4037 25.0217 16.6666C24.8899 16.798 24.7169 16.8638 24.5439 16.8638Z" fill="#13B1B0"/>
<path d="M15.5246 25.8521C15.3516 25.8521 15.1787 25.7863 15.0466 25.6548L9.75162 20.3776C9.48774 20.1146 9.48774 19.6882 9.75162 19.4252C10.0155 19.1624 10.4434 19.1622 10.7073 19.4252L16.0023 24.7024C16.2662 24.9654 16.2662 25.3918 16.0023 25.6548C15.8705 25.7863 15.6976 25.8521 15.5246 25.8521Z" fill="#13B1B0"/>
<path d="M8.87505 17.5992L2.28276 11.0297C1.19176 9.94223 1.19176 8.17295 2.28276 7.08552L6.38896 2.99356C6.91757 2.46694 7.62035 2.17686 8.36773 2.17686C9.11528 2.17686 9.81789 2.46694 10.3463 2.99356L16.9128 9.5375L17.8654 8.58206L11.3018 2.04099C10.518 1.25997 9.47596 0.829987 8.36756 0.829987C7.25916 0.829987 6.21715 1.26014 5.43328 2.04099L1.32708 6.13312C-0.290668 7.74566 -0.290668 10.3694 1.32708 11.9819L7.92258 18.5546L8.87505 17.5992Z" fill="#13B1B0"/>
<path d="M33.4467 24.1098L26.6284 17.3148L25.6729 18.2674L32.4912 25.0624C33.0196 25.589 33.3109 26.2892 33.3109 27.034C33.3109 27.7788 33.0198 28.479 32.4912 29.0058L28.385 33.0983C27.8564 33.6249 27.1536 33.915 26.4062 33.915C25.6588 33.915 24.9562 33.6249 24.4278 33.0983L17.61 26.3038L16.6543 27.2562L23.4721 34.0505C24.2558 34.8317 25.2978 35.2617 26.4062 35.2617C27.5146 35.2617 28.5566 34.8315 29.3407 34.0505L33.4469 29.9582C34.2308 29.177 34.6624 28.1386 34.6624 27.034C34.6624 25.9294 34.2306 24.8908 33.4467 24.1098Z" fill="#13B1B0"/>
</svg>
