<svg width="37" height="37" viewBox="0 0 37 37" fill="none" xmlns="http://www.w3.org/2000/svg">
<path d="M31.6694 13.4543C31.5458 13.4543 31.4223 13.4075 31.328 13.3138L29.3923 11.389C29.2039 11.2014 29.2039 10.8976 29.3923 10.7103C29.5809 10.5228 29.8864 10.523 30.075 10.7103L32.0107 12.6352C32.1992 12.8227 32.1992 13.1265 32.0107 13.3138C31.9165 13.4075 31.793 13.4543 31.6694 13.4543Z" fill="#13B1B0"/>
<path d="M28.3631 16.7409C28.2395 16.7409 28.1162 16.6941 28.0217 16.6004L26.0858 14.6755C25.8972 14.488 25.8972 14.1844 26.0858 13.9971C26.2744 13.8096 26.5799 13.8096 26.7685 13.9971L28.7044 15.9219C28.8929 16.1095 28.8929 16.4133 28.7044 16.6006C28.61 16.6941 28.4867 16.7409 28.3631 16.7409Z" fill="#13B1B0"/>
<path d="M25.0572 20.0275C24.9336 20.0275 24.8102 19.9806 24.7158 19.887L22.7795 17.9623C22.5911 17.7748 22.5911 17.471 22.7795 17.2837C22.9681 17.0961 23.2738 17.0963 23.4622 17.2837L25.3983 19.2085C25.587 19.3958 25.587 19.6997 25.3983 19.887C25.3041 19.9806 25.1807 20.0275 25.0572 20.0275Z" fill="#13B1B0"/>
<path d="M21.7514 23.3141C21.6278 23.3141 21.5045 23.2672 21.4101 23.1736L19.4734 21.2489C19.2849 21.0616 19.2849 20.7576 19.4734 20.5703C19.662 20.3827 19.9676 20.3829 20.1561 20.5703L22.0926 22.4951C22.2812 22.6824 22.2812 22.9863 22.0926 23.1736C21.9985 23.2672 21.8748 23.3141 21.7514 23.3141Z" fill="#13B1B0"/>
<path d="M18.4451 26.6007C18.3215 26.6007 18.1982 26.5538 18.1038 26.4602L16.1669 24.5353C15.9782 24.348 15.9782 24.0442 16.1669 23.8567C16.3555 23.6691 16.6609 23.6693 16.8496 23.8567L18.7865 25.7815C18.9751 25.9688 18.9751 26.2727 18.7865 26.4602C18.6922 26.5538 18.5687 26.6007 18.4451 26.6007Z" fill="#13B1B0"/>
<path d="M3.38773 36.0176C2.79731 36.0176 2.24223 35.7892 1.82481 35.3741C1.4072 34.959 1.17725 34.4072 1.17725 33.8202C1.17725 33.2331 1.4072 32.6813 1.82481 32.2666L5.59666 28.5176C5.89862 28.2175 6.11641 27.8415 6.22627 27.4302L7.1785 23.2908C7.42987 22.35 7.92221 21.5007 8.60549 20.8215L26.9351 2.60013C27.9847 1.5568 29.38 0.982361 30.8643 0.982361C32.5286 0.982361 34.0944 1.71822 35.1602 3.00126C36.9577 5.16468 36.7277 8.48851 34.6368 10.5681L16.4637 28.633C15.7808 29.312 14.9263 29.8016 13.9928 30.0488L9.80215 31.001C9.40191 31.1077 9.02368 31.3246 8.72191 31.6246L4.95083 35.3739C4.53322 35.789 3.97814 36.0176 3.38773 36.0176ZM30.8641 1.75027C29.586 1.75027 28.3845 2.24506 27.481 3.1431L9.1513 21.3644C8.56398 21.9481 8.14115 22.678 7.928 23.4751L6.97577 27.6144C6.82768 28.1693 6.54078 28.6648 6.14247 29.0606L2.37062 32.8097C2.09897 33.0796 1.94934 33.4385 1.94934 33.8204C1.94934 34.2024 2.09897 34.5613 2.37062 34.8315C2.64227 35.1014 3.00332 35.2501 3.38753 35.2501C3.77174 35.2501 4.13279 35.1016 4.40463 34.8315L8.17571 31.0822C8.57325 30.6868 9.07137 30.4012 9.61641 30.2563L13.8072 29.3042C14.5961 29.095 15.3306 28.6741 15.9175 28.0906L34.0906 10.0257C35.9031 8.22288 36.1115 5.35239 34.5648 3.49049C33.6461 2.3844 32.2973 1.75027 30.8641 1.75027Z" fill="white"/>
<path d="M3.38783 36.4015C2.69432 36.4015 2.04231 36.1332 1.55172 35.6457C1.06112 35.1578 0.791016 34.5097 0.791016 33.8202C0.791016 33.1306 1.06132 32.4825 1.55191 31.9952L5.32357 28.2463C5.57456 27.9967 5.75643 27.6849 5.84988 27.3436L6.80211 23.2052C6.80423 23.1966 6.80617 23.188 6.80867 23.1791C7.07415 22.1861 7.60124 21.2769 8.33259 20.5501L26.662 2.32875C27.7844 1.21307 29.2768 0.598511 30.8644 0.598511C32.6444 0.598511 34.3187 1.38523 35.458 2.75694C37.3808 5.07141 37.14 8.62171 34.9101 10.8395L16.737 28.9046C16.006 29.6312 15.0916 30.1554 14.0923 30.42C14.0834 30.4225 14.0745 30.4244 14.0655 30.4266L9.90323 31.372C9.55975 31.4657 9.24582 31.6468 8.99502 31.8962L5.22375 35.6455C4.73335 36.133 4.08134 36.4015 3.38783 36.4015ZM8.30479 23.5613L7.35237 27.7C7.35024 27.7087 7.34831 27.7173 7.3458 27.7259C7.18362 28.333 6.86196 28.8882 6.41577 29.332L2.64373 33.0809C2.44506 33.2784 2.33559 33.5408 2.33559 33.8202C2.33559 34.0997 2.44506 34.3621 2.64392 34.5599C2.8426 34.7572 3.10672 34.8661 3.38783 34.8661C3.66875 34.8661 3.93307 34.7574 4.13174 34.5597L7.90281 30.8106C8.34823 30.3676 8.9064 30.0475 9.5167 29.8853C9.52577 29.8828 9.53504 29.8807 9.54431 29.8786L13.7073 28.933C14.4393 28.7368 15.1086 28.3518 15.6446 27.819L33.8177 9.7539C35.491 8.08969 35.6885 5.44567 34.2671 3.73463C33.4221 2.7174 32.1818 2.13413 30.8643 2.13413C29.6894 2.13413 28.5849 2.589 27.7543 3.41468L9.4246 21.636C8.88864 22.1688 8.50153 22.8344 8.30479 23.5613Z" fill="#13B1B0"/>
<path d="M10.5605 27.4574C10.3628 27.4574 10.1653 27.3824 10.0143 27.2327C9.71269 26.9327 9.71269 26.4467 10.0143 26.1469L27.4046 8.8599C27.7064 8.56011 28.1953 8.5603 28.4968 8.8599C28.7984 9.15989 28.7984 9.64585 28.4968 9.94565L11.1065 27.2327C10.9557 27.3824 10.758 27.4574 10.5605 27.4574Z" fill="#13B1B0"/>
</svg>
