<svg width="56" height="56" viewBox="0 0 56 56" fill="none" xmlns="http://www.w3.org/2000/svg">
<path d="M42.4545 26.3927C42.3235 26.2617 42.2427 26.0803 42.2432 25.88C42.2442 25.4791 42.5699 25.1537 42.9706 25.1528C43.2961 25.1522 43.6029 25.0242 43.8347 24.7924C44.0666 24.5606 44.1948 24.2534 44.1954 23.9277C44.1964 23.5269 44.522 23.2013 44.9227 23.2004C45.3235 23.1995 45.6475 23.5238 45.6467 23.9245C45.645 24.6378 45.3652 25.3097 44.8588 25.8162C44.3522 26.3228 43.6803 26.6025 42.9671 26.6039C42.7667 26.6046 42.5855 26.5237 42.4545 26.3927Z" fill="#13B1B0"/>
<path d="M11.9647 26.462C11.8338 26.3311 11.7529 26.1499 11.7533 25.9495C11.7542 25.5487 12.0798 25.2229 12.4805 25.222C13.1545 25.2205 13.7043 24.6707 13.7061 23.9965C13.7071 23.5956 14.0328 23.2702 14.4335 23.2693C14.8343 23.2684 15.1583 23.5927 15.1574 23.9934C15.1537 25.4675 13.9516 26.6697 12.4776 26.6733C12.277 26.674 12.0958 26.5931 11.9647 26.462Z" fill="#13B1B0"/>
<path d="M42.4355 34.6979C42.3045 34.5669 42.2236 34.3857 42.2241 34.1854C42.225 33.7846 42.5505 33.4588 42.9513 33.4579C43.2771 33.4572 43.5841 33.3291 43.8159 33.0973C44.0476 32.8656 44.1757 32.5586 44.1763 32.2331C44.1771 31.8323 44.5026 31.5067 44.9035 31.5057C45.3044 31.5046 45.6286 31.8288 45.6277 32.2296C45.6263 32.9428 45.3465 33.6147 44.84 34.1213C44.3335 34.6278 43.6617 34.9077 42.9484 34.9094C42.7479 34.9097 42.5665 34.8289 42.4355 34.6979Z" fill="#13B1B0"/>
<path d="M11.9461 34.767C11.815 34.6359 11.7343 34.4547 11.7347 34.2542C11.7357 33.8533 12.0612 33.5278 12.462 33.5269C12.9622 33.5259 13.4075 33.2232 13.5963 32.7555C14.6604 30.1787 17.1376 28.5131 19.9092 28.5076L25.4497 28.495C25.8506 28.4943 26.1745 28.8185 26.1737 29.2191C26.1727 29.62 25.8471 29.9455 25.4464 29.9464L19.9058 29.9588C17.7248 29.9633 15.7754 31.2742 14.9395 33.299C14.529 34.3146 13.5544 34.9756 12.4583 34.9781C12.2583 34.9787 12.077 34.8979 11.9461 34.767ZM29.0332 29.7255C28.9022 29.5944 28.8215 29.4132 28.8218 29.2127C28.8227 28.8119 29.1484 28.4863 29.5491 28.4854L35.5277 28.4719C35.9285 28.4712 36.2525 28.7954 36.2517 29.196C36.2508 29.5967 35.9251 29.9224 35.5244 29.9233L29.5459 29.9367C29.3455 29.9372 29.1643 29.8565 29.0332 29.7255Z" fill="#13B1B0"/>
<path d="M8.40632 36.3648C8.40606 36.3645 8.40581 36.3643 8.40555 36.364C7.32634 35.2843 6.73387 33.8474 6.73747 32.3174C6.74106 30.7316 7.3974 29.2359 8.52934 28.161C7.40342 27.0894 6.75244 25.5983 6.75578 24.0125C6.75925 22.4826 7.35812 21.0429 8.44249 19.9585C9.52686 18.8741 10.9665 18.2749 12.4964 18.2714C14.8458 18.2659 16.9283 19.6717 17.8013 21.8517C18.1509 22.705 18.9836 23.2587 19.9208 23.2568L25.4949 23.2439C25.8959 23.243 26.2198 23.5675 26.2189 23.968C26.2181 24.3689 25.8924 24.6945 25.4916 24.6953L19.9173 24.7082C18.3892 24.7114 17.0306 23.8061 16.4557 22.402C15.8015 20.7683 14.2469 19.7188 12.4929 19.7229C11.3507 19.7255 10.276 20.1728 9.46641 20.9824C8.65679 21.792 8.20961 22.8671 8.20702 24.0091C8.20391 25.4352 8.90837 26.7604 10.092 27.5555C10.2919 27.6898 10.4118 27.9153 10.4112 28.157C10.4107 28.3987 10.29 28.6246 10.0891 28.7599C8.90228 29.5594 8.19193 30.8882 8.18857 32.3143C8.18598 33.4565 8.6283 34.5296 9.43412 35.3357C9.43425 35.3358 9.43451 35.3361 9.43463 35.3362C10.2403 36.1419 11.3126 36.5842 12.4543 36.5816C14.2083 36.5773 15.7676 35.5204 16.427 33.8891C17.0108 32.477 18.3736 31.5657 19.9013 31.5621L25.4393 31.5494C25.8402 31.5486 26.1643 31.8727 26.1634 32.2735C26.1625 32.6742 25.8368 32.9999 25.436 33.0008L19.898 33.0135C18.9611 33.0156 18.1257 33.5727 17.77 34.433C16.8897 36.6119 14.8009 38.0269 12.4512 38.0329C10.9221 38.0363 9.48553 37.444 8.40632 36.3648Z" fill="#13B1B0"/>
<path d="M29.007 32.7804C28.876 32.6493 28.7953 32.4681 28.7955 32.2677C28.7964 31.867 29.1221 31.5413 29.5228 31.5404L35.5208 31.5267C37.0492 31.5229 38.4078 32.4287 38.9829 33.8336C39.6371 35.4671 41.1912 36.5163 42.9446 36.5125C45.3023 36.507 47.2251 34.584 47.2303 32.2261C47.2335 30.7996 46.5291 29.4744 45.3456 28.6797C45.1455 28.5454 45.0256 28.3198 45.0261 28.0781C45.0267 27.8364 45.1475 27.6104 45.3483 27.4751C46.535 26.6762 47.2457 25.3474 47.2491 23.9204C47.2541 21.5627 45.3403 19.6484 42.983 19.6535C41.2295 19.6578 39.6701 20.7146 39.0109 22.3457C38.4278 23.7579 37.0647 24.6694 35.5361 24.6729L29.6473 24.6862C29.2464 24.6873 28.9225 24.3631 28.9232 23.9622C28.9243 23.5613 29.2498 23.2358 29.6506 23.2349L35.5394 23.2215C36.4771 23.2194 37.3126 22.6622 37.6677 21.802C38.5486 19.6231 40.6371 18.2081 42.9863 18.2021C46.144 18.195 48.7073 20.7587 48.7006 23.917C48.6968 25.5036 48.0404 26.9995 46.9086 28.074C48.0333 29.1413 48.6854 30.6366 48.6818 32.2226C48.6748 35.3808 46.0997 37.9563 42.9416 37.9636C40.5923 37.9689 38.5104 36.5639 37.6373 34.3832C37.2877 33.5293 36.455 32.9756 35.5178 32.9778L29.5198 32.9915C29.3193 32.9921 29.1381 32.9114 29.007 32.7804Z" fill="#13B1B0"/>
</svg>
