<svg width="43" height="45" viewBox="0 0 43 45" fill="none" xmlns="http://www.w3.org/2000/svg">
<path d="M18.7029 10.7103C15.9726 10.7103 13.7515 8.52039 13.7515 5.8285C13.7515 3.1366 15.9726 0.946716 18.7029 0.946716C21.4331 0.946716 23.6542 3.1366 23.6542 5.8285C23.6542 8.52039 21.4331 10.7103 18.7029 10.7103ZM18.7029 2.37422C16.771 2.37422 15.1995 3.92379 15.1995 5.82832C15.1995 7.73284 16.7712 9.28241 18.7029 9.28241C20.6345 9.28241 22.2062 7.73284 22.2062 5.82832C22.2062 3.92379 20.6347 2.37422 18.7029 2.37422Z" fill="#13B1B0"/>
<path d="M18.7031 39.5541C13.751 39.5541 9.72217 35.5817 9.72217 30.6992C9.72217 26.447 12.1603 23.0809 15.9337 22.1235C16.3205 22.0255 16.7156 22.2552 16.8154 22.6369C16.9149 23.0186 16.6818 23.4079 16.2946 23.5062C13.1817 24.2959 11.1704 27.1193 11.1704 30.6992C11.1704 34.7945 14.5496 38.1264 18.7033 38.1264C23.1384 38.1264 26.2361 35.4388 26.2361 31.5908C26.2361 31.1966 26.5603 30.877 26.9602 30.877C27.36 30.877 27.6842 31.1966 27.6842 31.5908C27.6842 33.9572 26.7596 35.9816 25.0104 37.4457C23.3853 38.8051 21.1456 39.5541 18.7031 39.5541Z" fill="#13B1B0"/>
<path d="M18.7028 44.0536C11.1942 44.0536 5.08545 38.0307 5.08545 30.6277C5.08545 24.4974 9.2853 19.1504 15.2985 17.6242C15.686 17.5255 16.0804 17.7557 16.1801 18.1374C16.2799 18.5191 16.0467 18.9084 15.6596 19.0067C10.2863 20.3705 6.53367 25.1489 6.53367 30.6277C6.53367 37.2435 11.9928 42.6259 18.703 42.6259C25.5582 42.6259 30.1638 38.3002 30.1638 31.8617C30.1638 31.4675 30.488 31.1479 30.8879 31.1479C31.2877 31.1479 31.6119 31.4675 31.6119 31.8617C31.6117 39.154 26.4239 44.0536 18.7028 44.0536Z" fill="#13B1B0"/>
<path d="M38.0383 43.803C37.7905 43.803 37.5491 43.6776 37.414 43.4518L30.7427 32.3045H20.0421C18.5016 32.3045 17.173 31.2219 16.883 29.7306L15.4019 21.8333C15.3291 21.4457 15.589 21.0733 15.9822 21.0015C16.3762 20.9296 16.7532 21.1861 16.8258 21.5737L18.3061 29.4664C18.4646 30.2818 19.195 30.877 20.0421 30.877H31.1562C31.4125 30.877 31.6496 31.0105 31.7797 31.228L38.6611 42.7262C38.8644 43.0658 38.75 43.5034 38.4056 43.704C38.2901 43.7711 38.1632 43.803 38.0383 43.803Z" fill="white"/>
<path d="M38.0383 43.8031C37.7905 43.8031 37.549 43.6774 37.414 43.4518L30.7427 32.3045H20.0421C18.5015 32.3045 17.173 31.222 16.883 29.7306L14.767 18.4451C14.6945 18.0575 14.9542 17.6851 15.3475 17.6133C15.7405 17.5417 16.1182 17.7978 16.191 18.1856L18.3062 29.4665C18.4646 30.2818 19.1951 30.8768 20.0421 30.8768H31.1561C31.4124 30.8768 31.6495 31.0103 31.7797 31.2279L38.6611 42.726C38.8644 43.0657 38.75 43.5032 38.4055 43.7038C38.2901 43.7711 38.1634 43.8031 38.0383 43.8031Z" fill="#13B1B0"/>
<path d="M41.806 41.195C41.5354 41.195 41.276 41.0449 41.1518 40.7881L34.2619 26.5345C33.945 25.929 33.3196 25.5533 32.6278 25.5533H24.4165C24.0666 25.5533 23.7671 25.3069 23.7042 24.9675L22.0765 16.1629C21.768 14.5773 20.4042 13.5076 18.6837 13.5076C18.6358 13.5076 18.5889 13.503 18.5431 13.4941C9.2702 13.5788 2.03056 21.0742 2.03056 30.6277C2.03056 31.0219 1.70638 31.3415 1.30654 31.3415C0.906699 31.3415 0.58252 31.0219 0.58252 30.6277C0.58252 25.6317 2.41049 20.9753 5.72957 17.5166C9.10241 14.0016 13.7099 12.0659 18.7029 12.0659C18.7565 12.0659 18.8092 12.0717 18.8602 12.0828C21.2133 12.1549 23.0662 13.6709 23.4999 15.9008L25.0205 24.1258H32.6278C33.8698 24.1258 34.9919 24.8033 35.5559 25.8938C35.5588 25.8996 35.5617 25.9053 35.5644 25.9112L42.4591 40.1742C42.6312 40.5301 42.4779 40.9561 42.117 41.1258C42.0163 41.1727 41.9104 41.195 41.806 41.195Z" fill="#13B1B0"/>
</svg>
