<svg width="42" height="37" viewBox="0 0 42 37" fill="none" xmlns="http://www.w3.org/2000/svg">
<path d="M8.23955 27.8632C6.0134 27.8632 4.14036 26.8307 2.8228 24.8772C0.438054 21.3413 0.286673 15.5041 2.43737 10.0064C2.43988 10.0001 2.44239 9.9939 2.44506 9.98757C5.33007 3.25326 10.0698 0.85376 13.5437 0.85376C15.6509 0.85376 17.4949 1.67638 18.7362 3.16985C21.2487 6.19336 19.4761 8.69081 17.7618 11.106C16.3113 13.1494 14.8115 15.2623 15.4125 17.9868L15.5494 18.6036C16.4448 22.6394 14.0229 26.6862 10.1502 27.6239C9.49562 27.7826 8.85276 27.8632 8.23955 27.8632ZM3.60104 10.4807C1.6331 15.5187 1.7371 21.0168 3.86035 24.165C4.9335 25.7562 6.44777 26.5971 8.23955 26.5971C8.75409 26.5971 9.29843 26.5285 9.85705 26.3931C13.0671 25.6158 15.0713 22.2455 14.3246 18.88L14.1876 18.2633C13.4646 14.9855 15.2054 12.533 16.7413 10.3693C18.6065 7.74159 19.5743 6.14936 17.7745 3.98361C16.7758 2.78197 15.2735 2.12013 13.5437 2.12013C10.4701 2.11998 6.24494 4.31643 3.60104 10.4807Z" fill="#13B1B0"/>
<path d="M19.5886 36.0106C19.2421 36.0106 18.9611 35.7271 18.9611 35.3776V18.6798C18.9611 17.2538 17.8109 16.0934 16.397 16.0934H7.75785C7.41133 16.0934 7.13037 15.81 7.13037 15.4604C7.13037 15.1108 7.41133 14.8274 7.75785 14.8274H16.397C18.5029 14.8274 20.2161 16.5556 20.2161 18.6798V35.3776C20.2161 35.7271 19.9351 36.0106 19.5886 36.0106Z" fill="white"/>
<path d="M19.5883 36.0106C19.2417 36.0106 18.9608 35.7271 18.9608 35.3776V18.6798C18.9608 17.2538 17.8106 16.0934 16.3967 16.0934H7.0601C6.71357 16.0934 6.43262 15.81 6.43262 15.4604C6.43262 15.1108 6.71357 14.8274 7.0601 14.8274H16.3969C18.5027 14.8274 20.2159 16.5556 20.2159 18.6798V35.3776C20.2158 35.7271 19.9348 36.0106 19.5883 36.0106Z" fill="#13B1B0"/>
<path d="M7.11132 20.9638C6.86518 20.9638 6.63145 20.8166 6.53136 20.5729C6.39865 20.2499 6.55082 19.8796 6.87083 19.7457C10.8417 18.0861 12.7339 13.4771 11.0892 9.47181C10.9565 9.14881 11.1087 8.77848 11.4289 8.64476C11.7492 8.51103 12.116 8.66438 12.2487 8.98738C14.1583 13.6376 11.9613 18.9886 7.35133 20.9155C7.27273 20.9481 7.19132 20.9638 7.11132 20.9638Z" fill="#13B1B0"/>
<path d="M34.4237 27.8632C34.4236 27.8632 34.4236 27.8632 34.4234 27.8632C33.81 27.8632 33.1673 27.7826 32.5127 27.6241C28.6404 26.6864 26.2183 22.6397 27.1135 18.6034L27.2506 17.9864C27.8515 15.2624 26.3518 13.1495 24.9014 11.1061C23.1871 8.69096 21.4144 6.19366 23.9267 3.17016C25.1679 1.67653 27.0119 0.854065 29.1193 0.854065C32.593 0.854065 37.3329 3.25356 40.2181 9.98788C40.2207 9.99405 40.2232 10.0004 40.2257 10.0067C42.3764 15.5044 42.2251 21.3417 39.8402 24.8777C38.5226 26.8307 36.6496 27.8632 34.4237 27.8632ZM29.1191 2.11996C27.3895 2.11996 25.887 2.7818 24.8883 3.98344C23.0889 6.14919 24.0564 7.74126 25.9215 10.369C27.4574 12.5327 29.1982 14.9852 28.4753 18.262L28.3381 18.8803C27.5917 22.2454 29.5959 25.6158 32.8058 26.393C33.3645 26.5284 33.9087 26.5971 34.4234 26.5971C36.215 26.5971 37.7293 25.7563 38.8025 24.1652C40.926 21.0168 41.03 15.5186 39.0619 10.4807C36.4179 4.31626 32.1927 2.11996 29.1191 2.11996Z" fill="#13B1B0"/>
<path d="M23.0747 36.0106C22.7282 36.0106 22.4473 35.7271 22.4473 35.3776V18.6798C22.4473 16.5556 24.1605 14.8274 26.2663 14.8274H34.9053C35.2518 14.8274 35.5328 15.1108 35.5328 15.4604C35.5328 15.81 35.2518 16.0934 34.9053 16.0934H26.2663C24.8524 16.0934 23.7022 17.2538 23.7022 18.6798V35.3776C23.7022 35.7271 23.4213 36.0106 23.0747 36.0106Z" fill="white"/>
<path d="M23.0747 36.0106C22.7282 36.0106 22.4473 35.7271 22.4473 35.3776V18.6798C22.4473 16.5556 24.1605 14.8274 26.2663 14.8274H35.6026C35.9491 14.8274 36.2301 15.1108 36.2301 15.4604C36.2301 15.81 35.9491 16.0934 35.6026 16.0934H26.2663C24.8524 16.0934 23.7022 17.2538 23.7022 18.6798V35.3776C23.7022 35.7271 23.4213 36.0106 23.0747 36.0106Z" fill="#13B1B0"/>
<path d="M35.5517 20.9638C35.4717 20.9638 35.3903 20.9483 35.3117 20.9154C30.7016 18.9884 28.5044 13.6374 30.414 8.98719C30.5467 8.66419 30.9138 8.511 31.2338 8.64457C31.554 8.7783 31.706 9.14877 31.5735 9.47162C29.9287 13.477 31.8212 18.0859 35.7922 19.7455C36.1124 19.8794 36.2644 20.2497 36.1317 20.5727C36.0314 20.8166 35.7978 20.9638 35.5517 20.9638Z" fill="#13B1B0"/>
</svg>
