<svg width="36" height="28" viewBox="0 0 36 28" fill="none" xmlns="http://www.w3.org/2000/svg">
<path d="M20.0566 8.98242C19.2689 8.98242 18.5592 9.11914 17.9277 9.39258C17.3027 9.65951 16.7689 10.0501 16.3262 10.5645C15.89 11.0723 15.5547 11.6875 15.3203 12.4102C15.0859 13.1328 14.9688 13.9466 14.9688 14.8516C14.9688 16.0495 15.1543 17.0911 15.5254 17.9766C15.903 18.8555 16.4629 19.5358 17.2051 20.0176C17.9538 20.4993 18.888 20.7402 20.0078 20.7402C20.6458 20.7402 21.2448 20.6882 21.8047 20.584C22.3711 20.4733 22.9212 20.3366 23.4551 20.1738V21.6191C22.9342 21.8145 22.3874 21.9577 21.8145 22.0488C21.2415 22.1465 20.5612 22.1953 19.7734 22.1953C18.3216 22.1953 17.1074 21.8958 16.1309 21.2969C15.1608 20.6914 14.4316 19.8385 13.9434 18.7383C13.4616 17.638 13.2207 16.3392 13.2207 14.8418C13.2207 13.7611 13.3704 12.7747 13.6699 11.8828C13.9759 10.9844 14.4186 10.2096 14.998 9.55859C15.584 8.90755 16.3001 8.40625 17.1465 8.05469C17.9993 7.69661 18.9759 7.51758 20.0762 7.51758C20.7988 7.51758 21.4954 7.58919 22.166 7.73242C22.8366 7.87565 23.4421 8.08073 23.9824 8.34766L23.3184 9.75391C22.8626 9.54557 22.3613 9.36654 21.8145 9.2168C21.2741 9.06055 20.6882 8.98242 20.0566 8.98242ZM30.3105 11.1211C31.5866 11.1211 32.5339 11.4076 33.1523 11.9805C33.7708 12.5534 34.0801 13.4681 34.0801 14.7246V22H32.8984L32.5859 20.418H32.5078C32.2083 20.8086 31.8958 21.1374 31.5703 21.4043C31.2448 21.6647 30.8672 21.8633 30.4375 22C30.0143 22.1302 29.4935 22.1953 28.875 22.1953C28.224 22.1953 27.6445 22.0814 27.1367 21.8535C26.6354 21.6257 26.2383 21.2806 25.9453 20.8184C25.6589 20.3561 25.5156 19.7702 25.5156 19.0605C25.5156 17.9928 25.9388 17.1725 26.7852 16.5996C27.6315 16.0267 28.9206 15.7142 30.6523 15.6621L32.498 15.584V14.9297C32.498 14.0052 32.2995 13.3574 31.9023 12.9863C31.5052 12.6152 30.9453 12.4297 30.2227 12.4297C29.6628 12.4297 29.1289 12.5111 28.6211 12.6738C28.1133 12.8366 27.6315 13.0286 27.1758 13.25L26.6777 12.0195C27.1595 11.7721 27.7129 11.5605 28.3379 11.3848C28.9629 11.209 29.6204 11.1211 30.3105 11.1211ZM32.4785 16.7266L30.8477 16.7949C29.513 16.847 28.5723 17.0651 28.0254 17.4492C27.4785 17.8333 27.2051 18.377 27.2051 19.0801C27.2051 19.6921 27.3906 20.1445 27.7617 20.4375C28.1328 20.7305 28.6243 20.877 29.2363 20.877C30.1868 20.877 30.9648 20.6133 31.5703 20.0859C32.1758 19.5586 32.4785 18.7676 32.4785 17.7129V16.7266Z" fill="#13B1B0"/>
<path d="M6.53033 0.469669C6.23744 0.176777 5.76256 0.176777 5.46967 0.469669L0.696698 5.24264C0.403805 5.53553 0.403805 6.01041 0.696698 6.3033C0.989592 6.59619 1.46447 6.59619 1.75736 6.3033L6 2.06066L10.2426 6.3033C10.5355 6.59619 11.0104 6.59619 11.3033 6.3033C11.5962 6.01041 11.5962 5.53553 11.3033 5.24264L6.53033 0.469669ZM6.75 22L6.75 1L5.25 1L5.25 22L6.75 22Z" fill="#13B1B0"/>
</svg>
