<svg width="44" height="43" viewBox="0 0 44 43" fill="none" xmlns="http://www.w3.org/2000/svg">
<path d="M39.4141 42.8761C37.1072 42.8761 35.2305 41.1762 35.2305 39.0866C35.2305 37.2679 38.218 32.5603 38.8169 31.635C38.9483 31.4323 39.1729 31.3099 39.4141 31.3099C39.6553 31.3099 39.8801 31.4323 40.0112 31.6352C40.61 32.5603 43.597 37.2679 43.597 39.0866C43.5972 41.1762 41.7206 42.8761 39.4141 42.8761ZM39.4141 33.3613C38.1173 35.4758 36.6544 38.2011 36.6544 39.0866C36.6544 40.389 37.8925 41.4484 39.4141 41.4484C40.9355 41.4484 42.1733 40.3889 42.1733 39.0866C42.1733 38.2006 40.7105 35.4753 39.4141 33.3613Z" fill="#13B1B0"/>
<path d="M6.6315 11.8484C3.92822 11.8484 2.51143 10.9249 1.26142 10.1101C0.931787 9.89519 0.838343 9.45296 1.05264 9.12245C1.26676 8.79195 1.70764 8.69807 2.03763 8.91312C3.22712 9.68835 4.35058 10.4208 6.63167 10.4208C8.91188 10.4208 10.0361 9.68835 11.2263 8.91312C12.4764 8.09827 13.8938 7.17456 16.5962 7.17456C19.2971 7.17456 20.7141 8.09809 21.9643 8.91276C22.2939 9.12763 22.3877 9.57003 22.1734 9.90054C21.9589 10.231 21.5186 10.3249 21.1888 10.1102C19.9986 9.33446 18.8749 8.60224 16.5962 8.60224C14.316 8.60224 13.1921 9.33464 12.0021 10.1102C10.7512 10.9249 9.33353 11.8484 6.6315 11.8484Z" fill="#13B1B0"/>
<path d="M19.0169 28.3755H4.20994C2.40568 28.3755 0.937988 26.9037 0.937988 25.0948V6.11452C0.937988 2.74608 5.62708 0.107727 11.6132 0.107727C17.5996 0.107727 22.2891 2.74626 22.2891 6.11452V25.0947C22.2889 26.9037 20.8212 28.3755 19.0169 28.3755ZM11.613 1.53541C6.59836 1.53541 2.36171 3.63232 2.36171 6.11452V25.0947C2.36171 26.1165 3.19078 26.9476 4.20976 26.9476H19.0168C20.0359 26.9476 20.8648 26.1163 20.8648 25.0947V6.11452C20.865 3.63249 16.6282 1.53541 11.613 1.53541Z" fill="#13B1B0"/>
<path d="M13.9914 32.6694H9.23428C8.51948 32.6694 7.93799 32.0863 7.93799 31.3698V27.6616C7.93799 27.2674 8.25676 26.9478 8.64994 26.9478H14.5759C14.969 26.9478 15.2878 27.2674 15.2878 27.6616V31.3698C15.2878 32.0863 14.7062 32.6694 13.9914 32.6694ZM9.36189 31.2417H13.8639V28.3754H9.36189V31.2417Z" fill="#13B1B0"/>
<path d="M18.5634 42.8923C14.3382 42.8923 10.9009 39.4461 10.9009 35.2101V31.9555C10.9009 31.5613 11.2197 31.2417 11.6128 31.2417C12.006 31.2417 12.3248 31.5613 12.3248 31.9555V35.2101C12.3248 38.6589 15.1235 41.4646 18.5634 41.4646C22.0031 41.4646 24.8014 38.6589 24.8014 35.2101V21.6596C24.8014 17.4233 28.2385 13.9767 32.4632 13.9767C36.6883 13.9767 40.1258 17.4233 40.1258 21.6596V29.17C40.1258 29.5642 39.807 29.8838 39.4138 29.8838C39.0207 29.8838 38.7019 29.5642 38.7019 29.17V21.6596C38.7019 18.2105 35.9032 15.4044 32.4632 15.4044C29.0236 15.4044 26.2253 18.2105 26.2253 21.6596V35.2101C26.2253 39.4462 22.7882 42.8923 18.5634 42.8923Z" fill="#13B1B0"/>
<path d="M17.2832 24.1365H14.2549C13.8617 24.1365 13.543 23.8169 13.543 23.4227C13.543 23.0285 13.8617 22.7089 14.2549 22.7089H17.2832C17.6764 22.7089 17.9952 23.0285 17.9952 23.4227C17.9952 23.8169 17.6764 24.1365 17.2832 24.1365Z" fill="#13B1B0"/>
<path d="M17.2832 20.6431H14.2549C13.8617 20.6431 13.543 20.3233 13.543 19.9293C13.543 19.5353 13.8617 19.2155 14.2549 19.2155H17.2832C17.6764 19.2155 17.9952 19.5351 17.9952 19.9293C17.9952 20.3235 17.6764 20.6431 17.2832 20.6431Z" fill="#13B1B0"/>
<path d="M17.2832 17.15H14.2549C13.8617 17.15 13.543 16.8302 13.543 16.4359C13.543 16.0417 13.8617 15.7221 14.2549 15.7221H17.2832C17.6764 15.7221 17.9952 16.0417 17.9952 16.4359C17.9952 16.8302 17.6764 17.15 17.2832 17.15Z" fill="#13B1B0"/>
<path d="M17.2832 13.6566H14.2549C13.8617 13.6566 13.543 13.337 13.543 12.9428C13.543 12.5486 13.8617 12.2289 14.2549 12.2289H17.2832C17.6764 12.2289 17.9952 12.5486 17.9952 12.9428C17.9952 13.337 17.6764 13.6566 17.2832 13.6566Z" fill="#13B1B0"/>
</svg>
