<svg fill="none" height="260" viewBox="0 0 300 260" width="300" xmlns="http://www.w3.org/2000/svg" xmlns:xlink="http://www.w3.org/1999/xlink"><mask id="a" height="260" maskUnits="userSpaceOnUse" width="300" x="0" y="0"><path d="m0 0h300v260h-300z" fill="#52a1ae"/></mask><g mask="url(#a)"><g fill="#fff" fill-opacity=".5"><path d="m283.192 120.793-94.578 40.071 9.365 94.987c2.56-2.072 4.921-4.61 6.834-7.641l74.565-118.181c1.913-3.032 3.134-6.172 3.814-9.236z"/><path d="m272.994 93.0258-158.615-83.17517c-2.604-1.3653-5.571-1.81051-8.649-1.59393l13.201 135.6993c1.14 12.042 11.866 17.666 23.917 12.542l135.99-57.4664c-1.332-2.5294-3.24-4.6405-5.844-6.0058z"/><path d="m88.1777 11.2775c-2.5598 2.0716-4.9207 4.609-6.8337 7.641l-74.56461 118.1805c-1.913 3.032-3.13421 6.172-3.8147 9.236l94.57801-40.071z"/><path d="m168.834 159.85-14.225 3.784c-18.928 5.035-38.455-6.157-43.526-24.949l-3.812-14.122-100.28552 26.334c1.74278 2.523 4.00082 4.743 6.84372 6.372l173.1958 99.273c2.843 1.63 5.908 2.461 8.981 2.698z"/></g><path d="m0 0h300v260h-300z" fill="#52a1ae" fill-opacity=".25"/></g></svg>