<svg width="99" height="36" viewBox="0 0 99 36" fill="none" xmlns="http://www.w3.org/2000/svg">
<path d="M13.6071 11.1045C5.61226 16.6082 0 24.0318 0 24.0318L10.4921 31.1118C10.4921 31.1118 11.401 28.8487 11.4275 28.787C13.9248 33.921 19.2723 35.2947 22.2637 35.2243H22.2108H76.701H76.648C79.6747 35.3035 85.084 33.9474 87.599 28.8223C87.6872 29.0336 88.5079 31.0326 88.5079 31.0326L99 24.0318C99 24.0318 93.2995 16.5994 85.2429 11.1045C77.8305 6.03216 65.5823 0 49.3809 0C33.1706 0 20.9842 6.04096 13.6071 11.1045Z" fill="white"/>
<path d="M33.4911 16.7227L34.4 14.7854H22.7607L21.8518 16.7227H26.3611L21.693 26.1981H24.7021L29.3701 16.7227H33.4911Z" fill="#CC2229"/>
<path d="M75.5151 23.0543C74.6503 24.2695 73.4237 24.8859 72.7795 24.428C72.1354 23.9701 72.3118 22.614 73.1766 21.3987C74.0414 20.1835 75.268 19.5671 75.9122 20.025C76.5563 20.4829 76.3798 21.839 75.5151 23.0543ZM65.323 23.0103C64.4582 24.2255 63.2316 24.8419 62.5874 24.384C61.9433 23.9261 62.1198 22.57 62.9845 21.3459C63.8493 20.1307 65.0759 19.5142 65.7201 19.9722C66.3643 20.4389 66.1878 21.795 65.323 23.0103ZM52.6689 22.1296C52.6689 22.1296 53.2337 20.2451 55.0603 19.4878C55.0603 19.4878 55.5809 19.3117 55.8545 19.5319C55.8545 19.5319 56.2428 19.9105 55.7839 20.6062C55.3692 21.2226 54.372 22.341 53.2866 22.7197C53.2778 22.7197 52.2983 23.1423 52.6689 22.1296ZM34.8967 23.0103C34.032 24.2255 32.8054 24.8419 32.1612 24.384C31.517 23.9261 31.6935 22.57 32.5583 21.3459C33.4231 20.1307 34.6497 19.5142 35.2938 19.9722C35.938 20.4389 35.7615 21.795 34.8967 23.0103ZM78.4094 24.4897C78.4094 24.4897 77.8182 24.7627 77.5711 24.4985C77.3152 24.2343 77.5447 23.75 77.5447 23.75L80.0066 18.5896H77.5005L77.1211 19.2765C75.6563 17.9908 72.9031 18.6512 71.1912 20.4389C70.2117 21.4692 69.6469 22.6844 69.5763 23.7412C69.2939 23.9261 68.8351 24.2079 68.2262 24.4456C68.2262 24.4456 67.6438 24.7098 67.3879 24.4545C67.132 24.1991 67.3614 23.7059 67.3614 23.7059L71.7294 14.7414H69.2233L66.929 19.2324C65.4642 17.9468 62.711 18.616 61.0079 20.3949C60.6637 20.7559 60.3725 21.1434 60.1343 21.5308V21.522C60.1166 21.5484 60.099 21.5837 60.0813 21.6189C60.0284 21.707 59.9754 21.8038 59.9313 21.8919C58.5724 24.2431 56.8781 24.6394 56.8781 24.6394C53.2954 25.7049 52.8895 23.9613 52.8895 23.9613C56.9046 22.4819 58.4047 20.7295 58.2724 19.391C58.1312 18.0436 56.2869 17.982 56.2869 17.982C53.2513 17.7971 50.6305 19.9193 49.9951 21.9887C49.801 22.6228 49.7392 23.2656 49.8628 23.8556C48.645 24.4985 47.9479 24.6042 47.9479 24.6042C46.9331 24.9212 46.8096 24.4456 46.6948 24.155C46.5713 23.8644 46.1213 21.2843 46.1213 21.2843L50.3569 18.4927H47.7538L44.5505 20.4741C43.8358 20.7735 44.1093 20.0162 44.1093 20.0162L46.7213 14.7325H44.2064L39.9707 23.3009C39.4854 23.5915 38.5059 24.1639 37.7999 24.4368C37.7999 24.4368 37.2087 24.701 36.9616 24.4456C36.7057 24.1815 36.9352 23.6971 36.9352 23.6971L39.3971 18.5368H36.8822L36.4939 19.2236C35.0291 17.938 32.2759 18.6072 30.5728 20.386C28.8609 22.1649 28.4285 24.5161 29.6021 25.6257C30.5375 26.5239 32.2141 26.3566 33.7231 25.3439C33.7231 25.3439 34.1025 25.018 34.3143 25.4055C34.5261 25.8018 35.3909 26.7 37.3852 25.9163C38.0205 25.6697 38.5941 25.3791 39.0883 25.1061L38.5677 26.1628H41.0738L42.3268 23.6267L43.421 22.931C43.421 22.931 43.7564 22.6668 43.8887 23.2304C43.8887 23.2304 44.427 25.3615 44.6388 25.6433C44.8506 25.9251 45.2653 26.5503 47.0302 26.0395C48.3803 25.6521 49.6422 25.1765 50.304 24.8948C50.8952 25.7049 52.0336 26.2597 53.8867 26.2597C56.6399 26.2597 58.5812 24.9476 59.4019 24.2695C59.4636 24.8155 59.6666 25.291 60.0372 25.6345C60.9726 26.5327 62.6492 26.3654 64.1582 25.3527C64.1582 25.3527 64.5376 25.0268 64.7494 25.4143C64.9612 25.8106 65.826 26.7088 67.8114 25.9251C68.7292 25.564 69.338 25.2206 69.7351 24.9564C69.841 25.2382 70.0087 25.4848 70.2205 25.6961C71.1559 26.5855 72.8325 26.4182 74.3414 25.4055C74.3414 25.4055 74.7209 25.0797 74.9327 25.4672C75.1444 25.8634 76.0092 26.7616 77.9947 25.9779C79.989 25.1942 80.5537 24.4809 80.5537 24.4809L80.0508 23.6003C79.9802 23.6267 79.3713 24.111 78.4094 24.4897Z" fill="#CC2229"/>
<path d="M85.4434 24.2519C85.4434 24.2519 84.2609 31.1558 76.6102 31.1558C69.0213 31.1558 29.7884 31.1558 22.2083 31.1558C14.5577 31.1558 13.4811 24.1902 13.4811 24.1902C13.1899 22.3409 13.5517 21.0729 14.1164 20.2011C19.6228 12.9625 30.5208 3.25819 49.3608 3.25819C68.3595 3.25819 79.3458 13.1122 84.8521 20.3508C85.4875 21.1433 85.7258 22.4642 85.4434 24.2519ZM49.3872 2.05176C19.0404 2.05176 2.94485 23.5386 2.94485 23.5386L9.54544 27.9856C9.54544 27.9856 10.3396 25.9955 12.1663 23.1423C12.1751 23.8556 12.2722 24.3575 12.2722 24.3575C13.437 33.3838 22.226 33.1724 22.226 33.1724H76.7161C76.7161 33.1724 85.6199 33.4102 86.7847 24.3928C86.7847 24.3928 86.8729 23.926 86.8817 23.2127C88.6731 25.9955 89.4584 27.924 89.4584 27.924L96.0502 23.521C96.059 23.5298 79.7252 2.05176 49.3872 2.05176Z" fill="#CC2229"/>
</svg>
