<svg fill="none" height="50" viewBox="0 0 50 50" width="50" xmlns="http://www.w3.org/2000/svg"><path d="m25 11.7188c3.231 0 5.8594-2.62838 5.8594-5.85942 0-3.23105-2.6284-5.85938-5.8594-5.85938s-5.8594 2.62833-5.8594 5.85938c0 3.23104 2.6284 5.85942 5.8594 5.85942zm0-7.81255c1.0769 0 1.9531.87624 1.9531 1.95313 0 1.07688-.8762 1.95312-1.9531 1.95312s-1.9531-.87624-1.9531-1.95312c0-1.07689.8762-1.95313 1.9531-1.95313zm10.7422 27.15755c0 2.3873-1.2718 4.6334-3.3188 5.8617l-.1411.0847c-.8778.5268-1.4229 1.4893-1.4229 2.5124v8.5243c0 1.0788-.8744 1.9531-1.9532 1.9531-1.0787 0-1.9531-.8743-1.9531-1.9531v-8.5243c0-2.3873 1.2718-4.6334 3.3188-5.8617l.1412-.0847c.8777-.5264 1.4228-1.4893 1.4228-2.5124v-8.7005c0-4.0356-3.7441-4.8828-6.8847-4.8828-3.1407 0-6.8848.8472-6.8848 4.8828v8.6723c0 1.0338.5535 2.0012 1.4443 2.5253l.1659.0977c2.079 1.223 3.3703 3.4805 3.3703 5.8922v8.4961c0 1.0788-.8744 1.9531-1.9531 1.9531-1.0788 0-1.9532-.8743-1.9532-1.9531v-8.4961c0-1.0338-.5535-2.0012-1.4442-2.525l-.166-.0976c-2.079-1.223-3.3702-3.4809-3.3702-5.8926v-8.6723c0-2.9423 1.1879-5.3139 3.4355-6.8581 1.8387-1.2634 4.3823-1.931 7.3555-1.931 2.9731 0 5.5168.6676 7.3555 1.931 2.2476 1.5442 3.4355 3.9158 3.4355 6.8581zm-25.97658-15.4388c3.23108 0 5.85938-2.6283 5.85938-5.85938 0-3.23104-2.6283-5.85937-5.85938-5.85937-3.23104 0-5.85937 2.62833-5.85937 5.85937 0 3.23108 2.62833 5.85938 5.85937 5.85938zm0-7.8125c1.07688 0 1.95318.87624 1.95318 1.95312s-.8763 1.95318-1.95318 1.95318-1.95312-.8763-1.95312-1.95318.87624-1.95312 1.95312-1.95312zm5.85938 33.3984v6.836c0 1.0788-.8743 1.9531-1.9531 1.9531s-1.9531-.8743-1.9531-1.9531v-6.836c0-1.0788.8743-1.9531 1.9531-1.9531s1.9531.8743 1.9531 1.9531zm-4.1016-21.7285c0 1.0788-.8743 1.9531-1.95309 1.9531-5.66406 0-5.66406 2.6604-5.66406 3.6622v8.3007c0 .9175.43793 1.7933 1.17187 2.3438 1.71204 1.284 2.73438 3.3287 2.73438 5.4687v6.836c0 1.0788-.87433 1.9531-1.95312 1.9531-1.0788 0-1.95313-.8743-1.95313-1.9531v-6.836c0-.9174-.43793-1.7933-1.17187-2.3437-1.71204-1.284-2.73438-3.3287-2.73438-5.4688v-8.3007c0-2.6402 1.08414-4.7265 3.13492-6.0326 1.59988-1.0193 3.7651-1.5358 6.43539-1.5358 1.07879 0 1.95309.8743 1.95309 1.9531zm28.711-3.8574c3.231 0 5.8594-2.6283 5.8594-5.85938 0-3.23104-2.6284-5.85937-5.8594-5.85937-3.2311 0-5.8594 2.62833-5.8594 5.85937 0 3.23108 2.6283 5.85938 5.8594 5.85938zm0-7.8125c1.0769 0 1.9531.87624 1.9531 1.95312s-.8762 1.95318-1.9531 1.95318-1.9532-.8763-1.9532-1.95318.8763-1.95312 1.9532-1.95312zm-1.9532 33.3984v6.836c0 1.0788-.8743 1.9531-1.9531 1.9531s-1.9531-.8743-1.9531-1.9531v-6.836c0-1.0788.8743-1.9531 1.9531-1.9531s1.9531.8743 1.9531 1.9531zm11.7188-16.1132v8.3007c0 2.1401-1.0223 4.1848-2.7344 5.4688-.7339.5504-1.1718 1.4263-1.1718 2.3437v6.836c0 1.0788-.8744 1.9531-1.9532 1.9531s-1.9531-.8743-1.9531-1.9531v-6.836c0-2.14 1.0223-4.1847 2.7344-5.4687.7339-.5505 1.1719-1.4263 1.1719-2.3438v-8.3007c0-1.0018 0-3.6622-5.6641-3.6622-1.0788 0-1.9531-.8743-1.9531-1.9531s.8743-1.9531 1.9531-1.9531c2.6703 0 4.8355.5165 6.4354 1.5358 2.0508 1.3061 3.1349 3.3924 3.1349 6.0326z" fill="#fff"/></svg>