<svg fill="none" height="46" viewBox="0 0 46 46" width="46" xmlns="http://www.w3.org/2000/svg" xmlns:xlink="http://www.w3.org/1999/xlink"><clipPath id="a"><path d="m.5.5h45v45h-45z"/></clipPath><g clip-path="url(#a)"><path d="m41.1776 27.1219c0-6.5375-5.3186-11.8561-11.856-11.8561h-.5231c-.4976-2.1098-2.161-3.7732-4.2709-4.2709v-4.97414h-2.2784v-2.88404h2.2784v-2.63672h-13.0649v2.63672h2.2784v2.88404h-2.2784v21.12684h1.4056v5.0827h10.2538v-5.0827h1.4056v-4.974c2.1099-.4977 3.7733-2.1612 4.2709-4.271h.5231c5.0835 0 9.2193 4.1358 9.2193 9.2194s-4.1358 9.2194-9.2193 9.2194h-24.49902v9.1586h36.35502v-9.1587h-4.4107c2.6884-2.1753 4.4106-5.4998 4.4106-9.2194zm-19.2866-4.9483v2.3373h-7.7916v-15.85342h7.7915v2.33742c-2.5336.5976-4.4254 2.876-4.4254 5.5893.0001 2.7135 1.8919 4.9918 4.4255 5.5894zm-5.5131-19.03688h3.2347v2.88404h-3.2347zm4.1075 26.45688h-4.9804v-2.4459h4.9804zm2.7239-9.9023c-1.7132 0-3.107-1.3938-3.107-3.1071 0-1.7132 1.3938-3.1071 3.107-3.1071 1.7133 0 3.107 1.3938 3.107 3.1071s-1.3937 3.1071-3.107 3.1071zm15.3316 19.2867v3.8853h-31.0815v-3.8853z" fill="#fff"/></g></svg>