<svg fill="none" height="42" viewBox="0 0 42 42" width="42" xmlns="http://www.w3.org/2000/svg" xmlns:xlink="http://www.w3.org/1999/xlink"><clipPath id="a"><path d="m0 0h42v42h-42z"/></clipPath><g clip-path="url(#a)"><path d="m30.2969 19.9978 10.6521-10.6514c1.4014-1.40148 1.4015-3.67023 0-5.07163-3.7955-3.795648-3.1454-3.14596-3.2443-3.24339-1.4033-1.381471-3.6563-1.375624-5.0514.01944l-10.6513 10.65208-10.6702-10.67012c-1.1418-1.141741-2.99963-1.141741-4.14137 0l-6.324786 6.3248c-1.141823 1.14182-1.141823 2.99952 0 4.14132l10.669856 10.6699-7.42004 7.42c-.11266.1126-.21165.2657-.26798.4027-2.63192 6.0041-1.82255 4.1427-3.625341 8.3286-.940142 2.1828 1.274661 4.3982 3.457831 3.4578 4.75391-2.0474 2.04779-.8721 8.35523-3.6371.1214-.0532.2655-.1472.3749-.2564.0004-.0003.0007-.0005.0009-.0008l7.42-7.4192 10.6698 10.6699c1.1419 1.1418 2.9996 1.1418 4.1414 0l6.3248-6.3248c1.1445-1.1444 1.1446-2.9969 0-4.1414zm-6.5554-6.5555 6.6151-6.61557 1.5386 1.53868-6.615 6.61559zm12.244-10.65194 3.2237 3.22363c.4391.43919.4391 1.15368.0001 1.59287l-2.297 2.29699c-.1478-.14774-3.4556-3.45553-4.8165-4.81642l2.297-2.29691c.4364-.43647 1.152-.441 1.5927-.00016zm-2.351 7.31444 1.5386 1.5385-6.6155 6.6151-1.538-1.5379zm-20.3598 13.8034 1.5388 1.5388-6.54951 6.5503-1.53935-1.539zm-10.79346 15.3849.7145-1.6589 1.17007 1.17-1.65892.7145c-.14593.0627-.28865-.0791-.22565-.2256zm4.31192-1.5402-2.5461-2.5461 1.14207-2.6052c.37594.3759 3.63571 3.6357 4.00935 4.0093zm4.74824-2.4783-1.5381-1.538 6.5495-6.5501 1.5387 1.5386zm27.6863-2.2046-6.3248 6.3249c-.1826.1826-.4799.1827-.6628 0l-29.63516-29.63525c-.18266-.18274-.18266-.47995 0-.6627l6.32479-6.32479c.18274-.18266.47995-.18266.66269 0l3.66928 3.66932-2.1239 2.12397c-.4803.48028-.4803 1.25901 0 1.73925.4802.4803 1.259.4804 1.7393 0l2.1239-2.12392 3.4 3.39992-2.124 2.124c-.4803.4803-.4803 1.259 0 1.7393.4802.4803 1.259.4803 1.7393 0l2.124-2.124 1.3039 1.304 2.0958 2.0963-2.1237 2.1237c-.4803.4803-.4803 1.259 0 1.7393.4802.4803 1.259.4804 1.7393 0l2.124-2.124 3.4 3.4001-2.1239 2.1239c-.4803.4803-.4803 1.259 0 1.7393.4802.4803 1.259.4804 1.7393 0l2.1239-2.1239 3.3999 3.3999-2.1239 2.124c-.4804.4803-.4804 1.259 0 1.7393.4802.4803 1.259.4803 1.7393 0l2.1239-2.124 3.6694 3.6693c.183.183.1833.4797.0002.6628z" fill="#fff"/></g></svg>