<svg fill="none" height="17" viewBox="0 0 17 17" width="17" xmlns="http://www.w3.org/2000/svg"><path d="m17 8.5c0-4.68842-3.8116-8.5-8.5-8.5-4.68842 0-8.5 3.81158-8.5 8.5 0 4.6884 3.81158 8.5 8.5 8.5 4.6884 0 8.5-3.8116 8.5-8.5zm-9.07263 2.9347-3.27474-3.29259c-.16105-.16106-.23263-.3579-.23263-.57264 0-.21473.07158-.41158.23263-.57263.30421-.30421.82316-.30421 1.12737 0l2.72 2.7379 2.72-2.72c.3042-.30421.8232-.30421 1.1274 0s.3042.82315 0 1.12737l-3.27477 3.29259c-.14316.1432-.35789.2327-.57263.2327s-.41158-.0895-.57263-.2327z" fill="#fff"/></svg>