<svg fill="none" height="62" viewBox="0 0 73 62" width="73" xmlns="http://www.w3.org/2000/svg"><g fill="#fff"><path d="m12.4344 16.8252c-1.3446 0-2.4344 1.0898-2.4344 2.4344v23.4554c0 1.3446 1.0898 2.4344 2.4344 2.4344s2.4343-1.0898 2.4343-2.4344v-23.4554c0-1.3446-1.0897-2.4344-2.4343-2.4344z"/><path d="m24 14c-1.1047 0-2 .874-2 1.9524v30.0952c0 1.0784.8953 1.9524 2 1.9524s2-.874 2-1.9524v-30.0952c0-1.0784-.8953-1.9524-2-1.9524z"/><path d="m35.6871 0c-1.3446 0-2.4344 1.08979-2.4344 2.43437v57.10533c0 1.3446 1.0898 2.4343 2.4344 2.4343 1.3445 0 2.4343-1.0897 2.4343-2.4343v-57.10533c0-1.34431-1.0898-2.43437-2.4343-2.43437z"/><path d="m47.3128 14.1909c-1.3446 0-2.4344 1.0898-2.4344 2.4344v28.7237c0 1.3446 1.0898 2.4344 2.4344 2.4344s2.4344-1.0898 2.4344-2.4344v-28.7237c0-1.3446-1.0898-2.4344-2.4344-2.4344z"/><path d="m58.9393 16.8252c-1.3446 0-2.4344 1.0898-2.4344 2.4344v23.4554c0 1.3446 1.0898 2.4344 2.4344 2.4344 1.3445 0 2.4343-1.0898 2.4343-2.4344v-23.4554c0-1.3446-1.09-2.4344-2.4343-2.4344z"/><path d="m70.5657 24.6206c-1.3446 0-2.4344 1.0898-2.4344 2.4344v7.8649c0 1.3446 1.0898 2.4344 2.4344 2.4344s2.4344-1.0898 2.4344-2.4344v-7.8649c0-1.3446-1.0898-2.4344-2.4344-2.4344z"/><path d="m2.43437 25.4873c-1.34458 0-2.43437 1.0898-2.43437 2.4344v7.8649c0 1.3446 1.08979 2.4344 2.43437 2.4344 1.34459 0 2.43438-1.0898 2.43438-2.4344v-7.8649c0-1.3446-1.08979-2.4344-2.43438-2.4344z"/></g></svg>