<svg fill="none" height="65" viewBox="0 0 63 65" width="63" xmlns="http://www.w3.org/2000/svg"><g fill="#fff"><path d="m61.3428 1.62774c-1.0545-1.053245-2.4789-1.62774-3.9717-1.62774h-51.74219c-3.09521 0-5.62891 2.48948-5.62891 5.55345v53.89305c0 3.064 2.5337 5.5535 5.62891 5.5535h51.72849c3.1089 0 5.6289-2.4895 5.6289-5.5535v-53.89305c.0137-1.47727-.5752-2.87247-1.6435-3.92571zm-58.26128 12.26956v-8.34385c0-1.36784 1.15044-2.4758 2.54739-2.4758h51.72849c1.4106 0 2.5474 1.10796 2.5474 2.4758v8.33015h-56.82328zm56.83698 3.0777v42.4715c0 1.3679-1.1505 2.4758-2.5474 2.4758h-51.74219c-1.41065 0-2.54739-1.1079-2.54739-2.4758v-42.4715z"/><path d="m24.7891 6.45654c-1.26 0-2.2735 1.02589-2.2735 2.27063s1.0135 2.27063 2.2735 2.27063 2.2735-1.01222 2.2735-2.27063c0-1.25842-1.0272-2.27063-2.2735-2.27063z"/><path d="m17.5441 6.45654c-1.26 0-2.2735 1.02589-2.2735 2.27063s1.0135 2.27063 2.2735 2.27063 2.2735-1.01222 2.2735-2.27063c0-1.25842-1.0135-2.27063-2.2735-2.27063z"/><path d="m10.3129 6.45654c-1.25999 0-2.27347 1.02589-2.27347 2.27063s1.01348 2.27063 2.27347 2.27063c1.26 0 2.2735-1.01222 2.2735-2.27063 0-1.25842-1.0272-2.27063-2.2735-2.27063z"/><path d="m9.40899 37.7527h12.03851c.7669 0 1.3695-.6018 1.3695-1.3678v-12.0234c0-.766-.6026-1.3678-1.3695-1.3678h-12.03851c-.76695 0-1.36956.6018-1.36956 1.3678v12.0234c0 .766.60261 1.3678 1.36956 1.3678zm10.66891-12.0234v9.2877h-9.2993v-9.2877z"/><path d="m28.3696 37.7591h25.6656c.767 0 1.3696-.6019 1.3696-1.3679v-12.0234c0-.7659-.6026-1.3678-1.3696-1.3678h-25.6656c-.767 0-1.3696.6019-1.3696 1.3678v12.0234c0 .766.6026 1.3679 1.3696 1.3679zm24.296-12.0234v9.2877h-22.9265v-9.2877z"/><path d="m9.40899 56.8748h12.03851c.7669 0 1.3695-.6019 1.3695-1.3679v-12.0097c0-.766-.6026-1.3678-1.3695-1.3678h-12.03851c-.76695 0-1.36956.6018-1.36956 1.3678v12.0234c0 .7523.60261 1.3542 1.36956 1.3542zm10.66891-12.0097v9.2877h-9.2993v-9.2877z"/><path d="m28.665 56.8748h17.0921c.767 0 1.3696-.6019 1.3696-1.3679v-12.0097c0-.766-.6026-1.3678-1.3696-1.3678h-17.0921c-.767 0-1.3696.6018-1.3696 1.3678v12.0234c0 .7523.6026 1.3542 1.3696 1.3542zm15.7226-12.0097v9.2877h-14.3531v-9.2877z"/><path d="m13.9559 33.3342.2328.2326c.0685.0547.137.082.137.082l.1233.0548c.1643.0683.315.0957.4793.0957s.3287-.041.5067-.1094c.0411-.0137.0822-.0411.1233-.0684l.1507-.0958c.0821-.0547.1232-.1231.0821-.0957l3.7389-5.1842c.3972-.5608.2603-1.3404-.3013-1.7508-.5615-.3967-1.3421-.2736-1.7393.2873l-2.6159 3.6658-1.3422-1.6825c-.4245-.5198-1.2052-.6155-1.753-.1778-.5478.424-.63 1.2174-.2054 1.7645z"/><path d="m13.7641 49.557-1.575 1.573c-.493.4924-.493 1.2858 0 1.7782.4794.4787 1.3011.4651 1.7668 0l1.575-1.5867 1.5887 1.5867c.2328.2325.5478.3693.8902.3693s.6574-.1368.8902-.3693.3698-.5472.3698-.8891c0-.342-.137-.6429-.3698-.8891l-1.575-1.573 1.575-1.5731c.2328-.2325.3698-.5471.3698-.8891 0-.3282-.1233-.6428-.3698-.8891-.4931-.4924-1.2874-.4924-1.7667 0l-1.5751 1.5867-1.575-1.5867c-.493-.4924-1.2873-.4787-1.7667 0-.493.4925-.493 1.2858 0 1.7782z"/></g></svg>