<svg fill="none" height="16" viewBox="0 0 16 16" width="16" xmlns="http://www.w3.org/2000/svg"><g fill="#009cb3"><path d="m13.268 1.73315h-.482v-.52592c0-.665951-.5255-1.20723-1.1721-1.20723-.6471 0-1.1721.541279-1.1721 1.20723v.52548h-1.20286v-.52548c0-.665951-.52547-1.20723-1.17211-1.20723s-1.17211.541279-1.17211 1.20723v.52548h-1.20285v-.52548c0-.665951-.52547-1.20723-1.17211-1.20723s-1.17211.541279-1.17211 1.20723v.52548h-.61547c-1.02856 0-1.865725.83716-1.865725 1.86572v10.53587c0 1.0285.837165 1.8657 1.865725 1.8657h10.53582c1.029 0 1.8657-.8372 1.8657-1.8657v-10.53587c0-1.02812-.8371-1.86528-1.8657-1.86528zm-2.1677-.52592c0-.302464.2304-.54874.5136-.54874.2836 0 .5136.246276.5136.54874v2.14932c0 .30246-.23.54874-.5136.54874-.2832 0-.5136-.24628-.5136-.54874zm-3.54709 0c0-.302464.23047-.54874.51362-.54874s.51362.246276.51362.54874v2.14932c0 .30246-.23047.54874-.51362.54874s-.51362-.24628-.51362-.54874zm-3.54751 0c0-.302464.23047-.54874.51362-.54874s.51362.246276.51362.54874v2.14932c0 .30246-.23047.54874-.51362.54874s-.51362-.24628-.51362-.54874zm10.0306 12.92747c0 .4236-.3446.7683-.7683.7683h-10.53582c-.42363 0-.76824-.3447-.76824-.7683v-9.65784h12.07236z"/><path d="m4.96884 6.42078h-2.01718v1.79504h2.01718z"/><path d="m7.66166 6.42078h-2.01762v1.79504h2.01762z"/><path d="m10.3558 6.42078h-2.01718v1.79504h2.01718z"/><path d="m13.0485 6.42078h-2.0176v1.79504h2.0176z"/><path d="m4.96884 8.81677h-2.01718v1.79373h2.01718z"/><path d="m7.66166 8.81677h-2.01762v1.79373h2.01762z"/><path d="m10.3558 8.81677h-2.01718v1.79373h2.01718z"/><path d="m13.0485 8.81677h-2.0176v1.79373h2.0176z"/><path d="m4.96884 11.2119h-2.01718v1.7937h2.01718z"/><path d="m7.66166 11.2119h-2.01762v1.7937h2.01762z"/><path d="m10.3558 11.2119h-2.01718v1.7937h2.01718z"/><path d="m13.0485 11.2119h-2.0176v1.7937h2.0176z"/></g></svg>