<svg fill="none" height="16" viewBox="0 0 10 16" width="10" xmlns="http://www.w3.org/2000/svg"><g fill="#fff"><path d="m9.33333 7h-8.666663c-.176811 0-.34638.07024-.471405.19526-.125024.12503-.195262.2946-.195262.47141v7.33333c0 .1768.070238.3464.195262.4714.125025.125.294594.1953.471405.1953h8.666663c.17681 0 .34638-.0703.47141-.1953.12502-.125.19526-.2946.19526-.4714v-7.33333c0-.17681-.07024-.34638-.19526-.47141-.12503-.12502-.2946-.19526-.47141-.19526zm-3.58 4.4333.20667 1.8634c.00518.0467.0004.094-.01402.1388s-.03815.086-.06964.121c-.03148.0349-.07001.0628-.11304.0818s-.0896.0287-.13663.0284h-1.25334c-.04703.0003-.0936-.0094-.13663-.0284s-.08156-.0469-.11304-.0818c-.03149-.035-.05522-.0762-.06964-.121s-.01919-.0921-.01402-.1388l.20667-1.8634c-.23495-.1608-.41221-.3927-.50585-.6616s-.09872-.5608-.01452-.83279c.08421-.27201.25329-.50992.48249-.6789.22919-.16897.50646-.26013.79121-.26013s.56202.09116.79121.26013c.2292.16898.39828.40689.48249.6789.08421.27199.07912.56389-.01452.83279s-.2709.5008-.50585.6616z"/><path d="m2.33333 4.33337c-.00041-.52772.15576-1.0437.44875-1.48262.29299-.43891.70962-.78103 1.19715-.98304.48752-.202 1.02403-.25481 1.54159-.15175.51756.10307.9929.35738 1.36585.73075 1 1 .78 2.05.78 3.88666h1.33333v-2c0-1.06086-.42143-2.07828-1.17157-2.82842-.75015-.750149-1.76756-1.171576-2.82843-1.171576s-2.07828.421427-2.82843 1.171576c-.75014.75014-1.17157 1.76756-1.17157 2.82842v2h1.33333z"/></g></svg>