<svg fill="none" height="63" viewBox="0 0 63 63" width="63" xmlns="http://www.w3.org/2000/svg" xmlns:xlink="http://www.w3.org/1999/xlink"><clipPath id="a"><path d="m0 0h63v63h-63z"/></clipPath><g clip-path="url(#a)" fill="#fff"><path d="m31.4999 11.48c-1.7252 0-3.3857.519-4.8019 1.5009-.4186.2903-.5244.8675-.2364 1.2893.2882.4218.8611.5284 1.2797.2382 1.1079-.7682 2.4076-1.1742 3.7586-1.1742 3.6612 0 6.6396 3.0008 6.6396 6.6894s-2.9784 6.6896-6.6396 6.6896c-3.6611 0-6.6396-3.001-6.6396-6.6896 0-1.0881.2508-2.1254.7453-3.0829.2345-.4543.0593-1.0141-.3915-1.2503-.451-.2361-1.0063-.0598-1.241.3945-.6234 1.2073-.9531 2.5693-.9531 3.9387.0001 4.7111 3.8041 8.5438 8.4799 8.5438s8.4798-3.8327 8.4798-8.5438c0-4.711-3.804-8.5436-8.4798-8.5436z"/><path d="m62.9298 61.7167-9.0813-21.9841c-.1428-.3457-.4778-.5708-.8494-.5708h-9.0498c1.7602-2.3992 3.2253-4.7889 4.3695-7.1353 2.0279-4.1582 3.0559-8.1965 3.0559-12.0028-.0001-11.04116-8.9156-20.0237-19.8743-20.0237s-19.8741 8.98254-19.8741 20.0235c0 3.8064 1.028 7.8448 3.0558 12.0029 1.1441 2.3464 2.6092 4.7362 4.3696 7.1352h-9.0498c-.37158 0-.70676.2253-.84937.5709l-6.18828 14.9804c-.19527.4728.02671 1.0154.49588 1.212.11567.0485.23527.0715.35315.0715.36053 0 .70272-.2148.84976-.571l.88298-2.1376h6.26378l-3.24593 7.858h-6.2637l.94094-2.278c.19528-.4727-.0267-1.0153-.49588-1.212-.46942-.197-1.00788.027-1.20303.4996l-1.4710237 3.5613c-.118248.2861-.086748.6129.0840407.8706.170543.2578.457735.4127.765352.4127h61.159731c.3075 0 .5948-.1549.7655-.4127.1706-.2577.2022-.5845.084-.8706zm-49.4632-41.6932c0-10.0187 8.0899-18.16943 18.0338-18.16943s18.0339 8.15083 18.0339 18.16943c0 4.2012-1.4489 10.9147-8.1512 19.4699-.0068.008-.0128.0165-.0192.0247-.3424.4365-.698.8776-1.0682 1.3236-3.683 4.4373-7.4101 7.6775-8.7954 8.8288-1.3812-1.1473-5.0907-4.3713-8.7711-8.8001-.3795-.4566-.7435-.9081-1.0938-1.3548-.0057-.0071-.011-.0145-.0169-.0215-6.7021-8.5546-8.1519-15.2678-8.1519-19.4706zm-2.851 20.9923h6.2639l-2.2847 5.5307h-6.26385zm5.3806 20.1301 5.7513-13.9225 16.3669 13.9225zm24.9708 0-18.9925-16.156c-.2242-.1909-.5254-.2624-.8101-.1927-.285.0695-.5203.2719-.6329.5447l-6.5285 15.8039h-3.4458l3.4818-8.429c.1182-.286.0867-.6127-.0841-.8705-.1705-.2578-.4578-.4127-.7654-.4127h-6.87726l1.25286-3.0331h7.6434c.3716 0 .7068-.2253.8494-.5708l2.8148-6.814h1.5969c.2773.3482.559.6966.8483 1.0448 4.7478 5.7131 9.4227 9.381 9.6195 9.5344.1658.1293.3644.1938.563.1938s.3973-.0646.5631-.1938c.1081-.0843 1.5697-1.2316 3.6512-3.1943h10.4197c.5082 0 .9201-.415.9201-.927s-.4119-.9271-.9201-.9271h-8.5233c1.2757-1.2923 2.6701-2.7992 4.072-4.4859.2892-.3482.5711-.6964.8482-1.0448h9.854l2.2846 5.5307h-4.8551c-.5081 0-.9201.4151-.9201.9271s.4118.927.9201.927h5.621l1.2528 3.0331h-18.9578c-.384 0-.7276.2402-.8621.6027-.1342.3625-.0311.7709.2589 1.0245l9.2449 8.085zm8.2129 0-8.9853-7.858h17.2601l3.2461 7.858z"/></g></svg>