<svg fill="none" height="16" viewBox="0 0 17 16" width="17" xmlns="http://www.w3.org/2000/svg"><path d="m7.53024.85347c.25365-1.007934 1.68587-1.007931 1.93952.000002l.97594 3.877848c.118.46901.5548.78634 1.0373.75366l3.9896-.27019c1.037-.07022 1.4796 1.29189.5994 1.8446l-3.3865 2.12645c-.4096.25719-.5764.77064-.3963 1.21946l1.4899 3.7109c.3872.9645-.7715 1.8063-1.5691 1.14l-3.06889-2.5636c-.37117-.3101-.91105-.3101-1.28222 0l-3.06885 2.5636c-.79766.6663-1.95635-.1755-1.56911-1.14l1.48982-3.7109c.18019-.44882.01336-.96227-.39622-1.21946l-3.386486-2.12645c-.8802175-.55271-.437637-1.91482.599346-1.8446l3.98962.27019c.48253.03268.9193-.28465 1.03733-.75366z" fill="#b9b9b9"/></svg>