<svg fill="none" height="63" viewBox="0 0 63 63" width="63" xmlns="http://www.w3.org/2000/svg"><g fill="#fff"><path d="m41.7067 29.9348-14.7656-9.2285c-.5691-.3556-1.2862-.3744-1.873-.0492-.5869.3252-.951.9434-.951 1.6144v18.457c0 .671.3641 1.2891.951 1.6144.2788.1545.5869.2313.8947.2313.3399 0 .6794-.0939.9782-.2805l14.7656-9.2285c.5397-.3373.8675-.9288.8675-1.5652s-.3277-1.2279-.8674-1.5652zm-13.8981 7.4636v-11.7969l9.4374 5.8985z"/><path d="m53.7715 7.50586h-44.54298c-5.08861 0-9.22852 4.13994-9.22852 9.22854v29.5312c0 5.0886 4.13991 9.2285 9.22852 9.2285h44.54298c5.0886 0 9.2285-4.1399 9.2285-9.2285v-29.5312c0-5.0886-4.1399-9.22854-9.2285-9.22854zm5.5371 38.75974c0 3.0532-2.484 5.5371-5.5371 5.5371h-44.54298c-3.05317 0-5.53711-2.4839-5.53711-5.5371v-29.5312c0-3.0532 2.48394-5.5371 5.53711-5.5371h44.54298c3.0531 0 5.5371 2.4839 5.5371 5.5371z"/></g></svg>